<!DOCTYPE svg PUBLIC "-//W3C//DTD SVG 1.1//EN" "http://www.w3.org/Graphics/SVG/1.1/DTD/svg11.dtd" [
	<!ENTITY ns_flows "http://ns.adobe.com/Flows/1.0/">
]><svg xmlns="http://www.w3.org/2000/svg" width="354" height="354" viewBox="-3 -33.129 354 354" overflow="visible"><path fill-rule="evenodd" clip-rule="evenodd" fill="#F3F4F4" d="M92.216 226.896H75.968c-.245 7.85 1.776 10.362 7.16 13.455l82.367 47.33c11.087 6.37 27.23 3.928 38.28-2.507L327.047 213.4c16.872-9.825-4.995-16.786-14.527-22.344l-68.366-39.866-151.938 75.706z"/><path fill-rule="evenodd" clip-rule="evenodd" fill="#DEDFE0" d="M183.914 115.656l12.718 7.392a.245.245 0 0 1 0 .424l-22.488 13.07a.25.25 0 0 1-.248-.003l-22.487-13.07a.243.243 0 0 1 0-.424l11.243-6.534c3.126-1.817 7.078-2.823 10.925-2.98 3.85-.158 7.605.538 10.334 2.123zm12.11 7.603l-12.356-7.18c-2.646-1.54-6.306-2.213-10.07-2.06-3.772.154-7.64 1.137-10.7 2.915l-10.88 6.323 22.003 12.786 22.004-12.787z"/><path fill-rule="evenodd" clip-rule="evenodd" fill="#DEDFE0" d="M196.634 123.05l22.486 13.068a.245.245 0 0 1 0 .424l-22.49 13.07a.246.246 0 0 1-.245-.002l-22.488-13.07a.245.245 0 0 1 0-.423l22.49-13.068a.238.238 0 0 1 .247 0zm21.877 13.28l-22-12.787-22.002 12.787 22.003 12.787 22-12.787z"/><path fill-rule="evenodd" clip-rule="evenodd" fill="#DEDFE0" d="M219.124 136.12l22.486 13.068a.246.246 0 0 1 0 .424l-22.49 13.068a.24.24 0 0 1-.245 0l-22.487-13.07a.245.245 0 0 1 0-.424l22.49-13.068a.246.246 0 0 1 .246 0zM241 149.4l-22.003-12.788-22.002 12.787 22.002 12.785L241 149.4z"/><path fill-rule="evenodd" clip-rule="evenodd" fill="#DEDFE0" d="M241.613 149.188l22.487 13.07a.245.245 0 0 1-.002.424L241.61 175.75a.245.245 0 0 1-.248 0l-22.485-13.07a.243.243 0 0 1 0-.423l22.488-13.07a.257.257 0 0 1 .248 0zm21.878 13.282l-22.002-12.787-22.002 12.787 22.002 12.787 22.004-12.787zM151.656 123.05l22.487 13.068a.245.245 0 0 1 0 .424l-22.49 13.07a.248.248 0 0 1-.246-.002l-22.487-13.07a.243.243 0 0 1-.088-.333.223.223 0 0 1 .09-.09l22.487-13.068a.236.236 0 0 1 .245 0zm21.878 13.28l-22.002-12.787-22.002 12.787 22.002 12.787 22.002-12.787z"/><path fill-rule="evenodd" clip-rule="evenodd" fill="#DEDFE0" d="M174.145 136.12l22.486 13.068a.243.243 0 0 1 .09.334.21.21 0 0 1-.09.09l-22.486 13.068a.245.245 0 0 1-.248 0l-22.487-13.07a.246.246 0 0 1-.09-.334.276.276 0 0 1 .09-.09l22.49-13.068a.248.248 0 0 1 .246 0zm21.878 13.28l-22.003-12.79-22 12.787 22 12.786 22.003-12.787z"/><path fill-rule="evenodd" clip-rule="evenodd" fill="#DEDFE0" d="M196.634 149.188l22.486 13.07a.245.245 0 0 1 0 .424l-22.49 13.068a.24.24 0 0 1-.245 0l-22.488-13.07a.245.245 0 0 1 0-.423l22.49-13.07a.255.255 0 0 1 .247 0zm21.877 13.282l-22-12.787-22.002 12.787 22.003 12.787 22-12.787z"/><path fill-rule="evenodd" clip-rule="evenodd" fill="#DEDFE0" d="M219.124 162.26l22.486 13.068a.247.247 0 0 1 .09.335.267.267 0 0 1-.09.09l-22.49 13.068a.24.24 0 0 1-.245 0l-22.487-13.07a.243.243 0 0 1 0-.42l22.49-13.07a.243.243 0 0 1 .246 0zM241 175.54l-22.003-12.788-22.002 12.788 22.002 12.787L241 175.54z"/><path fill-rule="evenodd" clip-rule="evenodd" fill="#DEDFE0" d="M196.634 175.33l22.486 13.068a.244.244 0 0 1 0 .423l-22.49 13.07a.24.24 0 0 1-.245 0l-22.488-13.07a.244.244 0 0 1 0-.422l22.49-13.07a.245.245 0 0 1 .247.002zm21.877 13.28l-22-12.788-22.002 12.787 22.003 12.786 22-12.788z"/><path fill-rule="evenodd" clip-rule="evenodd" fill="#DEDFE0" d="M174.145 162.26l22.486 13.068a.244.244 0 0 1 0 .425l-22.486 13.068a.247.247 0 0 1-.248 0l-22.487-13.07a.243.243 0 0 1 0-.42l22.49-13.07a.245.245 0 0 1 .246 0zm21.878 13.28l-22.002-12.788-22 12.788 22 12.787 22.004-12.787z"/><path fill-rule="evenodd" clip-rule="evenodd" fill="#DEDFE0" d="M151.656 149.188l22.487 13.07a.245.245 0 0 1 0 .424l-22.49 13.068a.24.24 0 0 1-.246 0l-22.487-13.07a.244.244 0 0 1 .002-.423l22.487-13.07a.253.253 0 0 1 .245 0zm21.878 13.282l-22.002-12.787-22.002 12.787 22.002 12.787 22.002-12.787z"/><path fill-rule="evenodd" clip-rule="evenodd" fill="#DEDFE0" d="M129.167 136.12l22.486 13.068a.245.245 0 0 1 0 .424l-22.488 13.068a.245.245 0 0 1-.248 0l-22.487-13.07a.245.245 0 0 1 0-.424l22.488-13.068a.253.253 0 0 1 .25 0zm21.878 13.28l-22.002-12.788L107.04 149.4l22.003 12.786 22.002-12.787zM174.145 188.4l22.486 13.067a.243.243 0 0 1 .09.334.228.228 0 0 1-.09.093l-22.486 13.068a.25.25 0 0 1-.248 0l-22.487-13.07a.246.246 0 0 1 0-.423L173.9 188.4a.248.248 0 0 1 .246 0zm21.878 13.28l-22.002-12.787-22 12.787 22 12.787 22.004-12.787z"/><path fill-rule="evenodd" clip-rule="evenodd" fill="#DEDFE0" d="M151.656 175.33l22.487 13.068a.244.244 0 0 1 0 .423l-22.49 13.07a.24.24 0 0 1-.246 0l-22.487-13.07a.243.243 0 0 1-.088-.332.223.223 0 0 1 .09-.09l22.487-13.07a.243.243 0 0 1 .245.002zm21.878 13.28l-22.002-12.788-22.002 12.787 22.002 12.786 22.002-12.788z"/><path fill-rule="evenodd" clip-rule="evenodd" fill="#DEDFE0" d="M129.167 162.26l22.486 13.068a.246.246 0 0 1 .09.335.286.286 0 0 1-.09.09l-22.488 13.068a.247.247 0 0 1-.248 0l-22.487-13.07a.243.243 0 0 1 0-.42l22.488-13.07a.25.25 0 0 1 .25 0zm21.878 13.28l-22.002-12.788-22.003 12.788 22.003 12.787 22.002-12.787z"/><path fill-rule="evenodd" clip-rule="evenodd" fill="#DEDFE0" d="M106.678 149.188l22.487 13.07a.246.246 0 0 1 .09.334.286.286 0 0 1-.09.09l-22.49 13.068a.243.243 0 0 1-.247 0L83.94 162.68a.244.244 0 0 1 .002-.423l22.488-13.07a.257.257 0 0 1 .248 0zm21.878 13.282l-22.003-12.787L84.55 162.47l22.003 12.787 22.003-12.787zM264.1 162.26l22.49 13.068a.247.247 0 0 1-.003.425L264.1 188.82a.25.25 0 0 1-.25 0l-22.485-13.07a.243.243 0 0 1 .002-.422l22.487-13.07a.245.245 0 0 1 .247.002zm21.88 13.28l-22.003-12.788-22.003 12.788 22.003 12.787 22.002-12.787z"/><path fill-rule="evenodd" clip-rule="evenodd" fill="#DEDFE0" d="M286.59 175.33l22.486 13.068a.244.244 0 0 1 0 .423l-22.487 13.07a.248.248 0 0 1-.25 0l-22.487-13.07a.244.244 0 0 1 0-.422l22.49-13.07a.243.243 0 0 1 .246.002zm21.878 13.28l-22.002-12.788-22.003 12.787 22.003 12.786 22.002-12.788z"/><path fill-rule="evenodd" clip-rule="evenodd" fill="#DEDFE0" d="M309.08 188.4l22.485 13.067a.244.244 0 0 1 .09.334.234.234 0 0 1-.09.093l-22.488 13.068a.25.25 0 0 1-.248 0l-22.487-13.07a.246.246 0 0 1 0-.423L308.83 188.4a.25.25 0 0 1 .25 0zm21.878 13.28l-22.003-12.787-22.003 12.787 22.003 12.787 22.003-12.787z"/><path fill-rule="evenodd" clip-rule="evenodd" fill="#DEDFE0" d="M331.568 201.47l12.717 7.39c1.397.812 2.4 1.785 3.017 2.845a5.29 5.29 0 0 1 .738 2.827c-.027.972-.32 1.96-.88 2.92-.848 1.457-2.302 2.855-4.35 4.044l-11.245 6.536a.248.248 0 0 1-.247 0l-22.486-13.07a.243.243 0 0 1-.088-.333c.02-.04.052-.07.09-.093l22.487-13.07a.242.242 0 0 1 .25.002zm12.47 7.813l-12.594-7.32-22.003 12.788 22.005 12.787 11.12-6.463c1.972-1.145 3.368-2.48 4.173-3.867.518-.89.79-1.798.813-2.687a4.797 4.797 0 0 0-.67-2.57c-.576-.99-1.52-1.9-2.84-2.667zM241.613 175.33l22.487 13.068a.244.244 0 0 1-.002.423l-22.488 13.07a.245.245 0 0 1-.248 0l-22.485-13.07a.243.243 0 0 1 0-.422l22.488-13.07a.247.247 0 0 1 .248.002zm21.878 13.28l-22.002-12.788-22.002 12.787 22.002 12.786 22.004-12.788z"/><path fill-rule="evenodd" clip-rule="evenodd" fill="#DEDFE0" d="M264.1 188.4l22.49 13.067a.25.25 0 0 1-.003.426l-22.487 13.07a.26.26 0 0 1-.25 0l-22.485-13.07a.246.246 0 0 1-.09-.334.234.234 0 0 1 .092-.09l22.487-13.068a.238.238 0 0 1 .247 0zm21.88 13.28l-22.003-12.787-22.003 12.787 22.003 12.787 22.002-12.787z"/><path fill-rule="evenodd" clip-rule="evenodd" fill="#DEDFE0" d="M286.59 201.47l22.486 13.068a.246.246 0 0 1 0 .425L286.59 228.03a.248.248 0 0 1-.25 0l-22.486-13.07a.243.243 0 0 1 0-.422l22.49-13.07a.24.24 0 0 1 .246.002zm21.878 13.28l-22.002-12.787-22.003 12.788 22.003 12.787 22.002-12.785z"/><path fill-rule="evenodd" clip-rule="evenodd" fill="#DEDFE0" d="M309.08 214.54l22.485 13.067a.245.245 0 0 1 0 .425l-22.488 13.07a.247.247 0 0 1-.248-.002l-22.487-13.07a.245.245 0 0 1 0-.423l22.488-13.07a.25.25 0 0 1 .25.003zm21.878 13.28l-22.003-12.788-22.003 12.787 22.003 12.785 22.003-12.787z"/><path fill-rule="evenodd" clip-rule="evenodd" fill="#DEDFE0" d="M286.59 227.608l22.486 13.07a.245.245 0 0 1 0 .424L286.59 254.17a.253.253 0 0 1-.25 0l-22.486-13.07a.247.247 0 0 1 0-.425l22.49-13.07a.248.248 0 0 1 .246 0zm21.878 13.282l-22.002-12.787-22.003 12.787 22.003 12.788 22.002-12.788z"/><path fill-rule="evenodd" clip-rule="evenodd" fill="#DEDFE0" d="M264.1 214.54l22.49 13.067a.247.247 0 0 1-.003.425L264.1 241.1a.25.25 0 0 1-.25 0l-22.485-13.07a.245.245 0 0 1-.09-.334.234.234 0 0 1 .092-.09l22.487-13.07a.243.243 0 0 1 .247.002zm21.88 13.28l-22.003-12.788-22.003 12.787 22.003 12.785 22.002-12.787z"/><path fill-rule="evenodd" clip-rule="evenodd" fill="#DEDFE0" d="M241.613 201.47l22.487 13.068a.247.247 0 0 1-.002.425L241.61 228.03a.245.245 0 0 1-.248 0l-22.485-13.07a.242.242 0 0 1 0-.422l22.488-13.07a.242.242 0 0 1 .248.002zm21.878 13.28l-22.002-12.787-22.002 12.788 22.002 12.787 22.004-12.785z"/><path fill-rule="evenodd" clip-rule="evenodd" fill="#DEDFE0" d="M219.124 188.4l22.486 13.067a.246.246 0 0 1 0 .426l-22.49 13.068a.244.244 0 0 1-.245 0l-22.487-13.07a.245.245 0 0 1 0-.423l22.49-13.068a.246.246 0 0 1 .246 0zM241 201.68l-22.003-12.787-22.002 12.787 22.002 12.787L241 201.68zM264.1 240.68l22.49 13.068a.246.246 0 0 1-.003.424l-22.487 13.07a.256.256 0 0 1-.25-.002l-22.485-13.07a.244.244 0 0 1 .002-.423l22.487-13.07a.25.25 0 0 1 .247.002zm21.88 13.28l-22.003-12.786-22.003 12.785 22.003 12.785 22.002-12.787z"/><path fill-rule="evenodd" clip-rule="evenodd" fill="#DEDFE0" d="M241.613 227.608l22.487 13.07a.245.245 0 0 1-.002.424L241.61 254.17a.25.25 0 0 1-.248 0l-22.485-13.07a.246.246 0 0 1 0-.425l22.488-13.07a.252.252 0 0 1 .248 0zm21.878 13.282l-22.002-12.787-22.002 12.787 22.002 12.788 22.004-12.788z"/><path fill-rule="evenodd" clip-rule="evenodd" fill="#DEDFE0" d="M219.124 214.54l22.486 13.067a.247.247 0 0 1 0 .425l-22.49 13.07a.24.24 0 0 1-.245-.002l-22.487-13.07a.244.244 0 0 1 0-.423l22.49-13.07a.246.246 0 0 1 .246.003zM241 227.82l-22.003-12.788-22.002 12.787 22.002 12.785L241 227.82z"/><path fill-rule="evenodd" clip-rule="evenodd" fill="#DEDFE0" d="M196.634 201.47l22.486 13.068a.246.246 0 0 1 0 .425l-22.49 13.068a.24.24 0 0 1-.245 0l-22.488-13.07a.243.243 0 0 1 0-.42l22.49-13.07a.24.24 0 0 1 .247 0zm21.877 13.28l-22-12.787-22.002 12.788 22.003 12.787 22-12.785z"/><path fill-rule="evenodd" clip-rule="evenodd" fill="#DEDFE0" d="M174.145 214.54l22.486 13.067a.245.245 0 0 1 0 .425l-22.486 13.07a.247.247 0 0 1-.248-.002l-22.487-13.07a.245.245 0 0 1 0-.423l22.49-13.07a.247.247 0 0 1 .246.003zm21.878 13.28l-22.003-12.79-22 12.787 22 12.786 22.003-12.787z"/><path fill-rule="evenodd" clip-rule="evenodd" fill="#DEDFE0" d="M196.634 227.608l22.486 13.07a.245.245 0 0 1 0 .424l-22.49 13.068a.244.244 0 0 1-.245 0l-22.488-13.07a.248.248 0 0 1-.09-.335.243.243 0 0 1 .09-.09l22.49-13.07a.25.25 0 0 1 .247 0zm21.877 13.282l-22-12.787-22.002 12.787 22.003 12.788 22-12.788z"/><path fill-rule="evenodd" clip-rule="evenodd" fill="#DEDFE0" d="M219.124 240.68l22.486 13.068a.246.246 0 0 1 0 .424l-22.49 13.07a.246.246 0 0 1-.245-.002l-22.487-13.07a.244.244 0 0 1 0-.423l22.49-13.07a.248.248 0 0 1 .246.002zM241 253.96l-22.003-12.786-22.002 12.785 22.002 12.785L241 253.96z"/><path fill-rule="evenodd" clip-rule="evenodd" fill="#DEDFE0" d="M241.613 253.75l22.487 13.068a.245.245 0 0 1-.002.424l-22.488 13.07a.252.252 0 0 1-.248-.003l-22.485-13.07a.243.243 0 0 1 0-.424l22.488-13.07a.25.25 0 0 1 .248.003zm21.878 13.28l-22.002-12.788-22.002 12.788 22.002 12.787 22.004-12.787zM151.656 227.608l22.487 13.07a.245.245 0 0 1 0 .424l-22.49 13.068a.246.246 0 0 1-.246 0L128.92 241.1a.246.246 0 0 1 .002-.425l22.487-13.07a.248.248 0 0 1 .245 0zm21.878 13.282l-22.002-12.787-22.002 12.787 22.002 12.788 22.002-12.788z"/><path fill-rule="evenodd" clip-rule="evenodd" fill="#DEDFE0" d="M174.145 240.68l22.486 13.068a.243.243 0 0 1 .09.334.223.223 0 0 1-.09.09l-22.486 13.07a.252.252 0 0 1-.248-.002l-22.487-13.07a.245.245 0 0 1 0-.423l22.49-13.07a.25.25 0 0 1 .246.002zm21.878 13.28l-22.002-12.786-22 12.785 22 12.785 22.004-12.787z"/><path fill-rule="evenodd" clip-rule="evenodd" fill="#DEDFE0" d="M196.634 253.75l22.486 13.068a.245.245 0 0 1 0 .424l-22.49 13.07a.246.246 0 0 1-.245-.003l-22.488-13.07a.245.245 0 0 1 0-.424l22.49-13.07a.247.247 0 0 1 .247.003zm21.877 13.28l-22-12.788-22.002 12.788 22.003 12.787 22-12.787z"/><path fill-rule="evenodd" clip-rule="evenodd" fill="#DEDFE0" d="M219.124 266.82l22.486 13.068a.245.245 0 0 1 0 .423l-22.49 13.07a.24.24 0 0 1-.245 0l-22.487-13.07a.244.244 0 0 1 0-.422l22.49-13.07a.243.243 0 0 1 .246.002zM241 280.1l-22.003-12.787-22 12.787 22 12.787L241 280.1z"/><path fill-rule="evenodd" clip-rule="evenodd" fill="#DEDFE0" d="M196.634 279.89l22.486 13.068a.245.245 0 0 1 0 .424l-22.49 13.07a.246.246 0 0 1-.245-.002l-22.488-13.068a.248.248 0 0 1-.09-.335.243.243 0 0 1 .09-.09l22.49-13.068a.243.243 0 0 1 .247 0zm21.877 13.28l-22-12.787-22.002 12.787 22.003 12.787 22-12.787z"/><path fill-rule="evenodd" clip-rule="evenodd" fill="#DEDFE0" d="M174.145 266.82l22.486 13.068a.242.242 0 0 1 .09.333.21.21 0 0 1-.09.09l-22.486 13.07a.245.245 0 0 1-.248 0l-22.487-13.07a.245.245 0 0 1 0-.422l22.49-13.07a.245.245 0 0 1 .246.002zm21.878 13.28l-22.002-12.787-22 12.787 22.002 12.787 22.003-12.787z"/><path fill-rule="evenodd" clip-rule="evenodd" fill="#DEDFE0" d="M151.656 253.75l22.487 13.068a.245.245 0 0 1 0 .424l-22.49 13.07a.248.248 0 0 1-.246-.003l-22.487-13.07a.243.243 0 0 1-.088-.334.223.223 0 0 1 .09-.09l22.487-13.07a.246.246 0 0 1 .245.003zm21.878 13.28l-22.002-12.788-22.002 12.788 22.002 12.787 22.002-12.787z"/><path fill-rule="evenodd" clip-rule="evenodd" fill="#DEDFE0" d="M129.167 240.68l22.486 13.068a.245.245 0 0 1 0 .424l-22.488 13.07a.252.252 0 0 1-.248-.002l-22.487-13.07a.244.244 0 0 1 0-.423l22.488-13.07a.256.256 0 0 1 .25.002zm21.878 13.28l-22.002-12.786-22.003 12.785 22.003 12.785 22.002-12.787zM174.145 292.96l22.486 13.068a.244.244 0 0 1 0 .425l-11.242 6.533c-3.127 1.818-7.077 2.823-10.924 2.98-3.853.156-7.608-.54-10.334-2.123l-12.72-7.393a.244.244 0 0 1 0-.424l22.488-13.07a.25.25 0 0 1 .247.003zm21.878 13.28l-22.002-12.787-22 12.787 12.354 7.18c2.646 1.538 6.306 2.21 10.07 2.058 3.772-.153 7.643-1.138 10.7-2.914l10.88-6.324z"/><path fill-rule="evenodd" clip-rule="evenodd" fill="#DEDFE0" d="M151.656 279.89l22.487 13.068a.245.245 0 0 1 0 .424l-22.49 13.07a.248.248 0 0 1-.246-.002l-22.487-13.068a.246.246 0 0 1 .002-.425l22.487-13.068a.24.24 0 0 1 .245 0zm21.878 13.28l-22.002-12.787-22.002 12.787 22.002 12.787 22.002-12.787z"/><path fill-rule="evenodd" clip-rule="evenodd" fill="#DEDFE0" d="M129.167 266.82l22.486 13.068a.244.244 0 0 1 0 .423l-22.488 13.07a.245.245 0 0 1-.248 0l-22.487-13.07a.244.244 0 0 1 0-.422l22.488-13.07a.25.25 0 0 1 .25.002zm21.878 13.28l-22.002-12.787L107.04 280.1l22.003 12.787 22.002-12.787z"/><path fill-rule="evenodd" clip-rule="evenodd" fill="#DEDFE0" d="M106.678 253.75l22.487 13.068a.246.246 0 0 1 0 .424l-22.49 13.07a.25.25 0 0 1-.247-.003L83.94 267.24a.243.243 0 0 1 .002-.423l22.488-13.07a.25.25 0 0 1 .248.003zm21.878 13.28l-22.003-12.788L84.55 267.03l22.003 12.787 22.003-12.787zM84.19 162.26l22.486 13.068a.245.245 0 0 1-.002.425L84.186 188.82a.247.247 0 0 1-.248 0L61.45 175.75a.242.242 0 0 1-.088-.332.23.23 0 0 1 .09-.09l22.488-13.07a.25.25 0 0 1 .25.002zm21.877 13.28l-22.003-12.788-22.002 12.788 22.002 12.787 22.003-12.787z"/><path fill-rule="evenodd" clip-rule="evenodd" fill="#DEDFE0" d="M106.678 175.33l22.487 13.068a.245.245 0 0 1 0 .423l-22.49 13.07a.243.243 0 0 1-.247 0L83.94 188.82a.243.243 0 0 1-.088-.333.23.23 0 0 1 .09-.09l22.488-13.07a.247.247 0 0 1 .248.002zm21.878 13.28l-22.003-12.788L84.55 188.61l22.003 12.787 22.003-12.788z"/><path fill-rule="evenodd" clip-rule="evenodd" fill="#DEDFE0" d="M129.167 188.4l22.486 13.067a.245.245 0 0 1 .09.334.274.274 0 0 1-.09.093l-22.488 13.068a.25.25 0 0 1-.248 0l-22.487-13.07a.245.245 0 0 1 0-.423l22.488-13.068a.253.253 0 0 1 .25 0zm21.878 13.28l-22.002-12.787-22.003 12.787 22.003 12.787 22.002-12.787z"/><path fill-rule="evenodd" clip-rule="evenodd" fill="#DEDFE0" d="M151.656 201.47l22.487 13.068a.246.246 0 0 1 0 .425l-22.49 13.068a.24.24 0 0 1-.246 0l-22.487-13.07a.242.242 0 0 1-.088-.33.223.223 0 0 1 .09-.09l22.487-13.07a.24.24 0 0 1 .245 0zm21.878 13.28l-22.002-12.787-22.002 12.788 22.002 12.787 22.002-12.785zM61.7 175.33l22.487 13.068a.244.244 0 0 1 0 .423l-22.49 13.07a.24.24 0 0 1-.246 0l-22.485-13.07a.244.244 0 0 1 0-.422l22.49-13.07a.243.243 0 0 1 .246.002zm21.877 13.28l-22-12.788-22.003 12.787 22.002 12.786 22-12.788z"/><path fill-rule="evenodd" clip-rule="evenodd" fill="#DEDFE0" d="M84.19 188.4l22.486 13.067a.245.245 0 0 1 .088.334.24.24 0 0 1-.09.093L84.186 214.96a.25.25 0 0 1-.248 0L61.45 201.89a.244.244 0 0 1 .002-.424l22.488-13.068a.253.253 0 0 1 .25 0zm21.877 13.28l-22.003-12.787-22.002 12.787 22.002 12.787 22.003-12.787z"/><path fill-rule="evenodd" clip-rule="evenodd" fill="#DEDFE0" d="M106.678 201.47l22.487 13.068a.247.247 0 0 1 .09.335.267.267 0 0 1-.09.09l-22.49 13.068a.243.243 0 0 1-.247 0L83.94 214.96a.242.242 0 0 1-.088-.332.23.23 0 0 1 .09-.09l22.488-13.07a.242.242 0 0 1 .248.002zm21.878 13.28l-22.003-12.787L84.55 214.75l22.003 12.786 22.003-12.785z"/><path fill-rule="evenodd" clip-rule="evenodd" fill="#DEDFE0" d="M129.167 214.54l22.486 13.067a.246.246 0 0 1 0 .425l-22.488 13.07a.247.247 0 0 1-.248-.002l-22.487-13.07a.244.244 0 0 1 0-.423l22.488-13.07a.253.253 0 0 1 .25.003zm21.878 13.28l-22.002-12.788-22.003 12.787 22.003 12.785 22.002-12.787z"/><path fill-rule="evenodd" clip-rule="evenodd" fill="#DEDFE0" d="M106.678 227.608l22.487 13.07a.246.246 0 0 1 0 .424l-22.49 13.068a.248.248 0 0 1-.247 0L83.94 241.1a.246.246 0 0 1 .002-.425l22.488-13.07a.252.252 0 0 1 .248 0zm21.878 13.282l-22.003-12.787L84.55 240.89l22.003 12.788 22.003-12.788z"/><path fill-rule="evenodd" clip-rule="evenodd" fill="#DEDFE0" d="M84.19 214.54l22.486 13.067a.246.246 0 0 1-.002.425L84.186 241.1a.247.247 0 0 1-.248-.002L61.45 228.03a.243.243 0 0 1 .002-.423l22.488-13.07a.253.253 0 0 1 .25.003zm21.877 13.28l-22.003-12.79-22.002 12.79 22.002 12.786 22.003-12.787z"/><path fill-rule="evenodd" clip-rule="evenodd" fill="#DEDFE0" d="M61.7 201.47l22.487 13.068a.246.246 0 0 1 0 .425l-22.49 13.068a.24.24 0 0 1-.246 0l-22.485-13.07a.243.243 0 0 1 0-.42l22.49-13.07a.24.24 0 0 1 .246 0zm21.877 13.28l-22-12.787-22.003 12.788 22.002 12.787 22-12.785z"/><path fill-rule="evenodd" clip-rule="evenodd" fill="#DEDFE0" d="M39.21 188.4l22.49 13.066a.245.245 0 0 1-.002.426l-22.49 13.068a.248.248 0 0 1-.247 0l-22.484-13.07a.245.245 0 0 1 0-.424l22.49-13.068a.246.246 0 0 1 .246 0zm21.88 13.28l-22.003-12.787-22.003 12.787 22.002 12.787L61.09 201.68zM84.19 240.68l22.486 13.068a.244.244 0 0 1-.002.424l-22.488 13.07a.252.252 0 0 1-.248-.002L61.45 254.17a.243.243 0 0 1 .002-.423l22.488-13.07a.256.256 0 0 1 .25.002zm21.877 13.28l-22.003-12.786-22.002 12.785 22.002 12.785 22.003-12.787z"/><path fill-rule="evenodd" clip-rule="evenodd" fill="#DEDFE0" d="M61.7 227.608l22.487 13.07a.245.245 0 0 1 0 .424l-22.49 13.068a.246.246 0 0 1-.246 0L38.966 241.1a.247.247 0 0 1 0-.425l22.49-13.07a.248.248 0 0 1 .246 0zm21.877 13.282l-22-12.787-22.004 12.787 22.002 12.788 22.002-12.788z"/><path fill-rule="evenodd" clip-rule="evenodd" fill="#DEDFE0" d="M39.21 214.54l22.49 13.067a.246.246 0 0 1 .09.335.255.255 0 0 1-.092.09L39.208 241.1a.245.245 0 0 1-.247-.002l-22.484-13.07a.244.244 0 0 1 0-.423l22.49-13.07a.246.246 0 0 1 .246.003zm21.88 13.28l-22.004-12.79-22 12.79 22 12.786L61.09 227.82z"/><path fill-rule="evenodd" clip-rule="evenodd" fill="#DEDFE0" d="M16.722 201.47l22.486 13.068a.246.246 0 0 1 0 .425L16.72 228.03a.243.243 0 0 1-.247 0l-12.717-7.39c-1.397-.812-2.4-1.784-3.015-2.845a5.285 5.285 0 0 1-.737-2.827c.026-.973.32-1.96.88-2.92.845-1.457 2.302-2.855 4.348-4.045l11.246-6.535a.24.24 0 0 1 .247.002zM38.6 214.75l-22.002-12.787-11.122 6.464c-1.97 1.145-3.366 2.48-4.17 3.867-.518.89-.79 1.797-.815 2.686-.022.886.2 1.754.675 2.57.574.988 1.517 1.898 2.837 2.666l12.597 7.32 22-12.786z"/><path fill-rule="evenodd" clip-rule="evenodd" fill="#DEDFE0" d="M.49 214.968c0 .135-.11.244-.243.244a.244.244 0 0 1-.244-.244L.05 123.11c0-.52-.003-1.036-.007-1.543-.054-6.808-.097-12.305 10.192-18.29l6.23-3.622 20.35-11.832a.244.244 0 1 1 .243.422L16.71 100.078l-6.23 3.623C.435 109.54.477 114.91.53 121.564c.004.507.008 1.022.008 1.546L.49 214.97zM49.486 81.02a.243.243 0 1 1-.244-.42l102.085-59.364.014-.008 16.52-9.51a.244.244 0 0 1 .244.423l-16.518 9.51-.013.008L49.486 81.02zm180.866-39.55a.244.244 0 0 1-.09-.333.248.248 0 0 1 .336-.09l100.788 58.608 8.013 4.66c3.455 2.01 5.575 4.18 6.83 6.75 1.255 2.563 1.644 5.51 1.644 9.087l-.025 94.022a.244.244 0 0 1-.49 0l.026-94.022c0-3.505-.375-6.387-1.592-8.873-1.213-2.483-3.27-4.585-6.64-6.544l-8.012-4.66-100.79-58.606z"/><path fill-rule="evenodd" clip-rule="evenodd" fill="#A7A9AC" d="M174.097 8.562a.243.243 0 0 1 .245-.42l29.38 17.183a.244.244 0 1 1-.246.42l-29.38-17.183z"/><path fill-rule="evenodd" clip-rule="evenodd" fill="#A7A9AC" d="M176.86 0c.395 0 .768.056 1.112.164.894.28 1.594.898 2.07 1.768.465.85.713 1.94.713 3.185 0 1.08-.186 2.277-.58 3.54-.73 2.34-2.038 4.458-3.564 5.994-1.542 1.556-3.315 2.517-4.953 2.517-.396 0-.768-.057-1.113-.164-.893-.278-1.593-.896-2.07-1.768-.464-.85-.712-1.94-.712-3.185 0-1.08.187-2.277.58-3.54.73-2.34 2.04-4.458 3.565-5.994C173.447.96 175.22 0 176.86 0zm.967.63c-.297-.09-.62-.14-.968-.14-1.504 0-3.155.905-4.61 2.37-1.473 1.48-2.737 3.53-3.443 5.794-.378 1.21-.558 2.36-.558 3.393 0 1.163.227 2.173.652 2.952.415.755 1.02 1.292 1.786 1.532.296.093.62.14.967.14 1.502 0 3.153-.904 4.61-2.368 1.47-1.482 2.735-3.532 3.44-5.796.38-1.212.56-2.36.56-3.394 0-1.164-.23-2.174-.652-2.95-.416-.76-1.023-1.295-1.788-1.535z"/><path fill-rule="evenodd" clip-rule="evenodd" fill="#A7A9AC" d="M175.06 6.005c.972 0 1.4 1.154.954 2.577-.443 1.423-1.59 2.578-2.56 2.578-.972 0-1.398-1.154-.954-2.578s1.59-2.577 2.56-2.577z"/><path fill-rule="evenodd" clip-rule="evenodd" fill="#00C0E5" d="M42.956 84.215a.244.244 0 1 1 .248-.42l29.38 17.184a.244.244 0 1 1-.246.42L42.956 84.216z"/><path fill-rule="evenodd" clip-rule="evenodd" fill="#00C0E5" d="M45.718 75.654c.396 0 .77.056 1.113.164.895.278 1.596.897 2.07 1.766.467.85.716 1.942.716 3.186 0 1.08-.187 2.277-.58 3.54-.73 2.34-2.04 4.46-3.564 5.994-1.543 1.554-3.316 2.515-4.954 2.515-.396 0-.768-.06-1.113-.166-.893-.28-1.593-.896-2.07-1.767-.464-.85-.712-1.94-.712-3.186 0-1.077.186-2.275.58-3.537.73-2.34 2.04-4.46 3.565-5.995 1.543-1.555 3.317-2.516 4.953-2.516zm.968.63a3.32 3.32 0 0 0-.968-.14c-1.502 0-3.153.905-4.608 2.37-1.473 1.48-2.737 3.53-3.444 5.794-.378 1.21-.557 2.36-.557 3.393h-.003c0 1.165.227 2.176.653 2.954.415.757 1.02 1.294 1.787 1.533.297.093.62.14.968.14 1.503 0 3.154-.904 4.608-2.368 1.473-1.483 2.738-3.533 3.443-5.797.378-1.21.558-2.36.558-3.393 0-1.165-.228-2.175-.652-2.952-.414-.757-1.02-1.294-1.786-1.533z"/><path fill-rule="evenodd" clip-rule="evenodd" fill="#00C0E5" d="M43.92 81.658c.97 0 1.398 1.154.954 2.577-.444 1.424-1.59 2.578-2.562 2.578s-1.397-1.154-.953-2.578c.443-1.423 1.59-2.577 2.56-2.577z"/><path fill-rule="evenodd" clip-rule="evenodd" fill="#FFF" d="M221.235 11.57c-4.48-1.342-7.52-.637-10.992 1.358L84.947 84.972c-18.724 10.766-20.75 24.11-20.75 36.695v89.625c0 3.74.23 7.59 3.87 10.535-.245 7.85 1.775 10.362 7.16 13.455l82.366 47.328c11.088 6.37 27.23 3.927 38.28-2.507l123.273-71.776c3.27-1.903 7.812-5.752 7.635-10.43v-8.775c.01-.188.01-.378 0-.566v-.058c-.14-3.088-2.34-6.533-8.317-10.02l-86.887-50.667V25.937c0-4.843-1.27-8.576-3.386-10.875-1.806-1.96-4.526-2.61-6.955-3.49zM68.067 221.827l163.508-94.015-163.508 94.015z"/><path fill-rule="evenodd" clip-rule="evenodd" fill="#A7A9AC" d="M220.584 13.23c-1.983-.593-3.623-.738-5.13-.516-1.522.225-2.962.824-4.512 1.714L85.474 86.472c-9.016 5.177-13.993 10.932-16.706 16.883l.005.002c-2.718 5.964-3.2 12.22-3.2 18.31v89.626c0 1.747.05 3.51.5 5.09.335 1.17.905 2.292 1.876 3.312l161.75-92.878V25.935c0-2.204-.277-4.14-.788-5.774-.506-1.62-1.236-2.94-2.14-3.925-1.204-1.303-3.125-1.955-4.992-2.588-.37-.126-.74-.25-1.198-.417zm-5.63-3.95c2.007-.293 4.132-.12 6.63.626v.002l.095.032c.32.116.767.268 1.22.42 2.277.774 4.624 1.57 6.43 3.525 1.25 1.36 2.24 3.123 2.9 5.243.615 1.973.95 4.256.95 6.805V126.82l86.138 50.16c2.998 1.746 5.13 3.51 6.576 5.253 1.698 2.044 2.477 4.068 2.605 6.008.012.087.02.174.02.26v.06h-.004c0 .08.003.173.003.282 0 .07 0 .134-.003.192.002.03.003.06.003.092v8.775h-.005c.075 2.408-.845 4.59-2.222 6.47-1.745 2.38-4.25 4.273-6.29 5.46L196.56 281.605c-6.048 3.518-13.566 5.886-21.012 6.372-6.755.44-13.48-.666-19.055-3.865l-82.48-47.325c-2.954-1.694-5.002-3.263-6.337-5.582-1.233-2.143-1.763-4.784-1.72-8.59-1.722-1.593-2.687-3.387-3.226-5.276-.574-2.013-.64-4.046-.64-6.042V121.67c0-6.497.532-13.205 3.515-19.75l.006.002.003-.002c2.988-6.558 8.4-12.858 18.133-18.446l125.47-72.043c1.927-1.105 3.75-1.856 5.738-2.15zM69.42 222.84l162.01-93.026 86.147 50.165c2.633 1.53 4.46 3.027 5.652 4.464 1.185 1.427 1.723 2.772 1.806 4.018v.037c0 .07.005.136.012.202l.002.138v.085a1.32 1.32 0 0 0-.012.2v8.774h.005v.06c.06 1.555-.584 3.04-1.552 4.36-1.422 1.94-3.514 3.51-5.23 4.51l-123.44 71.776c-5.61 3.262-12.583 5.457-19.487 5.91-6.132.4-12.18-.574-17.113-3.404l-82.48-47.328c-2.44-1.398-4.097-2.633-5.06-4.306-.888-1.54-1.278-3.59-1.26-6.64z"/><path fill-rule="evenodd" clip-rule="evenodd" fill="#FFF" d="M67.782 221.828l159.638-96.595V23.353c0-3.284-.584-6.057-1.62-8.22l-1.657-2.408-3.19-1.157c-4.48-1.34-7.522-.636-10.994 1.36L84.66 84.97c-18.724 10.766-20.75 24.11-20.75 36.695v89.625c0 3.742.23 7.59 3.87 10.536z"/><path fill-rule="evenodd" clip-rule="evenodd" fill="#A7A9AC" d="M67.804 221.528l159.37-96.433V23.355c0-1.603-.14-3.08-.404-4.423-.27-1.373-.67-2.602-1.183-3.674l-1.603-2.33-3.104-1.125c-2.204-.66-4.05-.817-5.77-.564-1.72.252-3.32.916-5.03 1.9L84.784 85.183c-9.312 5.354-14.468 11.343-17.296 17.555-2.827 6.212-3.33 12.663-3.33 18.927v89.625c0 1.854.055 3.73.56 5.5.487 1.708 1.395 3.325 3.086 4.735zm159.74-96.085l-159.627 96.59a.245.245 0 0 1-.29-.015c-1.864-1.508-2.856-3.25-3.382-5.092-.52-1.828-.58-3.745-.58-5.634v-89.625c0-6.32.51-12.835 3.376-19.13h.003c2.866-6.3 8.084-12.365 17.497-17.777l125.295-72.043c1.762-1.013 3.416-1.7 5.204-1.962 1.79-.263 3.7-.103 5.977.58l.014.004 3.19 1.155c.05.017.09.047.12.09l1.656 2.41c.007.01.015.02.02.033.537 1.117.952 2.392 1.23 3.81.272 1.373.415 2.882.415 4.515v101.88a.238.238 0 0 1-.116.208z"/><path fill-rule="evenodd" clip-rule="evenodd" fill="#E5E6E5" d="M84.03 221.828H67.78c-.246 7.85 1.775 10.362 7.16 13.455l82.366 47.328c11.088 6.37 27.23 3.93 38.28-2.505l123.272-71.776c3.27-1.904 7.814-5.753 7.638-10.43v-9.4h-7.207a38.67 38.67 0 0 0-1.113-.68l-86.887-50.664L84.03 221.83z"/><path fill-rule="evenodd" clip-rule="evenodd" fill="#A7A9AC" d="M84.03 222.073H68.02c-.097 3.743.343 6.23 1.442 8.145 1.12 1.95 2.944 3.328 5.6 4.854L157.43 282.4c5.2 2.987 11.53 4.02 17.923 3.602 7.125-.467 14.322-2.736 20.113-6.108l123.272-71.775c1.854-1.08 4.117-2.79 5.68-4.92 1.145-1.566 1.907-3.36 1.834-5.293v-9.16h-6.962a.243.243 0 0 1-.146-.05c-.168-.105-.342-.214-.525-.325-.17-.104-.36-.217-.566-.338l-.014-.008-86.75-50.587-147.14 84.6a.252.252 0 0 1-.12.032zm-16.248-.49h16.185l147.187-84.63a.247.247 0 0 1 .258-.01l86.877 50.66.01.008c.18.106.37.22.57.344.164.098.325.2.49.302h7.137c.135 0 .245.11.245.245v9.4c.075 2.05-.728 3.944-1.932 5.59-1.604 2.19-3.927 3.946-5.827 5.053l-123.27 71.774c-5.855 3.41-13.13 5.702-20.33 6.173-6.48.424-12.905-.627-18.197-3.667L74.82 235.496c-2.728-1.567-4.607-2.993-5.78-5.034-1.17-2.035-1.625-4.66-1.503-8.62v-.013c0-.14.11-.25.245-.25z"/><path fill-rule="evenodd" clip-rule="evenodd" fill="#FFF" d="M67.782 221.828l163.508-94.015V25.935c0-11.257-6.863-16.52-15.248-11.7L88.532 87.553c-18.725 10.766-20.75 24.11-20.75 36.695v97.58z"/><path fill-rule="evenodd" clip-rule="evenodd" fill="#A7A9AC" d="M68.637 221.405l162.408-93.733V25.935c0-3.668-.732-6.687-2.005-8.912-.802-1.4-1.816-2.483-3.002-3.218-1.178-.73-2.528-1.114-4-1.114-1.786 0-3.755.566-5.818 1.758L89.186 87.764c-9.275 5.354-14.413 11.343-17.23 17.555l-.008.016c-2.81 6.207-3.31 12.652-3.31 18.91v97.158zm162.773-93.38L68.534 222.027a.243.243 0 0 1-.385-.2v-97.58c0-6.314.505-12.82 3.353-19.112.002-.007.004-.014.008-.02 2.856-6.298 8.056-12.364 17.434-17.776L215.98 14.022c2.143-1.237 4.19-1.823 6.06-1.823 1.56 0 2.997.41 4.254 1.19 1.254.775 2.325 1.918 3.17 3.39 1.315 2.297 2.07 5.4 2.07 9.153V127.81c0 .087-.045.17-.124.214z"/><path fill-rule="evenodd" clip-rule="evenodd" fill="#FFF" d="M231.29 127.813L67.782 221.828l89.525 51.44c11.088 6.37 27.23 3.93 38.28-2.507l123.272-71.774c5.44-3.166 14.4-11.71-.685-20.506l-86.886-50.667z"/><path fill-rule="evenodd" clip-rule="evenodd" fill="#A7A9AC" d="M231.288 128.095L68.27 221.828l89.16 51.23c5.2 2.987 11.53 4.02 17.922 3.6 7.125-.464 14.322-2.735 20.113-6.106l123.272-71.776c2.14-1.246 4.83-3.33 6.345-5.932.668-1.143 1.106-2.387 1.17-3.698.062-1.312-.25-2.697-1.087-4.133-1.185-2.034-3.416-4.166-7.112-6.32l-86.765-50.598zM67.66 221.615l163.493-94.006a.247.247 0 0 1 .258-.01l86.89 50.666c3.776 2.2 6.065 4.396 7.29 6.5.887 1.52 1.22 3 1.15 4.4-.065 1.397-.53 2.713-1.23 3.92-1.57 2.688-4.33 4.833-6.526 6.11l-123.27 71.775c-5.855 3.408-13.13 5.703-20.33 6.175-6.48.425-12.905-.627-18.197-3.667L67.66 222.04a.245.245 0 0 1 0-.425z"/><path fill-rule="evenodd" clip-rule="evenodd" fill="#F3F4F4" d="M206.5 151.98l-9.488 5.553-9.49 5.554v-16.265l-9.49-5.553-9.49-5.556-9.49 5.554v20.558l-9.49-5.555-9.49 5.556V140.22l-9.49-5.554-9.49 5.554v14.58l-9.48 5.55-.01-.006v19.475l-9.49 5.55v17.054l-9.49 5.554-3.79 2.217c-3.818 2.295-2.71 5.46.075 6.714l3.716 2.174 9.49 5.555 9.49 5.552c1.495.876 3.028 1.688 4.486 2.625 3.345 2.152 7.46 1.605 11.144-.665l3.348-1.96 9.49-5.553 9.49-5.556 9.49-5.552 9.49-5.554 3.744-2.192 13.2-7.725 2.036-1.19 9.49-5.554 9.488-5.553 9.49-5.555 9.49-5.552 9.49-5.554 9.49-5.554 9.49-5.554V130.41l-9.49-5.552-9.49 5.553V80.585l-9.49-5.554-9.49 5.553v49.385l-9.49 5.554v16.457zm-47.447 50.444l9.49-5.554-9.49-5.554 9.49 5.554-9.49 5.554zm75.917-72.013v16.757-16.755zm-94.897 31.418v17.92-17.92zm9.49 12.365l-9.49-12.365 9.49 5.554v6.812z"/><path fill-rule="evenodd" clip-rule="evenodd" fill="#FFF" d="M280.435 9.27h-.002c-3.21-2.053-5.868-2.898-9.214-.976L196.554 51.23c-5.172 2.975-9.404 11.042-9.404 17.926v39.04c0 4.903 1.123 6.473 6.555 9.148h.003c1.61.797 3.654.657 5.874-.618l74.662-42.936c5.175-2.975 9.406-11.042 9.406-17.926v-39.04c0-3.737-1.248-6.387-3.217-7.553z"/><path fill-rule="evenodd" clip-rule="evenodd" fill="#00C0E5" d="M279.398 10.66c-1.37-.866-2.598-1.47-3.78-1.652-1.103-.17-2.242.042-3.536.786L197.42 52.73c-2.296 1.32-4.412 3.825-5.97 6.798-1.58 3.01-2.562 6.46-2.562 9.628v39.04c0 2.08.207 3.41.914 4.398.758 1.057 2.18 1.963 4.57 3.146.06.025.117.053.17.083.514.237 1.105.33 1.755.26.74-.078 1.555-.357 2.423-.856l74.664-42.936c2.295-1.32 4.41-3.824 5.972-6.797 1.578-3.01 2.56-6.46 2.56-9.628v-39.04c0-1.598-.25-2.94-.697-3.987-.41-.965-.983-1.668-1.667-2.074a1.754 1.754 0 0 1-.156-.103zm-3.263-5.087c1.728.265 3.373 1.06 5.14 2.18l.042.024c1.322.784 2.384 2.04 3.093 3.702.628 1.476.98 3.28.98 5.344v39.04c0 3.716-1.137 7.74-2.968 11.23-1.85 3.524-4.436 6.54-7.314 8.195l-74.662 42.935c-1.31.75-2.586 1.178-3.794 1.304-1.322.14-2.554-.075-3.655-.607-.02-.01-.04-.018-.056-.027-2.98-1.467-4.805-2.672-5.957-4.282-1.213-1.692-1.567-3.6-1.567-6.42v-39.04c0-3.718 1.137-7.74 2.967-11.23 1.85-3.525 4.437-6.542 7.314-8.195L270.36 6.793c2.048-1.18 3.913-1.506 5.775-1.22zM101.993 107.735c.396 0 .768.057 1.113.165.893.278 1.593.897 2.07 1.767.464.85.712 1.94.712 3.185 0 1.078-.186 2.276-.58 3.538-.73 2.34-2.038 4.46-3.564 5.995-1.543 1.553-3.317 2.515-4.954 2.515-.396 0-.768-.057-1.113-.164-.893-.278-1.594-.897-2.07-1.768-.465-.85-.713-1.94-.713-3.185 0-1.078.186-2.276.58-3.538.73-2.34 2.04-4.46 3.564-5.995 1.545-1.554 3.318-2.515 4.955-2.515zm.968.632a3.22 3.22 0 0 0-.966-.14c-1.502 0-3.153.904-4.608 2.368-1.473 1.482-2.737 3.53-3.444 5.795-.376 1.212-.556 2.36-.556 3.393 0 1.164.227 2.174.652 2.95.415.76 1.02 1.295 1.786 1.535.296.092.62.14.968.14 1.502 0 3.153-.905 4.608-2.368 1.473-1.482 2.737-3.53 3.444-5.795.378-1.21.557-2.36.557-3.393 0-1.163-.227-2.173-.653-2.952-.414-.758-1.018-1.294-1.785-1.533z"/><path fill-rule="evenodd" clip-rule="evenodd" fill="#00C0E5" d="M100.196 113.74c.97 0 1.397 1.153.953 2.577-.446 1.423-1.59 2.577-2.564 2.577-.97 0-1.397-1.154-.953-2.577.444-1.423 1.592-2.577 2.562-2.577z"/><path fill-rule="evenodd" clip-rule="evenodd" fill="#A7A9AC" d="M115.627 118.35c.29 0 .563.042.817.12.656.206 1.17.66 1.52 1.298.338.62.52 1.41.52 2.31 0 .778-.135 1.643-.42 2.552-.524 1.684-1.466 3.21-2.565 4.314-1.12 1.124-2.404 1.82-3.594 1.82-.29 0-.562-.042-.816-.12-.655-.207-1.17-.66-1.52-1.298-.337-.62-.518-1.41-.518-2.312 0-.777.134-1.642.417-2.55.523-1.685 1.466-3.21 2.564-4.315 1.116-1.126 2.403-1.82 3.592-1.82zm.67.588a2.232 2.232 0 0 0-.67-.097c-1.055 0-2.218.64-3.246 1.675-1.043 1.052-1.94 2.508-2.444 4.116-.267.86-.395 1.675-.395 2.406 0 .82.16 1.532.46 2.077.287.526.706.898 1.236 1.063.205.064.43.098.67.098 1.057 0 2.22-.64 3.247-1.672 1.045-1.05 1.943-2.507 2.445-4.115.268-.86.395-1.674.395-2.406 0-.82-.16-1.532-.457-2.077-.287-.526-.706-.898-1.237-1.064zM123.863 127.94c.97 0 1.397 1.154.953 2.577-.444 1.424-1.59 2.577-2.562 2.577-.97 0-1.397-1.153-.953-2.577.447-1.423 1.594-2.577 2.564-2.577z"/><path fill-rule="evenodd" clip-rule="evenodd" fill="#00C0E5" d="M84.77 104.8c.97 0 1.395 1.153.952 2.577-.444 1.423-1.59 2.577-2.56 2.577s-1.4-1.154-.954-2.577c.443-1.424 1.59-2.578 2.56-2.578z"/><path fill-rule="evenodd" clip-rule="evenodd" fill="#00C0E5" d="M83.98 107.707a.242.242 0 0 1-.088-.333.243.243 0 0 1 .334-.087l14.853 8.685a.244.244 0 0 1-.25.42l-14.852-8.685z"/><path fill-rule="evenodd" clip-rule="evenodd" fill="#A7A9AC" d="M215.91 29.146c.97 0 1.396 1.154.952 2.578-.444 1.423-1.59 2.578-2.562 2.578-.97 0-1.396-1.155-.95-2.578.442-1.425 1.588-2.578 2.56-2.578z"/><path fill-rule="evenodd" clip-rule="evenodd" fill="#A7A9AC" d="M215.12 32.054a.244.244 0 1 1 .246-.42l14.853 8.685a.243.243 0 0 1 .085.332.245.245 0 0 1-.335.087l-14.85-8.687z"/><path fill-rule="evenodd" clip-rule="evenodd" fill="#FFF" d="M196.556 115.302l74.663-42.936c5.172-2.975 9.405-11.042 9.405-17.926V15.4c0-2.433.72-4.73-.193-6.13-3.21-2.054-5.868-2.9-9.214-.977L196.555 51.23c-5.172 2.975-9.404 11.042-9.404 17.926v39.04c0 4.903 1.123 6.473 6.555 9.148 1.254.107 1.362-1.186 2.85-2.042z"/><path fill-rule="evenodd" clip-rule="evenodd" fill="#00C0E5" d="M196.435 115.09L271.1 72.156c2.544-1.464 4.864-4.188 6.548-7.398 1.687-3.215 2.732-6.913 2.732-10.316V15.4c0-.785.077-1.564.148-2.304.143-1.468.27-2.772-.272-3.652-1.56-.993-2.984-1.693-4.415-1.912-1.43-.22-2.88.042-4.497.973L196.678 51.44c-2.545 1.465-4.864 4.19-6.548 7.4-1.688 3.214-2.735 6.912-2.735 10.315v39.04c0 2.4.27 3.977 1.196 5.267.93 1.295 2.527 2.332 5.18 3.64.566.03.87-.32 1.254-.766.34-.396.74-.858 1.412-1.245zm74.907-42.512l-74.664 42.936c-.6.345-.968.774-1.286 1.143-.487.564-.864 1.003-1.708.932h.002a.236.236 0 0 1-.09-.027c-2.75-1.355-4.417-2.438-5.403-3.815-.997-1.39-1.287-3.05-1.287-5.553v-39.04c0-3.48 1.07-7.26 2.79-10.542 1.727-3.288 4.11-6.084 6.74-7.596L271.1 8.08c1.723-.992 3.275-1.27 4.813-1.034 1.52.232 3.012.967 4.642 2.008a.25.25 0 0 1 .082.08c.665 1.02.53 2.424.377 4.006-.07.72-.143 1.48-.143 2.26v39.04c0 3.48-1.07 7.26-2.792 10.542-1.726 3.288-4.11 6.085-6.738 7.596z"/><path fill-rule="evenodd" clip-rule="evenodd" fill="#FFF" d="M199.583 116.726l74.662-42.936c5.175-2.975 9.406-11.042 9.406-17.926v-39.04c0-6.884-4.23-10.082-9.404-7.106l-74.662 42.936c-5.175 2.975-9.408 11.042-9.408 17.926v39.04c0 6.883 4.234 10.08 9.408 7.106z"/><path fill-rule="evenodd" clip-rule="evenodd" fill="#00C0E5" d="M199.738 116.514l74.42-42.936c2.536-1.464 4.846-4.188 6.526-7.398 1.68-3.215 2.725-6.913 2.725-10.316v-39.04c0-2.21-.443-4.026-1.21-5.365-.483-.846-1.1-1.5-1.814-1.94a4.523 4.523 0 0 0-2.416-.67c-1.092 0-2.3.346-3.57 1.08l-74.42 42.934c-2.537 1.464-4.848 4.188-6.527 7.398-1.682 3.215-2.724 6.913-2.724 10.316v39.04c0 2.21.436 4.026 1.205 5.365.482.843 1.098 1.497 1.812 1.94.713.438 1.527.67 2.417.67 1.094 0 2.303-.347 3.573-1.08zM274.398 74l-74.418 42.937c-1.35.778-2.64 1.147-3.814 1.147a5.022 5.022 0 0 1-2.673-.743c-.782-.48-1.454-1.194-1.98-2.11-.81-1.414-1.272-3.314-1.272-5.61V70.58c0-3.48 1.066-7.258 2.784-10.54 1.718-3.29 4.097-6.085 6.716-7.596l74.418-42.936c1.35-.78 2.64-1.147 3.813-1.147.983 0 1.886.256 2.675.743.783.483 1.454 1.197 1.98 2.113.81 1.414 1.273 3.314 1.273 5.61v39.04c0 3.48-1.065 7.258-2.784 10.54-1.718 3.29-4.096 6.086-6.714 7.596z"/><path fill-rule="evenodd" clip-rule="evenodd" fill="#00C0E5" d="M201.66 59.44c.164 0 .318.023.463.07.374.116.666.374.864.735.188.342.288.776.288 1.268 0 .42-.072.885-.225 1.374a5.79 5.79 0 0 1-1.377 2.312c-.607.61-1.312.987-1.968.987-.163 0-.317-.024-.463-.068-.375-.118-.668-.376-.864-.737-.188-.342-.288-.777-.288-1.27 0-.417.073-.883.227-1.372a5.77 5.77 0 0 1 1.373-2.31c.607-.613 1.31-.99 1.97-.99zm.317.537a1.072 1.072 0 0 0-.318-.045c-.523 0-1.105.322-1.62.843a5.29 5.29 0 0 0-1.26 2.113c-.135.44-.2.855-.2 1.228 0 .412.078.767.226 1.035.137.25.333.428.582.505.095.03.2.046.316.046.52 0 1.105-.32 1.622-.842a5.294 5.294 0 0 0 1.254-2.113c.14-.44.203-.854.203-1.228 0-.412-.08-.766-.227-1.034-.136-.252-.333-.428-.58-.505z"/><path fill-rule="evenodd" clip-rule="evenodd" fill="#A7A9AC" d="M222.54 151.396l-9.354 5.475-9.49 5.556a1.734 1.734 0 0 1-2.37-.617 1.74 1.74 0 0 1-.236-.876h-.006V145.66l-8.63-5.05-8.612-5.043-7.753 4.538v19.57a1.736 1.736 0 0 1-2.745 1.416l-8.483-4.964-6.063 3.55 6.803 3.98c.59.277.997.877.997 1.57v6.813a1.737 1.737 0 0 1-3.474 0v-5.825l-6.015-3.52v14.896a1.736 1.736 0 0 1-3.473 0v-38.537l-7.753-4.536-7.76 4.54v13.59c0 .635-.342 1.19-.853 1.49l-.01.01h-.003l-8.613 5.04v18.477a1.74 1.74 0 0 1-.997 1.572l-8.493 4.97v26.707c0 .693-.408 1.293-.997 1.57l-9.355 5.476-3.778 2.21c-.814.49-1.292.986-1.5 1.45-.088.197-.12.388-.106.568.015.19.082.38.19.56.253.423.717.8 1.315 1.068.094.042.18.09.262.145l3.62 2.12 9.49 5.553.003.002 9.486 5.552c.384.226.934.536 1.483.848 1.037.588 2.074 1.175 3.064 1.812 1.29.83 2.73 1.156 4.215 1.067 1.68-.1 3.424-.722 5.087-1.746.014-.01.028-.02.042-.025l3.338-1.955 9.49-5.554 9.49-5.552 9.49-5.554 9.49-5.554 3.746-2.192 13.197-7.724 2.037-1.19 9.49-5.554 9.49-5.554 9.488-5.553 9.358-5.477c.084-.06.173-.11.268-.156l9.355-5.474 9.49-5.554 8.627-5.05v-25.61l-7.75-4.535-6.063 3.548 6.805 3.98c.59.28.994.88.994 1.574v16.48a1.737 1.737 0 0 1-3.473 0v-15.49l-6.016-3.52v13.733a1.74 1.74 0 0 1-3.476 0V79.416l-7.75-4.538-7.76 4.54v48.392c0 .636-.345 1.192-.855 1.493l-.015.007-8.616 5.043v15.47a1.75 1.75 0 0 1-1 1.57zm-11.106 2.488l8.628-5.048v-15.47h.007c0-.593.305-1.17.853-1.493l8.635-5.053V78.464a1.73 1.73 0 0 1 .853-1.53l9.466-5.538a1.73 1.73 0 0 1 1.777-.015l9.356 5.477c.587.277.995.877.995 1.57v57.45l6.85-4.01a1.733 1.733 0 0 1 1.777-.015l9.355 5.476c.59.278.997.877.997 1.572v27.586c0 .444-.17.89-.51 1.228l-.004-.003c-.102.1-.217.19-.348.27l-9.49 5.553-9.49 5.553-9.48 5.547-.01.007-9.488 5.552-9.49 5.555-9.49 5.553-9.49 5.554-2.034 1.19-13.2 7.725-3.745 2.19-9.49 5.553-9.49 5.553-9.49 5.554-9.488 5.555-3.334 1.95c-2.14 1.316-4.428 2.116-6.68 2.25-2.2.132-4.35-.36-6.292-1.61-.953-.612-1.927-1.165-2.9-1.716-.457-.26-.91-.52-1.523-.876l-9.355-5.475a1.82 1.82 0 0 1-.265-.157l-9.36-5.477-3.607-2.11c-1.21-.558-2.197-1.41-2.81-2.428a4.77 4.77 0 0 1-.678-2.068 4.56 4.56 0 0 1 .405-2.263c.483-1.075 1.41-2.113 2.885-3v.002l.014-.01 3.792-2.22 8.628-5.05v-26.7h.006c0-.595.307-1.172.855-1.493l8.628-5.05V158.19h.003a1.736 1.736 0 0 1 1.037-1.588l8.457-4.948v-13.55a1.727 1.727 0 0 1 .854-1.53l9.465-5.54a1.73 1.73 0 0 1 1.776-.014l9.355 5.475c.59.278.998.877.998 1.572v18.586l6.852-4.01a1.725 1.725 0 0 1 1.775-.015l6.877 4.024v-17.538h.006c0-.593.306-1.17.855-1.492l9.464-5.54a1.73 1.73 0 0 1 1.776-.014l9.49 5.554 9.354 5.475c.59.277.998.876.998 1.57v13.242l6.88-4.027zm-36.208 58.52c-.825.483-1.885.207-2.37-.617s-.206-1.886.618-2.368l6.94-4.063-6.94-4.06 1.75-2.987 9.468 5.54c.107.063.21.136.304.22l.002.002.025.023.008.007.02.02.014.012.014.014.018.02.008.006.024.026c.11.122.2.256.27.398l.002.004.01.028.01.014.005.014c.096.217.144.443.148.67v.06a1.77 1.77 0 0 1-.148.67l-.006.015-.01.013-.01.03-.005.003a1.77 1.77 0 0 1-.268.395l-.025.026-.008.01-.018.018-.014.013-.012.014-.02.018-.007.008-.025.024h-.002a1.754 1.754 0 0 1-.304.22l-9.466 5.54z"/><path fill-rule="evenodd" clip-rule="evenodd" fill="#FFF" d="M221.8 149.824l-9.49 5.554-9.49 5.554v-16.265l-9.49-5.554-9.49-5.553-9.49 5.553v20.56l-9.488-5.555-9.49 5.555v-21.607l-9.49-5.554-9.49 5.554v14.58l-9.48 5.55-.01-.006v19.474l-9.49 5.554v27.695l-9.488 5.553-3.792 2.22c-3.818 2.295-2.71 5.46.075 6.712l3.716 2.175 9.49 5.554 9.49 5.554c1.495.877 3.027 1.69 4.485 2.626 3.347 2.152 7.46 1.605 11.145-.665l3.35-1.96 9.49-5.552 9.49-5.554 9.488-5.553 9.49-5.553 3.746-2.19 13.2-7.726 2.035-1.19 9.49-5.552 9.49-5.555 9.49-5.554 9.49-5.553 9.488-5.555 9.49-5.552 9.49-5.554V138.9l-9.49-5.554-9.49 5.554V78.43l-9.488-5.554-9.49 5.553v49.385l-9.49 5.553v16.458zm-47.45 61.088l9.49-5.554-9.49-5.553 9.49 5.553-9.49 5.554zm75.918-72.014v16.755-16.755zm-94.897 20.775v17.918-17.916zm9.49 12.365l-9.49-12.365 9.49 5.553v6.812z"/><path fill-rule="evenodd" clip-rule="evenodd" fill="#A7A9AC" d="M221.904 150.045l-9.472 5.543-9.49 5.553a.242.242 0 0 1-.367-.207v-16.125l-9.37-5.482-9.365-5.48-9.243 5.41v20.42a.244.244 0 0 1-.386.197l-9.347-5.47-9.006 5.27 9.11 5.332c.083.04.14.124.14.222v6.812a.245.245 0 0 1-.49 0v-6.674l-9-5.267v17.49c0 .137-.11.246-.244.246s-.246-.11-.246-.245v-39.386l-9.244-5.41-9.245 5.41v14.442c0 .09-.048.168-.12.21h-.002l-9.366 5.483v19.32c0 .1-.06.184-.142.223l-9.35 5.47v27.558a.246.246 0 0 1-.14.223l-9.47 5.542-3.792 2.218c-1.098.66-1.77 1.388-2.095 2.116-.195.435-.267.87-.233 1.293s.174.83.4 1.208c.412.686 1.11 1.27 1.98 1.663.015.005.027.013.04.02l3.7 2.168 9.49 5.554.005.003 9.487 5.552c.48.28.99.57 1.5.856 1.01.573 2.02 1.146 2.994 1.77 1.57 1.01 3.317 1.41 5.106 1.302 1.93-.115 3.91-.816 5.78-1.97l.004-.003 3.35-1.958 9.49-5.556 9.49-5.552 9.49-5.553 9.487-5.554 3.746-2.19 13.2-7.725 2.034-1.19 9.49-5.553 9.49-5.554 9.487-5.554 9.47-5.542a.144.144 0 0 1 .04-.022l9.47-5.542 9.49-5.554 9.368-5.482v-27.307l-9.243-5.41-9.245 5.41v16.616a.246.246 0 0 1-.49 0V78.568l-9.242-5.41-9.247 5.41v49.246c0 .09-.048.168-.12.21h-.002l-9.365 5.482v16.318a.257.257 0 0 1-.146.222zm-9.717 5.122l9.366-5.482v-16.318c0-.084.045-.165.123-.21l9.37-5.484V78.428a.24.24 0 0 1 .118-.21l9.487-5.552a.24.24 0 0 1 .253 0l9.47 5.54a.25.25 0 0 1 .142.223v60.043l9.116-5.336a.24.24 0 0 1 .25-.002l9.473 5.542c.084.04.14.124.14.222v27.585a.235.235 0 0 1-.12.21l-9.49 5.554-9.488 5.553-9.48 5.55-.01.004-9.49 5.553-9.49 5.555-9.49 5.554-9.49 5.552-2.034 1.19-13.2 7.724-3.743 2.192-9.49 5.553-9.49 5.554-9.49 5.554-9.49 5.553-3.346 1.96c-1.936 1.194-3.994 1.918-6.002 2.04-1.89.112-3.736-.31-5.4-1.378-.968-.623-1.97-1.19-2.97-1.757-.496-.28-.992-.562-1.505-.863l-9.47-5.542c-.014-.005-.026-.013-.04-.02l-9.47-5.543-3.7-2.166c-.96-.43-1.73-1.083-2.193-1.852a3.247 3.247 0 0 1-.47-1.42c-.04-.5.045-1.02.277-1.533.366-.813 1.1-1.618 2.29-2.334h.003l3.792-2.22 9.368-5.482v-27.555c0-.084.044-.165.122-.21l9.367-5.482v-19.334c0-.043.01-.085.033-.124a.234.234 0 0 1 .147-.11l9.31-5.45v-14.44c0-.082.043-.164.12-.21l9.486-5.55a.24.24 0 0 1 .25-.003l9.472 5.54c.083.04.14.125.14.223v21.18l9.118-5.336a.248.248 0 0 1 .25-.002l9.12 5.34V139.12h.002c0-.082.043-.164.12-.21l9.486-5.55a.24.24 0 0 1 .25-.003l9.49 5.554 9.47 5.543c.085.04.143.123.143.222v15.838l9.12-5.343zm-37.714 55.956a.243.243 0 0 1-.333-.088.244.244 0 0 1 .087-.334l9.13-5.34-9.13-5.344.246-.42 9.49 5.55.01.007.002.002.01.007.008.008h.002l.014.013.002.005.005.005c.005.005.01.01.012.015l.007.01.008.01.007.01.002.005v.002l.004.005v.003c.015.03.023.062.024.095l.002.016-.002.015c0 .033-.01.064-.025.096l-.004.007-.003.005-.007.01v.002l-.007.01h-.002l-.006.008-.002.002-.01.014h-.002l-.005.005-.005.005-.015.012h-.002l-.01.008-.008.007h-.002l-.01.008-9.49 5.548z"/><path fill-rule="evenodd" clip-rule="evenodd" fill="#00C0E5" d="M208.628 55.396c.165 0 .32.024.463.07.377.116.67.374.868.735.188.344.286.778.286 1.27 0 .42-.07.885-.225 1.374a5.784 5.784 0 0 1-1.375 2.312c-.608.61-1.312.99-1.968.99-.165 0-.32-.024-.464-.07-.374-.116-.666-.374-.866-.735-.186-.34-.286-.775-.286-1.267 0-.42.073-.885.226-1.374a5.774 5.774 0 0 1 1.375-2.313c.61-.612 1.314-.99 1.97-.99zm.318.536a1.06 1.06 0 0 0-.317-.045c-.523 0-1.106.323-1.62.844a5.287 5.287 0 0 0-1.258 2.114c-.135.44-.2.855-.2 1.23 0 .41.077.765.226 1.033.134.25.33.425.58.503.096.03.202.045.318.045.52 0 1.103-.323 1.62-.844a5.305 5.305 0 0 0 1.256-2.11c.137-.44.2-.856.2-1.23 0-.41-.077-.765-.224-1.034a1.007 1.007 0 0 0-.584-.503zM215.6 51.35c.163 0 .317.025.462.07.374.116.668.375.866.736.188.343.287.776.287 1.27 0 .418-.073.883-.226 1.373a5.793 5.793 0 0 1-1.377 2.31c-.607.61-1.312.99-1.97.99a1.48 1.48 0 0 1-.46-.07c-.376-.117-.67-.375-.867-.736-.187-.342-.287-.776-.287-1.268 0-.42.073-.885.224-1.374a5.8 5.8 0 0 1 1.376-2.312c.61-.61 1.313-.99 1.97-.99zm.317.538a1.06 1.06 0 0 0-.317-.045c-.522 0-1.104.322-1.622.843a5.295 5.295 0 0 0-1.255 2.113 4.138 4.138 0 0 0-.202 1.226c0 .41.08.766.23 1.035a1 1 0 0 0 .58.503c.097.03.2.045.317.045.522 0 1.104-.323 1.622-.844a5.295 5.295 0 0 0 1.254-2.113c.137-.437.2-.854.2-1.227 0-.41-.077-.766-.225-1.035a.996.996 0 0 0-.58-.502zM190.633 77.894a.246.246 0 0 1-.335-.09.25.25 0 0 1 .09-.336l93.308-53.598c.116-.067.266-.027.333.09s.025.27-.093.336l-93.305 53.598zM314.5 89.778a.244.244 0 1 1-.247.422l-61.08-35.72c-.115-.068-.154-.218-.087-.334s.22-.155.335-.087l61.08 35.717z"/><path fill-rule="evenodd" clip-rule="evenodd" fill="#00C0E5" d="M311.737 98.34c-.396 0-.77-.057-1.113-.164-.894-.28-1.594-.897-2.07-1.768-.465-.85-.714-1.94-.714-3.186 0-1.078.187-2.276.58-3.538.73-2.34 2.04-4.46 3.565-5.995 1.544-1.555 3.317-2.516 4.955-2.516.396 0 .77.056 1.113.163.892.28 1.594.898 2.07 1.768.464.85.712 1.94.712 3.185 0 1.08-.187 2.278-.58 3.54-.728 2.34-2.04 4.46-3.564 5.994-1.542 1.555-3.314 2.516-4.952 2.516zm-.968-.632c.295.092.62.14.966.14 1.502 0 3.154-.904 4.607-2.368 1.474-1.482 2.738-3.532 3.445-5.796.376-1.21.556-2.36.556-3.393 0-1.162-.228-2.172-.653-2.95-.414-.757-1.02-1.294-1.784-1.533a3.225 3.225 0 0 0-.968-.142c-1.502 0-3.154.906-4.607 2.37-1.473 1.48-2.737 3.53-3.444 5.794-.378 1.21-.557 2.36-.557 3.392 0 1.166.23 2.175.652 2.953.414.76 1.02 1.297 1.786 1.535z"/><path fill-rule="evenodd" clip-rule="evenodd" fill="#A7A9AC" d="M107.798 216.676a.246.246 0 0 1-.087-.335.247.247 0 0 1 .336-.085l37.96 22.215a.243.243 0 1 1-.247.42l-37.96-22.215zM117.29 211.123a.244.244 0 0 1-.088-.335.246.246 0 0 1 .334-.088l37.96 22.214c.115.068.154.22.086.335a.245.245 0 0 1-.334.085l-37.96-22.213zM174.227 177.802a.244.244 0 1 1 .246-.42l37.96 22.214a.244.244 0 0 1 .088.333.244.244 0 0 1-.332.087l-37.96-22.214zM183.717 172.25a.25.25 0 0 1-.09-.336.246.246 0 0 1 .336-.087l37.96 22.214a.245.245 0 1 1-.247.423l-37.96-22.213zM193.207 166.695a.244.244 0 1 1 .247-.422l37.96 22.214c.116.07.155.218.086.334a.247.247 0 0 1-.335.09l-37.958-22.214zM202.696 161.14a.244.244 0 0 1-.087-.333.244.244 0 0 1 .332-.087l37.96 22.214a.25.25 0 0 1 .088.335.244.244 0 0 1-.333.085l-37.96-22.215zM212.187 155.588a.244.244 0 1 1 .244-.42l37.96 22.213c.117.07.156.22.09.335a.246.246 0 0 1-.336.088l-37.958-22.214z"/><path fill-rule="evenodd" clip-rule="evenodd" fill="#A7A9AC" d="M127.025 238.89a.246.246 0 0 1-.334-.088.244.244 0 0 1 .09-.333l123.366-72.197a.245.245 0 0 1 .248.423l-123.37 72.194zM117.535 233.336a.244.244 0 0 1-.334-.087.248.248 0 0 1 .09-.337l113.875-66.64a.244.244 0 1 1 .247.42l-113.877 66.64zM108.045 227.782a.244.244 0 0 1-.246-.42l113.877-66.73a.244.244 0 1 1 .247.42l-113.878 66.73z"/><path fill-rule="evenodd" clip-rule="evenodd" fill="#00C0E5" d="M313.535 92.335c-.973 0-1.398-1.154-.954-2.577s1.593-2.577 2.564-2.577c.97 0 1.397 1.156.954 2.58-.446 1.422-1.593 2.576-2.562 2.576zM254.1 51.693c.972 0 1.397 1.154.954 2.577-.443 1.424-1.59 2.578-2.562 2.578s-1.397-1.154-.953-2.578c.442-1.423 1.59-2.577 2.56-2.577z"/><path fill-rule="evenodd" clip-rule="evenodd" fill="#A7A9AC" d="M195.245 226.828l45.02-26.237c1.25-.727 2.97-1.046 4.725-.975 1.753.07 3.553.53 4.98 1.36l19.143 11.156c.938.547 1.606 1.19 2 1.865a2.9 2.9 0 0 1 .416 1.39 2.54 2.54 0 0 1-.356 1.35c-.288.5-.756.952-1.403 1.33l-45.02 26.238c-1.252.728-2.97 1.048-4.726.977-1.752-.07-3.553-.53-4.977-1.36l-19.145-11.157c-.938-.546-1.606-1.19-1.998-1.864a2.936 2.936 0 0 1-.42-1.39 2.55 2.55 0 0 1 .355-1.354c.287-.497.755-.95 1.404-1.33zm45.266-25.813l-45.02 26.237c-.57.333-.98.727-1.226 1.15-.204.35-.3.72-.29 1.097.012.38.13.77.354 1.15.35.604.96 1.187 1.82 1.69l19.144 11.155c1.357.79 3.077 1.228 4.753 1.296 1.67.068 3.29-.23 4.46-.912l45.02-26.238c.573-.332.98-.727 1.23-1.15.202-.348.298-.72.286-1.097-.01-.38-.126-.77-.35-1.154-.353-.6-.96-1.185-1.822-1.687l-19.144-11.156c-1.356-.79-3.075-1.23-4.75-1.296-1.673-.067-3.293.23-4.462.914zM231.29 144.554l-9.007 5.27 9.007 5.27 9.005-5.27-9.005-5.27zm-9.614 5.06l9.485-5.552a.245.245 0 0 1 .253-.002l9.49 5.554c.034.02.065.05.088.088a.247.247 0 0 1-.087.334l-9.487 5.55a.24.24 0 0 1-.25.003l-9.49-5.555a.228.228 0 0 1-.086-.088.242.242 0 0 1 .086-.334z"/><path fill-rule="evenodd" clip-rule="evenodd" fill="#A7A9AC" d="M250.393 155.588l-9.49 5.554a.244.244 0 0 1-.25-.003l-9.488-5.553a.245.245 0 0 1 0-.42l9.492-5.554a.24.24 0 0 1 .25.002l9.486 5.55a.248.248 0 0 1 0 .423zm-9.613 5.06l9.006-5.27-9.006-5.272-9.007 5.27 9.007 5.272zM155.248 188.487l9.49-5.554a.244.244 0 0 1 .25.002l9.485 5.552c.117.07.157.218.088.334a.25.25 0 0 1-.086.09l-9.49 5.553a.244.244 0 0 1-.25-.002l-9.485-5.55a.244.244 0 0 1 0-.422zm9.613-5.06l-9.004 5.27 9.006 5.272 9.007-5.273-9.007-5.27z"/><path fill-rule="evenodd" clip-rule="evenodd" fill="#A7A9AC" d="M174.35 199.52l9.007-5.27-9.007-5.27-9.005 5.27 9.005 5.27zm9.613-5.058l-9.486 5.55a.244.244 0 0 1-.25.004l-9.49-5.554a.243.243 0 0 1 0-.42l9.487-5.55a.24.24 0 0 1 .25-.004l9.49 5.554c.034.02.064.05.087.088.07.115.03.267-.086.334z"/><path fill-rule="evenodd" clip-rule="evenodd" fill="#A7A9AC" d="M174.35 177.874l-9.005 5.27 9.005 5.27 9.007-5.27-9.007-5.27zm-9.613 5.06l9.487-5.55a.24.24 0 0 1 .25-.003l9.49 5.555a.245.245 0 0 1 0 .423l-9.485 5.55a.24.24 0 0 1-.25.003l-9.49-5.553a.245.245 0 0 1 0-.423z"/><path fill-rule="evenodd" clip-rule="evenodd" fill="#A7A9AC" d="M193.454 188.91l-9.49 5.552a.244.244 0 0 1-.25-.002l-9.486-5.552a.244.244 0 0 1 0-.42l9.49-5.555a.247.247 0 0 1 .25.002l9.487 5.552c.115.07.154.218.087.334a.265.265 0 0 1-.086.09zm-9.614 5.058l9.007-5.27-9.007-5.27-9.007 5.27 9.007 5.27z"/><path fill-rule="evenodd" clip-rule="evenodd" fill="#A7A9AC" d="M174.227 177.38l9.488-5.553a.247.247 0 0 1 .252.002l9.486 5.55a.247.247 0 0 1 0 .42l-9.49 5.555a.24.24 0 0 1-.25-.003l-9.486-5.55a.247.247 0 0 1-.087-.336.24.24 0 0 1 .087-.086zm9.613-5.06l-9.007 5.27 9.007 5.272 9.007-5.27-9.007-5.27zM155.37 188.98l-9.005 5.27 9.006 5.272 9.008-5.27-9.006-5.272zm-9.612 5.06l9.486-5.55a.24.24 0 0 1 .25-.003l9.49 5.554c.035.02.065.05.087.09.07.114.03.266-.085.333l-9.486 5.55a.244.244 0 0 1-.25.004l-9.49-5.554a.243.243 0 0 1 0-.42z"/><path fill-rule="evenodd" clip-rule="evenodd" fill="#A7A9AC" d="M174.473 200.016l-9.49 5.554a.244.244 0 0 1-.25-.003l-9.485-5.55a.245.245 0 0 1 0-.422l9.49-5.554a.246.246 0 0 1 .25.003l9.486 5.553a.242.242 0 0 1 .088.333.237.237 0 0 1-.087.087zm-9.612 5.058l9.008-5.27-9.006-5.27-9.005 5.27 9.006 5.27z"/><path fill-rule="evenodd" clip-rule="evenodd" fill="#00C0E5" d="M174.35 199.806l-9.49 5.552 9.49 5.554 7.255.535 2.235-6.09"/><path fill-rule="evenodd" clip-rule="evenodd" fill="#A7A9AC" d="M68.188 222.04c-.117.066-.267.026-.333-.09s-.026-.268.09-.335L231.167 127.6a.248.248 0 0 1 .335.09.243.243 0 0 1-.092.333L68.188 222.04z"/><path fill-rule="evenodd" clip-rule="evenodd" fill="#FFF" d="M136.39 210.48v-46.74l-9.49-5.553v46.736"/><path fill-rule="evenodd" clip-rule="evenodd" fill="#A7A9AC" d="M136.146 210.052v-46.17l-9-5.267v46.17l9 5.267zm.49-46.31v46.736a.244.244 0 0 1-.368.21l-9.47-5.543a.245.245 0 0 1-.142-.22v-46.737a.246.246 0 0 1 .37-.212l9.47 5.543c.085.04.143.124.143.22z"/><path fill-rule="evenodd" clip-rule="evenodd" fill="#FFF" d="M136.39 138.065l9.49-5.553 9.49 5.553-9.49 5.554"/><path fill-rule="evenodd" clip-rule="evenodd" fill="#A7A9AC" d="M136.268 137.854l9.49-5.554a.246.246 0 0 1 .25.002l9.486 5.552a.244.244 0 0 1 0 .42l-9.49 5.555a.246.246 0 0 1-.25-.004l-9.485-5.552a.243.243 0 0 1-.09-.334.25.25 0 0 1 .09-.086zm9.613-5.06l-9.005 5.27 9.007 5.27 9.008-5.27-9.007-5.27z"/><path fill-rule="evenodd" clip-rule="evenodd" fill="#FFF" d="M145.88 143.62l9.49-5.555v21.608l9.49 5.553v40.132l-9.49 5.554-18.98 11.107v-11.037l-9.49 5.552V188.77l9.49-5.553v-19.465l9.49-5.553"/><path fill-rule="evenodd" clip-rule="evenodd" fill="#A7A9AC" d="M145.758 143.408h.002l9.488-5.553a.244.244 0 0 1 .368.21v21.47l9.368 5.48a.24.24 0 0 1 .12.21h.002v40.134a.244.244 0 0 1-.14.22l-9.472 5.543-18.98 11.106a.243.243 0 0 1-.333-.088.28.28 0 0 1-.03-.124v-10.61l-9.123 5.34a.247.247 0 0 1-.334-.088.258.258 0 0 1-.034-.125V188.77a.24.24 0 0 1 .14-.22l9.35-5.472v-19.326c0-.1.055-.182.14-.22l9.35-5.474v-14.44a.24.24 0 0 1 .12-.21zm9.367-4.916l-9 5.267v14.438a.24.24 0 0 1-.12.21l-9.37 5.48v19.326a.242.242 0 0 1-.12.21l-9.37 5.482v27.202l9.103-5.327a.246.246 0 0 1 .39.2v10.608l18.61-10.89 9.37-5.483V165.36l-9.35-5.47a.25.25 0 0 1-.14-.222V138.49z"/><path fill-rule="evenodd" clip-rule="evenodd" fill="#FFF" d="M145.88 158.2v-14.58l-9.49-5.555v14.58"/><path fill-rule="evenodd" clip-rule="evenodd" fill="#A7A9AC" d="M145.404 157.773v-14.015l-8.78-5.268v14.014l8.78 5.27zm.477-14.154v14.58a.235.235 0 0 1-.358.21l-9.254-5.552v-.002a.24.24 0 0 1-.12-.21v-14.58c0-.042.01-.085.033-.124a.236.236 0 0 1 .328-.087l9.255 5.553h.002c.07.043.117.12.117.21zM155.37 210.63l9.007-5.272-9.006-5.27-9.004 5.27 9.006 5.27zm9.614-5.06l-9.486 5.55a.244.244 0 0 1-.25.003l-9.49-5.554a.25.25 0 0 1-.087-.09.244.244 0 0 1 .09-.335l9.485-5.55a.24.24 0 0 1 .25-.002l9.49 5.552c.035.02.065.05.087.088.07.117.03.266-.086.335zM174.473 222.23l-9.49 5.552a.24.24 0 0 1-.25-.003l-9.485-5.55a.246.246 0 0 1 0-.424l9.49-5.554a.244.244 0 0 1 .25.002l9.486 5.552a.244.244 0 0 1 0 .422zm-9.612 5.06l9.008-5.272-9.006-5.27-9.005 5.27 9.006 5.27z"/><path fill-rule="evenodd" clip-rule="evenodd" fill="#A7A9AC" d="M155.37 211.193l-9.005 5.27 9.006 5.27 9.008-5.27-9.006-5.27zm-9.612 5.06l9.486-5.55a.24.24 0 0 1 .25-.002l9.49 5.555a.245.245 0 0 1 0 .423l-9.484 5.55a.24.24 0 0 1-.25.004l-9.49-5.554a.245.245 0 0 1 0-.423z"/><path fill-rule="evenodd" clip-rule="evenodd" fill="#FFF" d="M231.29 78.427l9.49-5.553 9.488 5.553-9.488 5.553"/><path fill-rule="evenodd" clip-rule="evenodd" fill="#A7A9AC" d="M231.165 78.217l9.492-5.553a.248.248 0 0 1 .25 0l9.486 5.553a.246.246 0 0 1 .087.334.25.25 0 0 1-.087.09l-9.49 5.553a.244.244 0 0 1-.25-.002l-9.488-5.55a.248.248 0 0 1-.087-.335.234.234 0 0 1 .087-.087zm9.615-5.06l-9.007 5.27 9.007 5.27 9.006-5.27-9.006-5.27z"/><path fill-rule="evenodd" clip-rule="evenodd" fill="#FFF" d="M221.8 133.366l9.49-5.553 9.49 5.553-9.49 5.554"/><path fill-rule="evenodd" clip-rule="evenodd" fill="#A7A9AC" d="M221.676 133.156l9.488-5.553a.243.243 0 0 1 .25.002l9.488 5.552a.246.246 0 0 1 .088.333.244.244 0 0 1-.088.087l-9.49 5.553a.246.246 0 0 1-.25 0l-9.486-5.553a.242.242 0 0 1-.087-.333.215.215 0 0 1 .085-.088zm9.614-5.06l-9.007 5.27 9.007 5.27 9.005-5.27-9.005-5.27z"/><path fill-rule="evenodd" clip-rule="evenodd" fill="#FFF" d="M240.78 83.98l9.488-5.553v88.057L231.29 177.59v-38.67l9.49-5.554"/><path fill-rule="evenodd" clip-rule="evenodd" fill="#A7A9AC" d="M240.657 83.77l9.488-5.553a.245.245 0 0 1 .368.21v88.058a.247.247 0 0 1-.14.222l-18.96 11.096a.243.243 0 0 1-.368-.21h-.002V138.92c0-.098.057-.183.14-.222l9.352-5.472V83.98a.24.24 0 0 1 .122-.21zm9.365-4.916l-9.242 5.588-.245 48.785-.03.263c0 .084-.022.333-.1.378l-8.87 5.19v38.106l18.487-10.82v-87.49z"/><path fill-rule="evenodd" clip-rule="evenodd" fill="#FFF" d="M240.78 133.366V83.98l-9.49-5.553v49.386"/><path fill-rule="evenodd" clip-rule="evenodd" fill="#A7A9AC" d="M240.07 132.94V84.12l-8.562-5.267v48.82l8.562 5.267zm.465-48.96v49.386c0 .042-.01.084-.03.124a.228.228 0 0 1-.32.087l-9.022-5.552h-.003a.25.25 0 0 1-.113-.21v-49.39c0-.04.01-.083.03-.123a.23.23 0 0 1 .32-.087l9.02 5.553h.003c.07.042.115.12.115.21z"/><path fill-rule="evenodd" clip-rule="evenodd" fill="#FFF" d="M231.29 177.59v-38.67l-9.49-5.554v38.672"/><path fill-rule="evenodd" clip-rule="evenodd" fill="#A7A9AC" d="M231.043 177.165V139.06l-8.998-5.267v38.105l8.998 5.267zm.49-38.245v38.67a.245.245 0 0 1-.368.212l-9.47-5.542a.248.248 0 0 1-.142-.222v-38.672a.25.25 0 0 1 .036-.123.24.24 0 0 1 .332-.087l9.47 5.542c.084.04.14.124.14.222z"/><path fill-rule="evenodd" clip-rule="evenodd" fill="#FFF" d="M155.37 159.673l9.49-5.555 9.49 5.555-9.49 5.553"/><path fill-rule="evenodd" clip-rule="evenodd" fill="#D1D3D4" d="M174.35 159.673l-9.49 5.553v44.426l9.49-5.553"/><path fill-rule="evenodd" clip-rule="evenodd" fill="#E6E7E8" d="M164.86 209.652v-44.426l-9.49-5.553V204.1"/><path fill-rule="evenodd" clip-rule="evenodd" fill="#C9EBFC" d="M193.33 150.22l9.49-5.553-9.49-5.554-9.49-5.552-9.49 5.554 9.49 5.554"/><path fill-rule="evenodd" clip-rule="evenodd" fill="#00C0E5" d="M174.35 199.806v-60.693l18.98 11.108 5.183 25.5-4.296 29.174-9.172 1.17"/><path fill-rule="evenodd" clip-rule="evenodd" fill="#FFF" d="M136.39 177.81l9.49-5.554 9.49 5.553-9.49 5.552"/><path fill-rule="evenodd" clip-rule="evenodd" fill="#D1D3D4" d="M155.37 177.81l-9.49 5.553v44.427l9.49-5.554"/><path fill-rule="evenodd" clip-rule="evenodd" fill="#E6E7E8" d="M145.88 227.79v-44.427l-9.49-5.554v44.425"/><path fill-rule="evenodd" clip-rule="evenodd" fill="#C9EBFC" d="M193.33 177.59l-9.49 5.556-9.49-5.555 9.49-5.55"/><path fill-rule="evenodd" clip-rule="evenodd" fill="#7BB13E" d="M174.35 177.59l-14.87 2.406 5.38 36.245v11.33l9.49-5.55"/><path fill-rule="evenodd" clip-rule="evenodd" fill="#FFFBC8" d="M155.37 177.59l9.49-5.552 9.49 5.553-9.49 5.557"/><path fill-rule="evenodd" clip-rule="evenodd" fill="#D0DF54" d="M164.86 227.57v-44.424l-9.49-5.555v44.43"/><path fill-rule="evenodd" clip-rule="evenodd" fill="#D1D3D4" d="M164.86 216.465l-17.684.76 8.195 15.9 9.49-5.554"/><path fill-rule="evenodd" clip-rule="evenodd" fill="#FFF" d="M155.37 222.02l9.49-5.555-9.49-5.553-9.49 5.553"/><path fill-rule="evenodd" clip-rule="evenodd" fill="#E6E7E8" d="M145.88 227.57v-11.105l9.49 5.554v11.104"/><path fill-rule="evenodd" clip-rule="evenodd" fill="#008CB1" d="M155.37 210.912v-11.106h-18.98l9.49 16.66"/><path fill-rule="evenodd" clip-rule="evenodd" fill="#00C0E5" d="M145.88 205.358l-9.49-5.552v22.213l9.49 5.55"/><path fill-rule="evenodd" clip-rule="evenodd" fill="#7BB13E" d="M240.78 172.038l-16.722 1.32 7.232 15.34 9.49-5.552"/><path fill-rule="evenodd" clip-rule="evenodd" fill="#FFFBC8" d="M231.29 177.59l9.49-5.552-9.49-5.554-9.49 5.554"/><path fill-rule="evenodd" clip-rule="evenodd" fill="#D0DF54" d="M221.8 183.146v-11.108l9.49 5.553V188.7"/><path fill-rule="evenodd" clip-rule="evenodd" fill="#008CB1" d="M269.25 166.484v-27.586l-15.38 1.916 5.89 31.224"/><path fill-rule="evenodd" clip-rule="evenodd" fill="#C9EBFC" d="M250.268 138.898l9.49-5.554 9.49 5.554-9.49 5.554"/><path fill-rule="evenodd" clip-rule="evenodd" fill="#00C0E5" d="M259.76 144.452l-9.492-5.554v27.586l9.49 5.554"/><path fill-rule="evenodd" clip-rule="evenodd" fill="#FFF" d="M126.9 158.2l9.49-5.554 9.49 5.553-9.49 5.55"/><path fill-rule="evenodd" clip-rule="evenodd" fill="#A7A9AC" d="M126.778 157.988l9.49-5.554a.24.24 0 0 1 .25.002l9.486 5.552a.245.245 0 0 1 0 .422l-9.49 5.552a.244.244 0 0 1-.25 0l-9.486-5.552a.245.245 0 0 1 0-.422zm9.613-5.06l-9.004 5.272 9.006 5.27 9.007-5.27-9.007-5.27z"/><path fill-rule="evenodd" clip-rule="evenodd" fill="#FFF" d="M117.41 183.217l9.49-5.554 9.49 5.554-9.49 5.553"/><path fill-rule="evenodd" clip-rule="evenodd" fill="#A7A9AC" d="M117.29 183.007l9.488-5.555a.24.24 0 0 1 .25.002l9.486 5.553a.242.242 0 0 1 .087.333.235.235 0 0 1-.085.088l-9.49 5.553a.24.24 0 0 1-.25 0l-9.486-5.55a.244.244 0 0 1 .002-.422zm9.61-5.06l-9.005 5.27 9.006 5.27 9.008-5.27-9.006-5.27z"/><path fill-rule="evenodd" clip-rule="evenodd" fill="#FFF" d="M126.9 188.77l-9.49-5.553v27.767l9.49 5.552"/><path fill-rule="evenodd" clip-rule="evenodd" fill="#A7A9AC" d="M127.14 188.91l-9.458-5.267v27.2l9.46 5.268v-27.2zm-9.586-5.903l9.954 5.542a.242.242 0 0 1 .148.22v27.766a.23.23 0 0 1-.037.125.27.27 0 0 1-.354.088l-9.954-5.542a.246.246 0 0 1-.148-.223v-27.768c0-.042.012-.084.037-.123a.265.265 0 0 1 .353-.087z"/><path fill-rule="evenodd" clip-rule="evenodd" fill="#ED135D" d="M136.39 222.02h-18.98l9.49 16.66 9.49-5.555"/><path fill-rule="evenodd" clip-rule="evenodd" fill="#FAC4C4" d="M126.9 227.57l9.49-5.55-9.49-5.555-9.49 5.554"/><path fill-rule="evenodd" clip-rule="evenodd" fill="#F26B7D" d="M117.41 233.125V222.02l9.49 5.55v11.11"/><path fill-rule="evenodd" clip-rule="evenodd" fill="#008CB1" d="M202.82 144.667l-9.49 5.554v27.016l-.174.253-9.316 5.657v22.212l-9.49 5.553v11.107l13.234-7.747 13.2-7.724 2.036-1.193"/><path fill-rule="evenodd" clip-rule="evenodd" fill="#C9EBFC" d="M136.39 199.806l9.49-5.555 9.49 5.557-9.49 5.552"/><path fill-rule="evenodd" clip-rule="evenodd" fill="#A7A9AC" d="M240.903 171.827a.25.25 0 0 1 .088.335.243.243 0 0 1-.332.087l-9.367-5.484-9.365 5.482a.245.245 0 1 1-.247-.423l9.485-5.552a.24.24 0 0 1 .25-.002l9.49 5.555z"/></svg>