<!DOCTYPE svg PUBLIC "-//W3C//DTD SVG 1.1//EN" "http://www.w3.org/Graphics/SVG/1.1/DTD/svg11.dtd" [
	<!ENTITY ns_flows "http://ns.adobe.com/Flows/1.0/">
]><svg xmlns="http://www.w3.org/2000/svg" width="354" height="354" viewBox="-7.641 -3.218 354 354" overflow="visible"><path fill-rule="evenodd" clip-rule="evenodd" fill="#F3F4F4" d="M131.56 329.474L61.4 288.577c-8.595-5.01-7.545-13.82 2.33-19.577l137.892-80.378c9.876-5.757 24.99-6.368 33.585-1.358l70.16 40.898c8.594 5.01 7.546 13.818-2.33 19.576l-137.892 80.377c-9.876 5.76-24.99 6.37-33.584 1.36z"/><path fill-rule="evenodd" clip-rule="evenodd" fill="#DEDFE0" d="M177.956 154.53l12.305 7.152a.24.24 0 0 1 0 .42l-21.757 12.645a.244.244 0 0 1-.245 0L146.5 162.1a.245.245 0 0 1-.09-.332.23.23 0 0 1 .09-.088l10.88-6.323c3.026-1.76 6.85-2.733 10.572-2.885 3.73-.15 7.362.52 10.004 2.055zm11.7 7.362l-11.943-6.943c-2.56-1.49-6.1-2.14-9.742-1.99-3.645.147-7.39 1.1-10.347 2.82l-10.52 6.11 21.278 12.367 21.278-12.366z"/><path fill-rule="evenodd" clip-rule="evenodd" fill="#DEDFE0" d="M190.262 161.684l21.758 12.645a.243.243 0 0 1 0 .42l-21.76 12.643a.242.242 0 0 1-.244 0l-21.757-12.646a.242.242 0 0 1 0-.42l21.757-12.645a.242.242 0 0 1 .244 0zm21.155 12.854l-21.277-12.366-21.277 12.366 21.277 12.366 21.277-12.366z"/><path fill-rule="evenodd" clip-rule="evenodd" fill="#DEDFE0" d="M212.022 174.33l21.757 12.646a.242.242 0 0 1 .087.33.21.21 0 0 1-.09.09L212.02 200.04a.24.24 0 0 1-.245-.002l-21.757-12.645a.242.242 0 0 1-.088-.33.217.217 0 0 1 .09-.09l21.757-12.645a.24.24 0 0 1 .245.002zm21.153 12.854L211.9 174.818l-21.28 12.366 21.28 12.366 21.275-12.366z"/><path fill-rule="evenodd" clip-rule="evenodd" fill="#DEDFE0" d="M233.782 186.976l21.758 12.644a.244.244 0 0 1-.002.422l-21.76 12.644a.24.24 0 0 1-.244 0l-21.757-12.646a.245.245 0 0 1-.09-.33.282.282 0 0 1 .092-.09l21.756-12.645a.24.24 0 0 1 .245 0zm21.153 12.855l-21.276-12.364-21.28 12.366 21.278 12.365 21.275-12.364zM146.745 161.684l21.757 12.645a.24.24 0 0 1-.002.42l-21.758 12.643a.244.244 0 0 1-.245 0l-21.757-12.646a.24.24 0 0 1-.088-.33.223.223 0 0 1 .09-.09l21.758-12.645a.244.244 0 0 1 .245 0zm21.153 12.854l-21.278-12.366-21.276 12.366 21.276 12.366 21.278-12.366z"/><path fill-rule="evenodd" clip-rule="evenodd" fill="#DEDFE0" d="M168.503 174.33l21.757 12.646a.24.24 0 0 1 .088.33.218.218 0 0 1-.088.09L168.5 200.04a.237.237 0 0 1-.244 0L146.5 187.392a.243.243 0 0 1 0-.42l21.76-12.645a.238.238 0 0 1 .243.002zm21.154 12.854l-21.277-12.366-21.277 12.366 21.277 12.366 21.277-12.366z"/><path fill-rule="evenodd" clip-rule="evenodd" fill="#DEDFE0" d="M190.262 186.976l21.758 12.644a.246.246 0 0 1 .09.332.286.286 0 0 1-.09.09l-21.76 12.644a.24.24 0 0 1-.244 0L168.26 200.04a.242.242 0 0 1 0-.42l21.758-12.645a.237.237 0 0 1 .244 0zm21.155 12.855l-21.277-12.364-21.277 12.366 21.277 12.365 21.277-12.364z"/><path fill-rule="evenodd" clip-rule="evenodd" fill="#DEDFE0" d="M212.022 199.622l21.757 12.645a.244.244 0 0 1 .087.332.238.238 0 0 1-.09.087l-21.758 12.645a.25.25 0 0 1-.246 0l-21.757-12.647a.242.242 0 0 1-.088-.33.217.217 0 0 1 .09-.09l21.756-12.645a.25.25 0 0 1 .245.002zm21.153 12.853L211.9 200.11l-21.28 12.365 21.28 12.368 21.275-12.368z"/><path fill-rule="evenodd" clip-rule="evenodd" fill="#DEDFE0" d="M190.262 212.267l21.758 12.646a.243.243 0 0 1 .09.33.258.258 0 0 1-.09.09l-21.76 12.645a.242.242 0 0 1-.244 0L168.26 225.33a.242.242 0 0 1 0-.42l21.758-12.645a.247.247 0 0 1 .244.002zm21.155 12.855l-21.277-12.365-21.277 12.365 21.277 12.366 21.277-12.366z"/><path fill-rule="evenodd" clip-rule="evenodd" fill="#DEDFE0" d="M168.503 199.622l21.757 12.645a.242.242 0 0 1 0 .42l-21.76 12.645a.25.25 0 0 1-.244 0L146.5 212.684a.243.243 0 0 1 0-.42l21.76-12.645a.245.245 0 0 1 .243 0zm21.154 12.853L168.38 200.11l-21.277 12.365 21.277 12.368 21.277-12.368z"/><path fill-rule="evenodd" clip-rule="evenodd" fill="#DEDFE0" d="M146.745 186.976l21.757 12.644a.244.244 0 0 1-.002.422l-21.758 12.644a.24.24 0 0 1-.245 0L124.74 200.04a.24.24 0 0 1 .002-.42l21.758-12.645a.24.24 0 0 1 .245 0zm21.153 12.855l-21.278-12.364-21.276 12.366 21.276 12.365 21.278-12.364z"/><path fill-rule="evenodd" clip-rule="evenodd" fill="#DEDFE0" d="M124.985 174.33l21.757 12.646a.242.242 0 0 1 0 .42l-21.758 12.645a.24.24 0 0 1-.246 0l-21.756-12.645a.242.242 0 0 1 0-.42l21.76-12.645a.233.233 0 0 1 .243 0zm21.154 12.854l-21.28-12.366-21.276 12.366 21.277 12.366 21.278-12.366zM168.503 224.914l21.757 12.645a.24.24 0 0 1 .088.33.218.218 0 0 1-.088.09l-21.76 12.644a.237.237 0 0 1-.244-.002L146.5 237.978a.244.244 0 0 1-.09-.33.236.236 0 0 1 .09-.09l21.76-12.646a.245.245 0 0 1 .243.002zm21.154 12.854l-21.277-12.365-21.277 12.365 21.277 12.366 21.277-12.366z"/><path fill-rule="evenodd" clip-rule="evenodd" fill="#DEDFE0" d="M146.745 212.267l21.757 12.646a.243.243 0 0 1-.002.42l-21.758 12.645a.244.244 0 0 1-.245 0L124.74 225.33a.24.24 0 0 1-.088-.33.25.25 0 0 1 .09-.09l21.758-12.645a.25.25 0 0 1 .245.002zm21.153 12.855l-21.278-12.365-21.276 12.365 21.276 12.366 21.278-12.366z"/><path fill-rule="evenodd" clip-rule="evenodd" fill="#DEDFE0" d="M124.985 199.622l21.757 12.645a.245.245 0 0 1 .09.332.28.28 0 0 1-.09.087l-21.758 12.645a.253.253 0 0 1-.246 0l-21.756-12.647a.242.242 0 0 1 0-.42l21.76-12.645a.245.245 0 0 1 .243.002zm21.154 12.853l-21.28-12.365-21.277 12.365 21.277 12.368 21.277-12.368z"/><path fill-rule="evenodd" clip-rule="evenodd" fill="#DEDFE0" d="M103.225 186.976l21.758 12.644a.244.244 0 0 1-.003.422l-21.757 12.644a.24.24 0 0 1-.245 0L81.22 200.04a.242.242 0 0 1 .003-.42l21.757-12.645a.24.24 0 0 1 .245 0zm21.154 12.855l-21.28-12.364-21.275 12.364 21.277 12.365 21.277-12.364zM255.54 199.622l21.758 12.645a.245.245 0 0 1 .09.332.245.245 0 0 1-.09.087l-21.758 12.645a.25.25 0 0 1-.245 0l-21.758-12.647a.24.24 0 0 1-.088-.33.224.224 0 0 1 .087-.09l21.76-12.645a.245.245 0 0 1 .243.002zm21.154 12.853l-21.276-12.365-21.277 12.365 21.28 12.368 21.275-12.368z"/><path fill-rule="evenodd" clip-rule="evenodd" fill="#DEDFE0" d="M277.3 212.267l21.757 12.646a.24.24 0 0 1 .088.33.23.23 0 0 1-.09.09l-21.758 12.645a.242.242 0 0 1-.244 0l-21.757-12.647a.243.243 0 0 1-.09-.33.267.267 0 0 1 .09-.09l21.76-12.644a.247.247 0 0 1 .244.002zm21.155 12.855l-21.278-12.365-21.275 12.365 21.275 12.366 21.278-12.366z"/><path fill-rule="evenodd" clip-rule="evenodd" fill="#DEDFE0" d="M299.06 224.914l21.757 12.645a.243.243 0 0 1 0 .42l-21.76 12.644a.24.24 0 0 1-.245-.002l-21.756-12.644a.246.246 0 0 1-.09-.332.236.236 0 0 1 .09-.09l21.758-12.645a.253.253 0 0 1 .246 0zm21.152 12.854l-21.276-12.365-21.277 12.365 21.275 12.366 21.276-12.366z"/><path fill-rule="evenodd" clip-rule="evenodd" fill="#DEDFE0" d="M320.82 237.56l12.304 7.15c1.353.785 2.323 1.728 2.92 2.752.504.87.74 1.795.715 2.74-.028.942-.313 1.9-.853 2.828-.82 1.41-2.23 2.765-4.212 3.916l-10.88 6.323a.244.244 0 0 1-.245-.004l-21.756-12.645a.245.245 0 0 1-.087-.33.224.224 0 0 1 .09-.09l21.757-12.645a.245.245 0 0 1 .246.004zm12.06 7.57l-12.186-7.082-21.275 12.365 21.273 12.365 10.76-6.25c1.903-1.108 3.254-2.4 4.032-3.742.5-.86.765-1.736.788-2.596a4.675 4.675 0 0 0-.65-2.484c-.555-.955-1.466-1.834-2.743-2.577zM233.782 212.267l21.758 12.646a.242.242 0 0 1-.002.42l-21.76 12.645a.242.242 0 0 1-.244 0l-21.757-12.647a.245.245 0 0 1-.09-.33.282.282 0 0 1 .092-.09l21.756-12.644a.25.25 0 0 1 .245.002zm21.153 12.855l-21.276-12.365-21.28 12.365 21.278 12.366 21.275-12.366z"/><path fill-rule="evenodd" clip-rule="evenodd" fill="#DEDFE0" d="M255.54 224.914l21.76 12.646a.242.242 0 0 1 0 .42l-21.758 12.645a.24.24 0 0 1-.245-.002L233.54 237.98a.243.243 0 0 1-.09-.333c.02-.04.053-.07.09-.09l21.76-12.645a.247.247 0 0 1 .242 0zm21.154 12.854l-21.276-12.365-21.277 12.365 21.28 12.366 21.275-12.366z"/><path fill-rule="evenodd" clip-rule="evenodd" fill="#DEDFE0" d="M277.3 237.56l21.757 12.644a.24.24 0 0 1 .088.33.217.217 0 0 1-.09.09l-21.758 12.647a.237.237 0 0 1-.244 0l-21.757-12.645a.245.245 0 0 1-.09-.332.253.253 0 0 1 .09-.088l21.76-12.646a.235.235 0 0 1 .244 0zm21.155 12.854l-21.278-12.365-21.275 12.363 21.275 12.365 21.278-12.366z"/><path fill-rule="evenodd" clip-rule="evenodd" fill="#DEDFE0" d="M299.06 250.205l21.757 12.646a.246.246 0 0 1 .09.333.258.258 0 0 1-.09.09l-21.76 12.644a.244.244 0 0 1-.245 0l-21.756-12.645a.243.243 0 0 1 0-.42l21.758-12.645a.246.246 0 0 1 .246 0zm21.152 12.854l-21.276-12.368-21.277 12.366 21.275 12.366 21.276-12.367z"/><path fill-rule="evenodd" clip-rule="evenodd" fill="#DEDFE0" d="M277.3 262.85l21.757 12.646a.242.242 0 0 1-.002.422l-21.758 12.645a.24.24 0 0 1-.244-.002l-21.757-12.644a.243.243 0 0 1-.09-.33.267.267 0 0 1 .09-.09l21.76-12.645a.242.242 0 0 1 .244 0zm21.155 12.856l-21.278-12.365-21.275 12.367 21.275 12.366 21.278-12.366z"/><path fill-rule="evenodd" clip-rule="evenodd" fill="#DEDFE0" d="M255.54 250.205l21.76 12.645a.245.245 0 0 1 0 .422l-21.758 12.644a.244.244 0 0 1-.245 0L233.54 263.27a.24.24 0 0 1-.09-.33.224.224 0 0 1 .09-.09l21.76-12.644a.24.24 0 0 1 .242 0zm21.154 12.854l-21.276-12.368-21.277 12.366 21.28 12.366 21.275-12.367z"/><path fill-rule="evenodd" clip-rule="evenodd" fill="#DEDFE0" d="M233.782 237.56l21.758 12.644a.242.242 0 0 1-.002.42l-21.76 12.647a.237.237 0 0 1-.244 0l-21.757-12.645a.247.247 0 0 1-.09-.332.266.266 0 0 1 .092-.088l21.756-12.646a.237.237 0 0 1 .245 0zm21.153 12.854L233.66 238.05l-21.278 12.364 21.277 12.365 21.274-12.367z"/><path fill-rule="evenodd" clip-rule="evenodd" fill="#DEDFE0" d="M212.022 224.914l21.757 12.645a.24.24 0 0 1 .087.33.21.21 0 0 1-.09.09l-21.758 12.644a.24.24 0 0 1-.246-.002l-21.757-12.644a.245.245 0 0 1-.088-.332c.02-.04.05-.07.09-.09l21.756-12.645a.25.25 0 0 1 .245 0zm21.153 12.854L211.9 225.403l-21.28 12.365 21.28 12.366 21.275-12.366zM255.54 275.498l21.758 12.644a.245.245 0 0 1 .09.332.26.26 0 0 1-.09.09l-21.758 12.644a.244.244 0 0 1-.245 0l-21.758-12.645a.24.24 0 0 1-.088-.33.23.23 0 0 1 .087-.092l21.76-12.643a.238.238 0 0 1 .243.002zm21.154 12.855l-21.276-12.367-21.277 12.367 21.28 12.364 21.275-12.364z"/><path fill-rule="evenodd" clip-rule="evenodd" fill="#DEDFE0" d="M233.782 262.85l21.758 12.646a.244.244 0 0 1-.002.422l-21.76 12.645a.24.24 0 0 1-.244-.002l-21.757-12.644a.245.245 0 0 1-.09-.33.282.282 0 0 1 .092-.09l21.756-12.645a.244.244 0 0 1 .245 0zm21.153 12.856L233.66 263.34l-21.278 12.366 21.277 12.366 21.274-12.366z"/><path fill-rule="evenodd" clip-rule="evenodd" fill="#DEDFE0" d="M212.022 250.205l21.757 12.646a.244.244 0 0 1-.003.423l-21.758 12.644a.244.244 0 0 1-.246 0l-21.757-12.645a.242.242 0 0 1-.088-.33.217.217 0 0 1 .09-.09l21.756-12.645a.244.244 0 0 1 .245 0zm21.153 12.854L211.9 250.69l-21.28 12.366 21.28 12.366 21.275-12.367z"/><path fill-rule="evenodd" clip-rule="evenodd" fill="#DEDFE0" d="M190.262 237.56l21.758 12.644a.243.243 0 0 1 0 .42l-21.76 12.646a.237.237 0 0 1-.244-.002l-21.757-12.645a.245.245 0 0 1-.09-.332.258.258 0 0 1 .09-.086l21.757-12.646a.237.237 0 0 1 .244.003zm21.155 12.854L190.14 238.05l-21.277 12.364 21.277 12.365 21.277-12.367z"/><path fill-rule="evenodd" clip-rule="evenodd" fill="#DEDFE0" d="M168.503 250.205l21.757 12.646a.242.242 0 0 1 .088.333.23.23 0 0 1-.088.09l-21.76 12.644a.242.242 0 0 1-.244 0L146.5 263.27a.244.244 0 0 1 0-.42l21.76-12.646a.245.245 0 0 1 .243 0zm21.154 12.854L168.38 250.69l-21.277 12.366 21.277 12.366 21.277-12.367z"/><path fill-rule="evenodd" clip-rule="evenodd" fill="#DEDFE0" d="M190.262 262.85l21.758 12.646a.245.245 0 0 1 .09.332.297.297 0 0 1-.09.09l-21.76 12.645a.24.24 0 0 1-.244-.002l-21.757-12.644a.242.242 0 0 1 0-.42l21.757-12.645a.242.242 0 0 1 .244 0zm21.155 12.856L190.14 263.34l-21.277 12.366 21.277 12.366 21.277-12.366z"/><path fill-rule="evenodd" clip-rule="evenodd" fill="#DEDFE0" d="M212.022 275.498l21.757 12.644a.244.244 0 0 1-.003.422l-21.758 12.644a.244.244 0 0 1-.246 0l-21.757-12.645a.242.242 0 0 1-.088-.33c.02-.04.05-.07.09-.092l21.756-12.643a.24.24 0 0 1 .245.002zm21.153 12.855L211.9 275.986l-21.28 12.367 21.28 12.364 21.275-12.364z"/><path fill-rule="evenodd" clip-rule="evenodd" fill="#DEDFE0" d="M233.782 288.143l21.758 12.646a.24.24 0 0 1-.002.42l-21.76 12.643a.237.237 0 0 1-.244 0l-21.757-12.647a.245.245 0 0 1-.09-.33.264.264 0 0 1 .092-.09l21.756-12.645a.244.244 0 0 1 .245 0zm21.153 12.855l-21.276-12.366-21.28 12.366 21.278 12.366 21.275-12.366zM146.745 262.85l21.757 12.646a.243.243 0 0 1-.002.422l-21.758 12.645a.24.24 0 0 1-.245-.002l-21.757-12.644a.24.24 0 0 1-.088-.33.25.25 0 0 1 .09-.09L146.5 262.85a.244.244 0 0 1 .245 0zm21.153 12.856L146.62 263.34l-21.276 12.365 21.276 12.366 21.278-12.363z"/><path fill-rule="evenodd" clip-rule="evenodd" fill="#DEDFE0" d="M168.503 275.498l21.757 12.644a.242.242 0 0 1 .088.332.26.26 0 0 1-.088.09l-21.76 12.644a.242.242 0 0 1-.244 0L146.5 288.56a.244.244 0 0 1 0-.422l21.76-12.645a.242.242 0 0 1 .243.003zm21.154 12.855l-21.277-12.367-21.277 12.367 21.277 12.364 21.277-12.364z"/><path fill-rule="evenodd" clip-rule="evenodd" fill="#DEDFE0" d="M190.262 288.143l21.758 12.646a.242.242 0 0 1 0 .42l-21.76 12.643a.237.237 0 0 1-.244 0l-21.757-12.647a.242.242 0 0 1 0-.42l21.757-12.645a.242.242 0 0 1 .244 0zm21.155 12.855l-21.277-12.366-21.277 12.366 21.277 12.366 21.277-12.366z"/><path fill-rule="evenodd" clip-rule="evenodd" fill="#DEDFE0" d="M212.022 300.79l21.757 12.644a.244.244 0 0 1-.003.422L212.02 326.5a.24.24 0 0 1-.245 0l-21.757-12.646a.242.242 0 0 1-.088-.33c.02-.04.052-.07.09-.09l21.757-12.645a.235.235 0 0 1 .245 0zm21.153 12.854L211.9 301.278l-21.28 12.366 21.28 12.364 21.275-12.364z"/><path fill-rule="evenodd" clip-rule="evenodd" fill="#DEDFE0" d="M190.262 313.434l21.758 12.646a.243.243 0 0 1 0 .42l-21.76 12.645a.25.25 0 0 1-.244 0L168.26 326.5a.242.242 0 0 1 0-.42l21.758-12.646a.242.242 0 0 1 .244 0zm21.155 12.856l-21.277-12.366-21.277 12.366 21.277 12.366 21.277-12.366z"/><path fill-rule="evenodd" clip-rule="evenodd" fill="#DEDFE0" d="M168.503 300.79l21.757 12.644a.243.243 0 0 1 .088.332.245.245 0 0 1-.088.09L168.5 326.5a.237.237 0 0 1-.244 0L146.5 313.853a.243.243 0 0 1 0-.42l21.76-12.645a.236.236 0 0 1 .243.002zm21.154 12.854l-21.277-12.366-21.277 12.366 21.277 12.364 21.277-12.364z"/><path fill-rule="evenodd" clip-rule="evenodd" fill="#DEDFE0" d="M146.745 288.143l21.757 12.646a.24.24 0 0 1 .088.33.243.243 0 0 1-.09.09l-21.758 12.643a.24.24 0 0 1-.245 0l-21.757-12.647a.24.24 0 0 1-.088-.33.236.236 0 0 1 .09-.09L146.5 288.14a.244.244 0 0 1 .245 0zm21.153 12.855l-21.278-12.366-21.276 12.366 21.276 12.366 21.278-12.366z"/><path fill-rule="evenodd" clip-rule="evenodd" fill="#DEDFE0" d="M124.985 275.498l21.757 12.644a.245.245 0 0 1 .09.332.297.297 0 0 1-.09.09l-21.758 12.644a.246.246 0 0 1-.246 0l-21.756-12.645a.243.243 0 0 1 0-.422l21.76-12.643a.238.238 0 0 1 .243.002zm21.154 12.855l-21.28-12.367-21.276 12.367 21.277 12.364 21.278-12.364zM168.503 326.08l21.757 12.647a.24.24 0 0 1 .088.33.23.23 0 0 1-.088.09l-10.88 6.322c-3.025 1.757-6.85 2.73-10.572 2.882-3.73.153-7.363-.52-10.003-2.055l-12.306-7.152a.242.242 0 0 1 0-.42l21.757-12.645a.25.25 0 0 1 .245 0zm21.154 12.855L168.38 326.57l-21.277 12.365 11.946 6.942c2.56 1.487 6.1 2.14 9.74 1.99 3.647-.147 7.39-1.1 10.347-2.82l10.52-6.112z"/><path fill-rule="evenodd" clip-rule="evenodd" fill="#DEDFE0" d="M146.745 313.434l21.757 12.646a.24.24 0 0 1-.002.42l-21.758 12.645a.25.25 0 0 1-.245 0L124.74 326.5a.24.24 0 0 1 .002-.42l21.758-12.646a.244.244 0 0 1 .245 0zm21.153 12.856l-21.278-12.366-21.276 12.366 21.276 12.366 21.278-12.366z"/><path fill-rule="evenodd" clip-rule="evenodd" fill="#DEDFE0" d="M124.985 300.79l21.757 12.644a.245.245 0 0 1 .09.332.276.276 0 0 1-.09.09L124.984 326.5a.24.24 0 0 1-.246 0l-21.756-12.646a.242.242 0 0 1 0-.42l21.76-12.645a.23.23 0 0 1 .243 0zm21.154 12.854l-21.28-12.366-21.276 12.366 21.277 12.364 21.278-12.364z"/><path fill-rule="evenodd" clip-rule="evenodd" fill="#DEDFE0" d="M103.225 288.143l21.758 12.646a.24.24 0 0 1 .087.33.243.243 0 0 1-.09.09l-21.757 12.643a.24.24 0 0 1-.245 0L81.22 301.206a.24.24 0 0 1-.087-.33.236.236 0 0 1 .09-.09l21.757-12.645a.244.244 0 0 1 .245 0zm21.154 12.855l-21.28-12.366-21.277 12.366 21.277 12.366 21.277-12.366zM81.466 199.622l21.757 12.645a.243.243 0 0 1 0 .42l-21.758 12.645a.25.25 0 0 1-.245 0l-21.76-12.647a.243.243 0 0 1 .002-.42L81.22 199.62a.25.25 0 0 1 .245.002zm21.154 12.853L81.343 200.11l-21.277 12.365 21.277 12.368 21.277-12.368z"/><path fill-rule="evenodd" clip-rule="evenodd" fill="#DEDFE0" d="M103.225 212.267l21.758 12.646a.24.24 0 0 1-.003.42l-21.757 12.645a.244.244 0 0 1-.245 0L81.22 225.33a.24.24 0 0 1 .003-.42l21.757-12.645a.25.25 0 0 1 .245.002zm21.154 12.855l-21.28-12.365-21.277 12.365 21.277 12.366 21.277-12.366z"/><path fill-rule="evenodd" clip-rule="evenodd" fill="#DEDFE0" d="M124.985 224.914l21.757 12.645a.242.242 0 0 1 0 .42l-21.758 12.644a.24.24 0 0 1-.246-.002l-21.756-12.644a.245.245 0 0 1-.09-.332.25.25 0 0 1 .09-.09l21.76-12.645a.247.247 0 0 1 .243 0zm21.154 12.854l-21.28-12.365-21.276 12.365 21.277 12.366 21.278-12.366z"/><path fill-rule="evenodd" clip-rule="evenodd" fill="#DEDFE0" d="M146.745 237.56l21.757 12.644a.24.24 0 0 1-.002.42l-21.758 12.647a.24.24 0 0 1-.245 0l-21.757-12.645a.243.243 0 0 1 .002-.42L146.5 237.56a.237.237 0 0 1 .245 0zm21.153 12.854L146.62 238.05l-21.276 12.364 21.276 12.365 21.278-12.367zM59.707 212.267l21.757 12.646a.242.242 0 0 1-.002.42l-21.757 12.645a.244.244 0 0 1-.245 0L37.703 225.33a.24.24 0 0 1 0-.42l21.76-12.645a.247.247 0 0 1 .244.002zm21.154 12.855l-21.275-12.365-21.277 12.365 21.277 12.366 21.277-12.366z"/><path fill-rule="evenodd" clip-rule="evenodd" fill="#DEDFE0" d="M81.466 224.914l21.757 12.645a.24.24 0 0 1 .088.33.218.218 0 0 1-.087.09l-21.758 12.644a.24.24 0 0 1-.245-.002L59.46 237.98a.243.243 0 0 1 .002-.422l21.757-12.645a.253.253 0 0 1 .245 0zm21.154 12.854l-21.277-12.365-21.277 12.365 21.277 12.366 21.277-12.366z"/><path fill-rule="evenodd" clip-rule="evenodd" fill="#DEDFE0" d="M103.225 237.56l21.758 12.644a.242.242 0 0 1-.003.42l-21.757 12.647a.24.24 0 0 1-.245 0L81.22 250.624a.244.244 0 0 1-.087-.332.237.237 0 0 1 .09-.087l21.757-12.646a.237.237 0 0 1 .245.002zm21.154 12.854L103.1 238.05l-21.277 12.364L103.1 262.78l21.277-12.367z"/><path fill-rule="evenodd" clip-rule="evenodd" fill="#DEDFE0" d="M124.985 250.205l21.757 12.646a.245.245 0 0 1 .09.333.258.258 0 0 1-.09.09l-21.758 12.644a.246.246 0 0 1-.246 0l-21.756-12.645a.242.242 0 0 1 0-.42l21.76-12.645a.24.24 0 0 1 .243 0zm21.154 12.854l-21.28-12.368-21.276 12.366 21.277 12.366 21.278-12.367z"/><path fill-rule="evenodd" clip-rule="evenodd" fill="#DEDFE0" d="M103.225 262.85l21.758 12.646a.244.244 0 0 1-.003.422l-21.757 12.645a.24.24 0 0 1-.245-.002L81.22 275.917a.24.24 0 0 1-.087-.33.25.25 0 0 1 .09-.09l21.757-12.645a.244.244 0 0 1 .245 0zm21.154 12.856L103.1 263.34l-21.277 12.366 21.277 12.366 21.277-12.366z"/><path fill-rule="evenodd" clip-rule="evenodd" fill="#DEDFE0" d="M81.466 250.205l21.757 12.646a.243.243 0 0 1 .088.333.23.23 0 0 1-.087.09l-21.758 12.644a.244.244 0 0 1-.245 0L59.46 263.27a.24.24 0 0 1-.088-.33.23.23 0 0 1 .09-.09l21.757-12.646a.25.25 0 0 1 .245 0zm21.154 12.854L81.343 250.69l-21.277 12.366 21.277 12.366 21.277-12.367z"/><path fill-rule="evenodd" clip-rule="evenodd" fill="#DEDFE0" d="M59.707 237.56l21.757 12.644a.242.242 0 0 1-.002.42L59.706 263.27a.24.24 0 0 1-.245-.002l-21.756-12.645a.244.244 0 0 1-.09-.332.258.258 0 0 1 .09-.086l21.76-12.646a.237.237 0 0 1 .244.003zm21.154 12.854L59.586 238.05l-21.277 12.364 21.277 12.365 21.277-12.367z"/><path fill-rule="evenodd" clip-rule="evenodd" fill="#DEDFE0" d="M37.948 224.914l21.757 12.645a.24.24 0 0 1 .087.33.21.21 0 0 1-.09.09l-21.757 12.644a.24.24 0 0 1-.245-.002L15.942 237.98a.243.243 0 0 1-.087-.332.223.223 0 0 1 .09-.09l21.758-12.645a.25.25 0 0 1 .245 0zM59.1 237.768l-21.276-12.365-21.277 12.365 21.277 12.366L59.1 237.768zM81.466 275.498l21.757 12.644a.243.243 0 0 1 .088.332.26.26 0 0 1-.087.09l-21.758 12.644a.244.244 0 0 1-.245 0l-21.76-12.646a.24.24 0 0 1-.088-.33.25.25 0 0 1 .09-.092l21.757-12.644a.243.243 0 0 1 .245.002zm21.154 12.855l-21.277-12.367-21.277 12.367 21.277 12.364 21.277-12.364z"/><path fill-rule="evenodd" clip-rule="evenodd" fill="#DEDFE0" d="M59.707 262.85l21.757 12.646a.244.244 0 0 1-.002.422l-21.757 12.645a.24.24 0 0 1-.245-.002l-21.757-12.644a.24.24 0 0 1 0-.42l21.76-12.645a.242.242 0 0 1 .244 0zm21.154 12.856L59.585 263.34l-21.277 12.365 21.277 12.366 21.278-12.363z"/><path fill-rule="evenodd" clip-rule="evenodd" fill="#DEDFE0" d="M37.948 250.205l21.757 12.646a.242.242 0 0 1 .087.333.223.223 0 0 1-.09.09l-21.757 12.644a.244.244 0 0 1-.245 0L15.943 263.27a.24.24 0 0 1-.087-.33.223.223 0 0 1 .09-.09l21.758-12.646a.247.247 0 0 1 .244 0zM59.1 263.06l-21.276-12.367-21.277 12.366 21.277 12.365L59.1 263.06z"/><path fill-rule="evenodd" clip-rule="evenodd" fill="#DEDFE0" d="M16.188 237.56l21.757 12.644a.24.24 0 0 1-.002.42L16.187 263.27a.24.24 0 0 1-.245-.002l-12.303-7.15c-1.354-.785-2.324-1.727-2.92-2.754a5.13 5.13 0 0 1-.716-2.74c.025-.94.31-1.895.85-2.826.822-1.41 2.23-2.766 4.212-3.917l10.88-6.32a.23.23 0 0 1 .244 0zm21.153 12.854L16.066 238.05 5.307 244.3c-1.905 1.108-3.255 2.4-4.035 3.74-.5.86-.763 1.738-.786 2.596a4.64 4.64 0 0 0 .65 2.484c.555.955 1.467 1.835 2.743 2.578l12.183 7.08 21.277-12.364z"/><path fill-rule="evenodd" clip-rule="evenodd" fill="#DEDFE0" d="M.965 250.625a.242.242 0 0 1-.483 0L.53 145.36c0-.503-.005-1-.008-1.492-.052-6.59-.093-11.91 9.84-17.7l6.012-3.506 130.16-75.875 10.846-6.323c3.02-1.76 6.997-2.642 10.967-2.642 3.972 0 7.947.88 10.968 2.642l10.847 6.323 130.158 75.875 7.733 4.508c3.337 1.945 5.385 4.046 6.597 6.533 1.21 2.482 1.585 5.335 1.584 8.796l-.023 107.356a.24.24 0 0 1-.24.242.24.24 0 0 1-.24-.243l.025-107.358c0-3.392-.36-6.18-1.537-8.584-1.17-2.4-3.156-4.433-6.406-6.326l-7.73-4.508-130.16-75.877-10.85-6.323c-2.942-1.716-6.83-2.574-10.724-2.574-3.892 0-7.78.857-10.725 2.573L146.778 47.2 16.62 123.078l-6.014 3.506c-9.69 5.647-9.65 10.843-9.6 17.277.005.49.01.99.01 1.497l-.052 105.27z"/><path fill-rule="evenodd" clip-rule="evenodd" fill="#DEDFE0" d="M168.568 38.337c0-.134.108-.243.243-.243s.245.11.245.243v114.36c0 .133-.11.242-.243.242a.243.243 0 0 1-.242-.245V38.335zM191.097 163.422l21.757 12.644a.246.246 0 0 1 .09.332.267.267 0 0 1-.092.088l-21.758 12.645a.235.235 0 0 1-.245 0l-21.76-12.644a.24.24 0 0 1-.087-.33.236.236 0 0 1 .09-.09l21.757-12.645a.245.245 0 0 1 .247.003zm21.153 12.854l-21.277-12.366-21.277 12.366 21.277 12.365 21.277-12.363z"/><path fill-rule="evenodd" clip-rule="evenodd" fill="#DEDFE0" d="M212.856 176.067l21.757 12.645a.243.243 0 0 1 0 .42l-21.76 12.646a.25.25 0 0 1-.244 0l-21.76-12.647a.24.24 0 0 1-.087-.33.238.238 0 0 1 .088-.09l21.76-12.643a.242.242 0 0 1 .245 0zm21.152 12.854l-21.276-12.364-21.277 12.366 21.277 12.366 21.276-12.365z"/><path fill-rule="evenodd" clip-rule="evenodd" fill="#DEDFE0" d="M234.616 188.713l21.757 12.644a.242.242 0 0 1-.002.42l-21.756 12.646a.244.244 0 0 1-.245 0l-21.758-12.645a.243.243 0 0 1-.086-.332.238.238 0 0 1 .088-.09l21.758-12.645a.25.25 0 0 1 .246.004zm21.153 12.854l-21.28-12.365-21.275 12.365 21.276 12.367 21.278-12.367zM169.337 176.067l21.757 12.645a.245.245 0 0 1 .09.33.23.23 0 0 1-.09.09l-21.76 12.646a.25.25 0 0 1-.244 0l-21.757-12.647a.24.24 0 0 1-.088-.33.223.223 0 0 1 .09-.09l21.757-12.643a.244.244 0 0 1 .245 0zm21.154 12.854l-21.274-12.364-21.278 12.366 21.278 12.366 21.276-12.365z"/><path fill-rule="evenodd" clip-rule="evenodd" fill="#DEDFE0" d="M191.097 188.713l21.757 12.644a.245.245 0 0 1 .09.33.24.24 0 0 1-.092.09l-21.758 12.646a.244.244 0 0 1-.245 0l-21.76-12.645a.243.243 0 0 1 .003-.422l21.757-12.645a.252.252 0 0 1 .247.004zm21.153 12.854l-21.277-12.365-21.277 12.365 21.277 12.367 21.277-12.367z"/><path fill-rule="evenodd" clip-rule="evenodd" fill="#DEDFE0" d="M212.856 201.36l21.757 12.645a.243.243 0 0 1 .09.33.217.217 0 0 1-.09.088l-21.76 12.647a.242.242 0 0 1-.244 0l-21.76-12.647a.24.24 0 0 1-.087-.33c.02-.04.054-.07.088-.09l21.76-12.645a.25.25 0 0 1 .245 0zm21.152 12.853l-21.276-12.366-21.277 12.366 21.277 12.365 21.276-12.365z"/><path fill-rule="evenodd" clip-rule="evenodd" fill="#DEDFE0" d="M191.097 214.005l21.757 12.645a.244.244 0 0 1 .09.33.24.24 0 0 1-.092.09l-21.758 12.645a.24.24 0 0 1-.245-.002l-21.76-12.643a.243.243 0 0 1 .002-.422l21.757-12.644a.248.248 0 0 1 .246 0zm21.153 12.854l-21.277-12.367-21.277 12.365 21.277 12.365 21.277-12.366z"/><path fill-rule="evenodd" clip-rule="evenodd" fill="#DEDFE0" d="M169.337 201.36l21.757 12.645a.245.245 0 0 1 .09.33.212.212 0 0 1-.09.088l-21.76 12.647a.242.242 0 0 1-.244 0l-21.757-12.647a.24.24 0 0 1-.088-.33.21.21 0 0 1 .09-.09l21.757-12.645a.25.25 0 0 1 .245 0zm21.154 12.853l-21.274-12.366-21.278 12.366 21.278 12.365 21.276-12.365z"/><path fill-rule="evenodd" clip-rule="evenodd" fill="#DEDFE0" d="M147.578 188.713l21.757 12.644a.242.242 0 0 1-.002.42l-21.757 12.646a.244.244 0 0 1-.245 0l-21.756-12.645a.243.243 0 0 1 .002-.422l21.758-12.645a.25.25 0 0 1 .245.004zm21.153 12.854l-21.275-12.365-21.277 12.365 21.277 12.367 21.277-12.367zM169.337 226.65l21.757 12.646a.247.247 0 0 1 .09.332.25.25 0 0 1-.09.087l-21.76 12.646a.237.237 0 0 1-.244 0l-21.757-12.645a.24.24 0 0 1-.088-.33c.02-.04.053-.07.09-.088l21.757-12.646a.244.244 0 0 1 .245 0zm21.154 12.855l-21.274-12.365-21.278 12.365 21.278 12.365 21.276-12.365z"/><path fill-rule="evenodd" clip-rule="evenodd" fill="#DEDFE0" d="M147.578 214.005l21.757 12.645a.242.242 0 0 1-.002.42l-21.757 12.645a.24.24 0 0 1-.245-.002l-21.756-12.643a.243.243 0 0 1 .002-.422l21.758-12.644a.244.244 0 0 1 .245 0zm21.153 12.854l-21.275-12.367-21.277 12.365 21.277 12.365 21.277-12.366z"/><path fill-rule="evenodd" clip-rule="evenodd" fill="#DEDFE0" d="M125.818 201.36l21.758 12.645a.24.24 0 0 1 .088.33.206.206 0 0 1-.09.088l-21.757 12.647a.246.246 0 0 1-.246 0l-21.755-12.647a.24.24 0 0 1-.088-.33.223.223 0 0 1 .09-.09l21.757-12.645a.25.25 0 0 1 .245 0zm21.154 12.853l-21.277-12.366-21.277 12.366 21.277 12.365 21.277-12.365zM256.375 201.36l21.757 12.645a.24.24 0 0 1-.002.418l-21.758 12.647a.244.244 0 0 1-.245 0l-21.758-12.647a.24.24 0 0 1-.09-.33c.02-.04.055-.07.09-.09l21.757-12.645a.255.255 0 0 1 .247 0zm21.153 12.853l-21.277-12.366-21.273 12.366 21.275 12.365 21.278-12.365z"/><path fill-rule="evenodd" clip-rule="evenodd" fill="#DEDFE0" d="M278.134 214.005l21.757 12.645a.24.24 0 0 1 0 .42l-21.757 12.645a.24.24 0 0 1-.245-.002l-21.76-12.643a.245.245 0 0 1 .003-.422l21.76-12.644a.242.242 0 0 1 .245 0zm21.154 12.854l-21.276-12.367-21.278 12.365 21.278 12.365 21.276-12.366z"/><path fill-rule="evenodd" clip-rule="evenodd" fill="#DEDFE0" d="M234.616 214.005l21.757 12.645a.242.242 0 0 1-.002.42l-21.756 12.645a.24.24 0 0 1-.245-.002l-21.76-12.643a.244.244 0 0 1-.086-.332.238.238 0 0 1 .088-.09l21.758-12.644a.246.246 0 0 1 .246 0zm21.153 12.854l-21.28-12.367-21.275 12.365 21.276 12.365 21.278-12.366z"/><path fill-rule="evenodd" clip-rule="evenodd" fill="#DEDFE0" d="M212.856 226.65l21.757 12.646a.245.245 0 0 1 .09.332.258.258 0 0 1-.09.087l-21.76 12.646a.237.237 0 0 1-.244 0l-21.76-12.645a.24.24 0 0 1-.087-.33c.02-.04.054-.07.088-.088l21.76-12.646a.242.242 0 0 1 .245 0zm21.152 12.855l-21.276-12.365-21.277 12.365 21.277 12.365 21.276-12.365z"/><path fill-rule="evenodd" clip-rule="evenodd" fill="#DEDFE0" d="M191.097 239.297l21.757 12.645a.244.244 0 0 1 .09.33.24.24 0 0 1-.092.09l-21.758 12.645a.244.244 0 0 1-.245 0l-21.76-12.647a.24.24 0 0 1-.088-.33.26.26 0 0 1 .09-.09l21.757-12.644a.248.248 0 0 1 .246 0zm21.153 12.855l-21.277-12.365-21.277 12.365 21.277 12.365 21.277-12.365z"/><path fill-rule="evenodd" clip-rule="evenodd" fill="#DEDFE0" d="M169.337 251.942l21.757 12.646a.245.245 0 0 1 .09.33.23.23 0 0 1-.09.088l-21.76 12.646a.237.237 0 0 1-.244-.002l-21.757-12.645a.24.24 0 0 1 .002-.42l21.757-12.645a.25.25 0 0 1 .245.002zm21.154 12.855l-21.274-12.365-21.278 12.365 21.278 12.366 21.276-12.366z"/><path fill-rule="evenodd" clip-rule="evenodd" fill="#DEDFE0" d="M191.097 264.59l21.757 12.643a.245.245 0 0 1 .09.33.24.24 0 0 1-.092.09L191.094 290.3a.244.244 0 0 1-.245 0l-21.76-12.647a.24.24 0 0 1-.087-.33.223.223 0 0 1 .09-.09l21.757-12.645a.245.245 0 0 1 .247 0zm21.153 12.854l-21.277-12.367-21.277 12.367 21.277 12.365 21.277-12.367z"/><path fill-rule="evenodd" clip-rule="evenodd" fill="#DEDFE0" d="M147.578 264.59l21.757 12.643a.242.242 0 0 1-.002.42L147.576 290.3a.244.244 0 0 1-.245 0l-21.756-12.647a.24.24 0 0 1 .002-.42l21.758-12.645a.24.24 0 0 1 .245 0zm21.153 12.854l-21.275-12.367-21.277 12.367 21.277 12.365 21.277-12.367z"/><path fill-rule="evenodd" clip-rule="evenodd" fill="#DEDFE0" d="M169.337 277.235l21.757 12.645a.245.245 0 0 1 .09.33.23.23 0 0 1-.09.09l-21.76 12.645a.237.237 0 0 1-.244 0L147.333 290.3a.24.24 0 0 1-.088-.33.21.21 0 0 1 .09-.09l21.757-12.648a.24.24 0 0 1 .245.002zm21.154 12.854l-21.274-12.367-21.278 12.365 21.278 12.364 21.276-12.365zM104.06 214.005l21.757 12.645a.24.24 0 0 1 .088.33.223.223 0 0 1-.09.09l-21.758 12.645a.24.24 0 0 1-.245-.002L82.054 227.07a.245.245 0 0 1 .002-.422l21.757-12.644a.246.246 0 0 1 .246 0zm21.153 12.854l-21.278-12.367-21.277 12.365 21.277 12.365 21.278-12.366z"/><path fill-rule="evenodd" clip-rule="evenodd" fill="#DEDFE0" d="M125.818 226.65l21.758 12.646a.242.242 0 0 1 .088.332.242.242 0 0 1-.09.087l-21.757 12.646a.24.24 0 0 1-.246 0l-21.755-12.645a.24.24 0 0 1-.088-.33.206.206 0 0 1 .09-.088l21.757-12.646a.244.244 0 0 1 .245 0zm21.154 12.855l-21.277-12.365-21.277 12.365 21.277 12.365 21.277-12.365z"/><path fill-rule="evenodd" clip-rule="evenodd" fill="#DEDFE0" d="M147.578 239.297l21.757 12.645a.242.242 0 0 1-.002.42l-21.757 12.645a.244.244 0 0 1-.245 0l-21.756-12.646a.24.24 0 0 1-.088-.33.267.267 0 0 1 .09-.09l21.758-12.643a.244.244 0 0 1 .245 0zm21.153 12.855l-21.275-12.365-21.277 12.365 21.277 12.365 21.277-12.365zM82.3 226.65l21.757 12.646a.244.244 0 0 1 .09.332.267.267 0 0 1-.09.087l-21.76 12.646a.237.237 0 0 1-.244 0l-21.758-12.645a.24.24 0 0 1 .002-.418l21.757-12.646a.246.246 0 0 1 .246 0zm21.153 12.855L82.176 227.14 60.9 239.505l21.276 12.365 21.277-12.365z"/><path fill-rule="evenodd" clip-rule="evenodd" fill="#DEDFE0" d="M104.06 239.297l21.757 12.645a.24.24 0 0 1 .088.33.223.223 0 0 1-.09.09l-21.758 12.645a.244.244 0 0 1-.245 0L82.054 252.36a.242.242 0 0 1 .002-.42l21.757-12.644a.246.246 0 0 1 .246 0zm21.153 12.855l-21.278-12.365-21.277 12.365 21.277 12.365 21.278-12.365z"/><path fill-rule="evenodd" clip-rule="evenodd" fill="#DEDFE0" d="M125.818 251.942l21.758 12.646a.24.24 0 0 1-.002.418l-21.757 12.646a.24.24 0 0 1-.246-.002l-21.755-12.645a.243.243 0 0 1 .002-.42l21.757-12.645a.25.25 0 0 1 .245.002zm21.154 12.855l-21.277-12.365-21.277 12.365 21.277 12.366 21.277-12.366z"/><path fill-rule="evenodd" clip-rule="evenodd" fill="#DEDFE0" d="M104.06 264.59l21.757 12.643a.24.24 0 0 1-.002.42L104.057 290.3a.244.244 0 0 1-.245 0l-21.758-12.647a.243.243 0 0 1 .002-.42l21.757-12.645a.243.243 0 0 1 .246 0zm21.153 12.854l-21.278-12.367-21.277 12.367 21.277 12.365 21.278-12.367z"/><path fill-rule="evenodd" clip-rule="evenodd" fill="#DEDFE0" d="M82.3 251.942l21.757 12.646a.242.242 0 0 1 .09.33.244.244 0 0 1-.09.088l-21.76 12.646a.237.237 0 0 1-.244-.002l-21.758-12.645a.243.243 0 0 1-.088-.332.27.27 0 0 1 .09-.088l21.757-12.645a.25.25 0 0 1 .246.002zm21.153 12.855l-21.277-12.365L60.9 264.797l21.276 12.366 21.277-12.366z"/><path fill-rule="evenodd" clip-rule="evenodd" fill="#FFF" d="M48.612 267.072h-.01v9.393c.008 3.207 1.93 6.27 5.842 8.55l70.44 41.06c8.63 5.03 23.803 4.417 33.72-1.364l138.438-80.696c5.618-3.273 8.39-7.53 8.17-11.52v-8.887c.182-3.372-1.73-6.62-5.827-9.01l-70.442-41.06c-8.628-5.03-23.802-4.416-33.717 1.366L56.786 255.6c-5.596 3.26-8.368 7.496-8.174 11.473z"/><path fill-rule="evenodd" clip-rule="evenodd" fill="#A7A9AC" d="M46.88 267.072c0-.056.004-.112.01-.167-.057-2.333.724-4.707 2.32-6.947 1.507-2.116 3.753-4.12 6.714-5.846l138.44-80.697c5.2-3.03 11.758-4.707 18.135-4.965 6.42-.26 12.704.92 17.302 3.6l70.442 41.06c2.25 1.312 3.927 2.88 5.04 4.6 1.185 1.83 1.73 3.818 1.647 5.85.003.015.003.03.003.046v8.886h-.003c.108 2.393-.663 4.836-2.296 7.14-1.507 2.123-3.76 4.134-6.732 5.866l-138.44 80.7c-5.198 3.028-11.757 4.705-18.134 4.964-6.42.26-12.705-.92-17.305-3.6L53.583 286.5c-2.148-1.252-3.775-2.735-4.887-4.362-1.205-1.763-1.804-3.688-1.81-5.673h-.006v-9.393zm3.443.14v9.252h-.007c.004 1.282.407 2.55 1.217 3.736.83 1.214 2.083 2.344 3.77 3.327l70.44 41.06c4.03 2.35 9.647 3.378 15.45 3.144 5.845-.234 11.832-1.756 16.55-4.506l138.437-80.698c2.536-1.477 4.425-3.15 5.655-4.886 1.193-1.682 1.752-3.412 1.662-5.056l-.002-.094h-.005v-8.886c0-.068.005-.136.012-.202.047-1.32-.316-2.617-1.095-3.825-.826-1.275-2.117-2.466-3.885-3.495l-70.44-41.06c-4.03-2.35-9.647-3.38-15.45-3.145-5.845.237-11.83 1.758-16.547 4.51L57.645 257.08c-2.525 1.472-4.408 3.136-5.64 4.864-1.194 1.68-1.76 3.403-1.68 5.043.006.076.005.15-.002.222z"/><path fill-rule="evenodd" clip-rule="evenodd" fill="#FFF" d="M54.215 267.072h-5.613v9.393c.01 3.207 1.932 6.27 5.843 8.55l70.44 41.06c8.63 5.03 23.803 4.417 33.72-1.364l138.438-80.696c5.618-3.273 8.39-7.53 8.17-11.52v-9.416h-8.027L228.944 183.3c-8.628-5.03-23.802-4.418-33.717 1.363L56.787 265.36a24.33 24.33 0 0 0-2.572 1.712z"/><path fill-rule="evenodd" clip-rule="evenodd" fill="#A7A9AC" d="M54.215 267.315h-5.37v9.15c.004 1.583.492 3.134 1.47 4.566.95 1.393 2.365 2.675 4.25 3.775l70.44 41.06c4.275 2.49 10.178 3.585 16.247 3.34 6.074-.247 12.305-1.834 17.23-4.703l138.438-80.7c2.724-1.584 4.77-3.403 6.118-5.307 1.39-1.96 2.04-4.012 1.932-5.99v-.013h-.002v-9.174h-7.784a.256.256 0 0 1-.137-.04l-68.228-39.77c-4.274-2.492-10.18-3.586-16.246-3.34-6.075.246-12.306 1.834-17.23 4.704L56.907 265.568c-.46.27-.9.544-1.324.826a21.28 21.28 0 0 0-1.22.872.258.258 0 0 1-.148.05zm-5.613-.486h5.532c.376-.286.77-.565 1.18-.84.43-.288.88-.566 1.35-.84l138.44-80.7c4.992-2.91 11.305-4.52 17.454-4.77 6.154-.246 12.153.867 16.508 3.405l68.184 39.745h7.964c.135 0 .242.11.242.245v9.415c.11 2.084-.57 4.234-2.022 6.284-1.388 1.957-3.483 3.823-6.27 5.447l-138.438 80.7c-4.993 2.91-11.306 4.52-17.455 4.77-6.153.247-12.15-.867-16.505-3.405l-70.44-41.06c-1.95-1.14-3.417-2.47-4.408-3.92-1.035-1.515-1.55-3.157-1.555-4.84v-9.393a.24.24 0 0 1 .242-.24z"/><path fill-rule="evenodd" clip-rule="evenodd" fill="#FFF" d="M124.885 316.313l-70.44-41.06c-8.63-5.03-7.576-13.875 2.34-19.656l138.44-80.696c9.916-5.78 25.09-6.393 33.72-1.363l70.44 41.06c8.627 5.03 7.574 13.873-2.343 19.654l-138.438 80.7c-9.916 5.78-25.09 6.394-33.72 1.364z"/><path fill-rule="evenodd" clip-rule="evenodd" fill="#A7A9AC" d="M124.763 316.523l-70.44-41.06c-2.213-1.29-3.803-2.833-4.782-4.512-.83-1.42-1.22-2.94-1.176-4.493.042-1.548.512-3.12 1.405-4.65 1.345-2.312 3.654-4.528 6.894-6.418l138.44-80.7c4.993-2.91 11.306-4.52 17.455-4.767 6.153-.25 12.152.865 16.507 3.403l70.44 41.06c2.213 1.29 3.803 2.832 4.78 4.512.83 1.422 1.22 2.944 1.18 4.494-.043 1.55-.514 3.122-1.405 4.654-1.345 2.31-3.654 4.527-6.896 6.416l-138.44 80.698c-4.99 2.91-11.304 4.52-17.453 4.77-6.154.248-12.152-.867-16.507-3.405zm-70.198-41.48l70.44 41.06c4.275 2.492 10.178 3.585 16.247 3.34 6.074-.245 12.305-1.834 17.23-4.704l138.438-80.7c3.166-1.845 5.415-4 6.72-6.24.852-1.46 1.3-2.955 1.34-4.42.04-1.46-.33-2.896-1.113-4.24-.938-1.607-2.467-3.09-4.604-4.335l-70.44-41.06c-4.274-2.49-10.178-3.584-16.246-3.34-6.075.247-12.306 1.835-17.23 4.706l-138.44 80.697c-3.166 1.846-5.415 4-6.72 6.24-.85 1.46-1.3 2.956-1.34 4.42-.04 1.46.33 2.897 1.114 4.242.938 1.605 2.47 3.087 4.606 4.332z"/><path fill-rule="evenodd" clip-rule="evenodd" fill="#D4D8D9" d="M127.566 311.71c7.614 4.44 20.903 2.98 28.356-1.363l138.44-80.696c2.016-1.174 5.807-3.987 5.524-6.75-.165-1.626-1.896-2.952-3.184-3.702l-70.442-41.06c-7.613-4.44-20.9-2.98-28.354 1.362l-138.44 80.7c-2.015 1.174-5.808 3.987-5.525 6.75.168 1.625 1.898 2.95 3.187 3.702l70.44 41.06z"/><path fill-rule="evenodd" clip-rule="evenodd" fill="#A7A9AC" d="M127.688 311.502c3.588 2.093 8.462 2.86 13.383 2.62 5.41-.258 10.865-1.73 14.73-3.984l138.44-80.697c1.18-.684 2.97-1.937 4.175-3.407.803-.982 1.34-2.058 1.233-3.108-.065-.638-.4-1.232-.854-1.76-.63-.734-1.492-1.337-2.212-1.757l-70.44-41.06c-3.588-2.093-8.462-2.86-13.382-2.622-5.406.26-10.863 1.73-14.73 3.985L59.59 260.41c-1.176.686-2.97 1.94-4.172 3.41-.804.98-1.34 2.056-1.233 3.106.064.64.398 1.233.853 1.762.63.732 1.492 1.336 2.213 1.755l70.44 41.063zm13.406 3.105c-5.007.24-9.975-.545-13.648-2.684l-70.44-41.062c-.758-.44-1.666-1.076-2.338-1.857-.513-.6-.89-1.278-.968-2.026-.122-1.2.463-2.394 1.34-3.466 1.247-1.52 3.093-2.813 4.306-3.52l138.44-80.7c3.93-2.29 9.467-3.784 14.95-4.05 5.006-.24 9.975.546 13.647 2.687l70.44 41.06c.758.442 1.664 1.08 2.337 1.86.515.598.892 1.28.968 2.028v.002c.123 1.197-.46 2.39-1.34 3.46-1.247 1.523-3.094 2.818-4.305 3.524l-138.44 80.698c-3.93 2.29-9.467 3.787-14.95 4.05z"/><path fill-rule="evenodd" clip-rule="evenodd" fill="#E5E6E5" d="M127.566 311.71c7.614 4.44 20.903 2.98 28.356-1.363l138.276-80.602-67.938-39.6c-7.613-4.438-20.9-2.98-28.354 1.363L59.63 272.112l67.936 39.6z"/><path fill-rule="evenodd" clip-rule="evenodd" fill="#A7A9AC" d="M127.688 311.502c3.588 2.093 8.462 2.86 13.383 2.62 5.41-.258 10.865-1.73 14.73-3.984l137.918-80.393-67.576-39.39c-3.587-2.093-8.46-2.857-13.38-2.622-5.407.262-10.864 1.732-14.73 3.984L60.11 272.112l67.578 39.39zm13.406 3.105c-5.007.24-9.975-.545-13.648-2.684l-67.936-39.6a.242.242 0 0 1 0-.42L197.786 191.3c3.93-2.29 9.467-3.787 14.95-4.05 5.006-.24 9.975.544 13.647 2.686l67.935 39.6a.24.24 0 0 1 0 .418L156.044 310.56c-3.93 2.288-9.467 3.784-14.95 4.047z"/><path fill-rule="evenodd" clip-rule="evenodd" fill="#FFF" d="M304.73 203.475c-.186 3.726-2.937 7.604-8.14 10.64L158.698 294.49c-9.876 5.758-24.99 6.37-33.584 1.36l-70.16-40.896c-3.675-2.142-5.585-4.978-5.798-7.973h-.02v-5.153c-.06-3.883 2.702-7.986 8.15-11.16l137.89-80.377c9.877-5.758 24.99-6.37 33.584-1.36l70.16 40.896c4.058 2.366 5.965 5.577 5.81 8.916v3.95c.013.252.012.506 0 .762v.023z"/><path fill-rule="evenodd" clip-rule="evenodd" fill="#00C0E5" d="M303.007 203.502v-.027c0-.062.004-.123.01-.184v-.43a1.916 1.916 0 0 1-.008-.17v-3.95h.003c0-.025 0-.05.002-.075.062-1.345-.303-2.67-1.105-3.9-.82-1.26-2.1-2.435-3.85-3.453l-70.16-40.9c-4.014-2.337-9.605-3.362-15.384-3.13-5.82.237-11.783 1.752-16.48 4.49L58.146 232.15c-2.462 1.435-4.31 3.052-5.534 4.727-1.16 1.587-1.75 3.223-1.76 4.79.004.052.006.104.006.158v4.907c.005.044.01.088.013.13.088 1.203.53 2.387 1.334 3.495.824 1.132 2.025 2.187 3.61 3.113l70.162 40.896c4.013 2.34 9.606 3.364 15.383 3.13 5.82-.235 11.782-1.75 16.48-4.488l137.89-80.377c2.35-1.37 4.142-2.91 5.366-4.512 1.17-1.53 1.813-3.1 1.912-4.615zm3.426.222c-.145 2.194-1.02 4.402-2.607 6.478-1.492 1.95-3.623 3.794-6.375 5.4l-137.89 80.375c-5.18 3.02-11.713 4.688-18.065 4.945-6.397.26-12.658-.915-17.24-3.587L54.092 256.44c-2.02-1.178-3.574-2.56-4.673-4.068-1.125-1.545-1.773-3.22-1.953-4.957a1.773 1.773 0 0 1-.054-.434v-5.153c0-.054.003-.105.007-.158.008-2.29.82-4.617 2.42-6.808 1.504-2.06 3.705-4.005 6.584-5.682l137.89-80.377c5.18-3.02 11.714-4.688 18.067-4.945 6.398-.26 12.66.915 17.24 3.586l70.16 40.9c2.23 1.298 3.897 2.85 5.007 4.556 1.19 1.825 1.74 3.812 1.66 5.844h.004v4c.007.15.01.26.01.327 0 .073-.004.2-.012.386h.003v.023a1.39 1.39 0 0 1-.016.25z"/><path fill-rule="evenodd" clip-rule="evenodd" fill="#FFF" d="M304.73 203.475c-.186 3.726-2.937 7.604-8.14 10.64L158.698 294.49c-9.876 5.758-24.99 6.37-33.584 1.36l-70.16-40.896c-3.675-2.142-5.585-4.978-5.798-7.973h-.02v-5.153h1.286c1.307-2.317 3.604-4.548 6.863-6.448L195.175 155c9.878-5.758 24.99-6.37 33.585-1.36l70.16 40.897c1.89 1.102 3.313 2.386 4.277 3.78h1.532v4.373c.01.252.01.506 0 .762v.023zM106.63 271.8c7.043 0 12.75-3.128 12.75-6.984 0-3.858-5.707-6.986-12.75-6.986s-12.75 3.128-12.75 6.986c0 3.856 5.71 6.983 12.75 6.983z"/><path fill-rule="evenodd" clip-rule="evenodd" fill="#00C0E5" d="M304.487 203.48v-.005c0-.012 0-.022.002-.033a10.708 10.708 0 0 0 0-.722l-.003-.03v-4.13h-1.29a.24.24 0 0 1-.198-.104 11.005 11.005 0 0 0-1.78-1.98 15.11 15.11 0 0 0-2.42-1.73l-70.16-40.897c-4.258-2.483-10.138-3.57-16.18-3.328-6.05.245-12.26 1.826-17.164 4.685l-137.89 80.378c-1.586.923-2.94 1.927-4.062 2.98-1.148 1.08-2.05 2.207-2.7 3.355a.24.24 0 0 1-.222.146H49.38v4.818c.01.022.017.05.02.078.104 1.48.638 2.922 1.608 4.257.942 1.293 2.295 2.49 4.067 3.52l70.16 40.898c4.26 2.48 10.138 3.568 16.182 3.324 6.05-.245 12.257-1.825 17.162-4.685L296.47 213.9c2.522-1.47 4.46-3.14 5.8-4.893 1.378-1.8 2.122-3.686 2.217-5.53zm.482.04c-.106 1.938-.884 3.912-2.317 5.788-1.377 1.8-3.363 3.512-5.943 5.016L158.82 294.7c-4.972 2.9-11.26 4.503-17.385 4.75-6.13.25-12.104-.86-16.442-3.39l-70.16-40.897c-1.834-1.068-3.237-2.31-4.218-3.657-1.003-1.38-1.565-2.873-1.693-4.408a.225.225 0 0 1-.03-.116v-5.156c0-.135.11-.243.243-.243h1.147c.67-1.157 1.583-2.288 2.73-3.367 1.146-1.078 2.53-2.104 4.15-3.048l137.89-80.377c4.974-2.896 11.262-4.5 17.387-4.75 6.13-.246 12.102.864 16.44 3.39l70.16 40.9c.946.552 1.78 1.15 2.5 1.785a11.53 11.53 0 0 1 1.78 1.962h1.407c.134 0 .243.11.243.243v4.38a6.85 6.85 0 0 1 0 .753v.023a.13.13 0 0 1 0 .044zm-198.34 68.038c-3.48 0-6.627-.772-8.9-2.017-2.23-1.22-3.607-2.89-3.607-4.724s1.378-3.505 3.608-4.728c2.273-1.245 5.42-2.015 8.9-2.015 3.474 0 6.614.768 8.886 2.007l.012.007c2.23 1.223 3.607 2.894 3.607 4.728s-1.378 3.505-3.607 4.726c-2.273 1.247-5.418 2.02-8.9 2.02zm9.132-1.59c-2.342 1.28-5.57 2.074-9.13 2.074-3.563 0-6.79-.793-9.132-2.075-2.386-1.308-3.86-3.127-3.86-5.15s1.475-3.846 3.86-5.154c2.342-1.28 5.57-2.076 9.132-2.076 3.554 0 6.777.793 9.118 2.07l.014.006c2.386 1.308 3.86 3.13 3.86 5.153s-1.476 3.844-3.86 5.15z"/><path fill-rule="evenodd" clip-rule="evenodd" fill="#FFF" d="M125.114 291.137l-70.16-40.896c-8.596-5.01-7.546-13.82 2.33-19.574l137.89-80.377c9.88-5.76 24.992-6.37 33.586-1.36l70.16 40.895c8.596 5.01 7.547 13.82-2.33 19.578L158.698 289.78c-9.876 5.756-24.99 6.367-33.584 1.357z"/><path fill-rule="evenodd" clip-rule="evenodd" fill="#00C0E5" d="M124.993 291.348l-70.16-40.897c-2.206-1.283-3.79-2.82-4.763-4.49-.827-1.42-1.215-2.935-1.174-4.478.042-1.54.51-3.108 1.4-4.634 1.34-2.302 3.64-4.51 6.868-6.392l137.89-80.378c4.974-2.898 11.262-4.5 17.387-4.75 6.133-.248 12.106.862 16.443 3.39l70.16 40.898c2.206 1.285 3.788 2.82 4.764 4.492.828 1.42 1.216 2.933 1.174 4.48-.04 1.54-.51 3.107-1.4 4.63-1.34 2.303-3.64 4.514-6.867 6.394l-137.89 80.378c-4.973 2.898-11.26 4.502-17.386 4.75-6.132.248-12.105-.86-16.443-3.39zM55.075 250.03l70.16 40.898c4.26 2.48 10.138 3.57 16.182 3.327 6.05-.245 12.257-1.827 17.162-4.686l137.89-80.38c3.15-1.837 5.392-3.986 6.69-6.216.85-1.454 1.296-2.944 1.336-4.402.038-1.454-.33-2.884-1.108-4.223-.936-1.603-2.46-3.077-4.59-4.318l-70.16-40.896c-4.256-2.48-10.136-3.57-16.18-3.327-6.05.244-12.258 1.827-17.162 4.684l-137.89 80.38c-3.153 1.836-5.393 3.984-6.692 6.213-.848 1.455-1.296 2.945-1.335 4.403-.04 1.456.33 2.884 1.11 4.224.93 1.6 2.454 3.076 4.584 4.316z"/><path fill-rule="evenodd" clip-rule="evenodd" fill="#A7A9AC" d="M207.108 219.614c8.368 0 15.937-1.985 21.412-5.197 5.436-3.188 8.8-7.58 8.8-12.422s-3.364-9.234-8.8-12.422c-5.476-3.21-13.044-5.197-21.412-5.197s-15.937 1.986-21.412 5.197c-5.437 3.188-8.8 7.58-8.8 12.422s3.363 9.233 8.8 12.422c5.475 3.21 13.044 5.197 21.412 5.197zm21.657-4.78c-5.55 3.253-13.204 5.265-21.657 5.265s-16.11-2.014-21.657-5.267c-5.584-3.276-9.04-7.815-9.04-12.84s3.456-9.562 9.04-12.84c5.55-3.253 13.206-5.267 21.66-5.267s16.107 2.014 21.656 5.267c5.585 3.277 9.04 7.815 9.04 12.84s-3.455 9.564-9.04 12.84z"/><path fill-rule="evenodd" clip-rule="evenodd" fill="#FFF" d="M277.152 147.75c.932 4.175-1.803 8.848-7.99 12.366l-44.2 25.135c-9.82 5.585-24.758 6.227-33.196 1.43l-49.224-27.99c-4.48-2.55-6.264-6.14-5.48-9.783-.93-4.176 1.805-8.848 7.99-12.366l44.202-25.134c9.82-5.583 24.758-6.226 33.197-1.427l49.225 27.987c4.48 2.55 6.263 6.14 5.478 9.784zm-12.973.327c-.42-.836-1.18-1.605-2.294-2.238l-45.71-25.994c-4.988-2.837-13.82-2.457-19.624.844l-43.04 24.474c-1.75.997-2.918 2.188-3.476 3.408.417.837 1.177 1.606 2.29 2.24l43.948 24.99c5.958 3.387 16.503 2.934 23.434-1.008l40.99-23.31c1.753-.994 2.92-2.186 3.48-3.407z"/><path fill-rule="evenodd" clip-rule="evenodd" fill="#A7A9AC" d="M278.903 147.756c.446 2.47-.135 5.037-1.707 7.472-1.495 2.312-3.9 4.513-7.187 6.38l-44.204 25.134c-5.147 2.928-11.618 4.56-17.895 4.83-6.317.27-12.49-.843-16.994-3.403l-49.222-27.99c-2.483-1.41-4.25-3.138-5.313-5.036-1.103-1.968-1.453-4.096-1.07-6.247-.444-2.47.134-5.037 1.708-7.472 1.494-2.312 3.9-4.513 7.185-6.38l44.2-25.136c5.15-2.928 11.62-4.56 17.897-4.83 6.318-.27 12.49.84 16.995 3.402l49.222 27.99c2.482 1.41 4.25 3.136 5.312 5.034 1.103 1.972 1.453 4.1 1.07 6.25zm-4.598 5.616c1.122-1.74 1.528-3.51 1.194-5.152a1.73 1.73 0 0 1-.03-.827 5.876 5.876 0 0 0-.638-4.202c-.766-1.367-2.097-2.642-4.008-3.73L221.6 111.47c-3.935-2.236-9.45-3.202-15.165-2.956-5.756.247-11.664 1.73-16.336 4.385l-44.2 25.133c-2.786 1.583-4.788 3.39-5.99 5.25-1.124 1.74-1.53 3.513-1.196 5.153.074.26.088.543.028.827a5.89 5.89 0 0 0 .638 4.202c.768 1.37 2.098 2.645 4.01 3.73l49.223 27.99c3.934 2.236 9.45 3.202 15.165 2.957 5.757-.247 11.666-1.728 16.337-4.384l44.2-25.134c2.785-1.582 4.787-3.39 5.99-5.25zm-8.634-4.44a1.72 1.72 0 0 0 .048-1.62 6.3 6.3 0 0 0-1.244-1.677 8.476 8.476 0 0 0-1.74-1.29l-45.71-25.99c-2.77-1.58-6.546-2.266-10.396-2.104l-.03.003c-3.812.163-7.75 1.158-10.89 2.945l-43.04 24.474a12.14 12.14 0 0 0-2.512 1.86c-.703.688-1.24 1.427-1.612 2.19a1.715 1.715 0 0 0-.046 1.618c.294.59.71 1.152 1.244 1.677a8.4 8.4 0 0 0 1.74 1.288l43.95 24.99c3.257 1.854 7.7 2.66 12.24 2.47l.032-.002c4.503-.193 9.15-1.367 12.854-3.474l40.99-23.31a12.22 12.22 0 0 0 2.513-1.86c.7-.685 1.24-1.424 1.61-2.186zm-4.017-.26c.18-.175.338-.35.478-.526-.016-.017-.03-.034-.05-.05a5.05 5.05 0 0 0-1.04-.764l-45.71-25.992c-2.203-1.254-5.32-1.795-8.567-1.66h-.018c-3.3.143-6.68.988-9.343 2.502l-43.038 24.474c-.73.415-1.33.86-1.8 1.32a6.115 6.115 0 0 0-.477.528l.05.05c.276.27.623.527 1.04.764l43.95 24.99c2.687 1.53 6.474 2.19 10.412 2.024h.015c3.993-.173 8.082-1.196 11.31-3.03l40.99-23.31a8.615 8.615 0 0 0 1.8-1.32zM207.108 204.55c2.4 0 4.36-1.147 4.36-2.556 0-1.41-1.96-2.557-4.36-2.557-2.4 0-4.36 1.147-4.36 2.557s1.96 2.556 4.36 2.556z"/><path fill-rule="evenodd" clip-rule="evenodd" fill="#A7A9AC" d="M207.35 201.995c0 .135-.108.242-.242.242s-.243-.107-.243-.242v-82.147c0-.134.11-.244.243-.244s.243.11.243.244v82.147z"/><path fill-rule="evenodd" clip-rule="evenodd" fill="#FFF" d="M222.45 113.25l49.224 27.99c8.438 4.798 7.31 13.292-2.51 18.875L224.96 185.25c-9.82 5.583-24.758 6.225-33.196 1.427l-49.224-27.99c-8.438-4.798-7.308-13.292 2.51-18.875l44.202-25.135c9.82-5.583 24.757-6.225 33.197-1.427zm-6.273 6.597c-4.988-2.837-13.82-2.457-19.624.844l-43.04 24.475c-4.64 2.638-5.174 6.653-1.185 8.92l43.947 24.99c5.958 3.388 16.503 2.935 23.434-1.007l40.99-23.31c4.64-2.638 5.174-6.65 1.186-8.92l-45.71-25.99z"/><path fill-rule="evenodd" clip-rule="evenodd" fill="#A7A9AC" d="M222.57 113.04l49.223 27.99c2.215 1.26 3.785 2.774 4.725 4.427.745 1.308 1.093 2.702 1.054 4.125-.04 1.418-.464 2.86-1.266 4.272-1.323 2.326-3.677 4.57-7.024 6.474l-44.2 25.134c-4.943 2.812-11.174 4.38-17.228 4.638-6.058.26-11.95-.787-16.21-3.21l-49.22-27.99c-2.215-1.26-3.785-2.774-4.726-4.427-.744-1.308-1.092-2.7-1.053-4.124.04-1.42.462-2.863 1.265-4.274 1.323-2.326 3.677-4.57 7.024-6.474l44.202-25.134c4.942-2.812 11.173-4.378 17.227-4.64 6.056-.26 11.948.788 16.207 3.21zm48.982 28.41l-49.222-27.99c-4.18-2.374-9.978-3.404-15.95-3.146-5.98.257-12.13 1.803-17.008 4.575l-44.2 25.133c-3.27 1.86-5.56 4.04-6.84 6.29-.765 1.343-1.168 2.71-1.205 4.046-.036 1.333.29 2.642.992 3.873.895 1.578 2.404 3.03 4.54 4.244l49.223 27.99c4.18 2.376 9.977 3.404 15.95 3.147 5.98-.258 12.13-1.803 17.006-4.575l44.2-25.135c3.27-1.86 5.56-4.04 6.84-6.292.767-1.342 1.17-2.708 1.206-4.047.036-1.333-.293-2.642-.99-3.872-.898-1.578-2.407-3.03-4.545-4.245zm-55.256-21.814c-2.533-1.44-6.032-2.065-9.63-1.91h-.005c-3.59.154-7.29 1.085-10.225 2.754l-43.04 24.474c-1.605.91-2.732 1.988-3.368 3.107-.39.687-.597 1.39-.616 2.08-.02.695.15 1.377.516 2.015.457.8 1.214 1.533 2.28 2.14l43.95 24.99c3.018 1.716 7.19 2.46 11.476 2.277h.006c4.284-.184 8.693-1.293 12.192-3.283l40.99-23.31c1.604-.912 2.73-1.99 3.368-3.107.39-.686.596-1.387.614-2.078a3.81 3.81 0 0 0-.516-2.016c-.454-.8-1.212-1.535-2.28-2.14l-45.708-25.993zm45.47 26.413l-45.71-25.994c-2.452-1.395-5.858-2-9.372-1.848h-.002c-3.52.15-7.142 1.06-10.01 2.69l-43.04 24.474c-1.523.868-2.59 1.88-3.185 2.925-.35.616-.535 1.24-.552 1.852a3.33 3.33 0 0 0 .453 1.762c.41.726 1.11 1.396 2.098 1.958l43.948 24.99c2.94 1.67 7.017 2.394 11.22 2.215h.003c4.21-.183 8.542-1.27 11.972-3.223l40.99-23.307c1.524-.867 2.59-1.88 3.185-2.926.35-.616.535-1.24.55-1.853a3.317 3.317 0 0 0-.45-1.763c-.41-.726-1.11-1.395-2.1-1.958z"/><path fill-rule="evenodd" clip-rule="evenodd" fill="#FFF" d="M222.45 109.978l49.224 27.988c8.438 4.8 7.31 13.294-2.51 18.877l-44.202 25.133c-9.82 5.584-24.758 6.227-33.196 1.43l-49.224-27.992c-8.438-4.797-7.308-13.292 2.51-18.875l44.202-25.137c9.82-5.582 24.757-6.225 33.197-1.426zm-6.273 6.596c-4.988-2.836-13.82-2.456-19.624.844l-43.04 24.473c-4.64 2.64-5.174 6.655-1.185 8.92l43.947 24.99c5.958 3.39 16.503 2.937 23.434-1.005l40.99-23.31c4.64-2.638 5.174-6.65 1.186-8.92l-45.71-25.99z"/><path fill-rule="evenodd" clip-rule="evenodd" fill="#A7A9AC" d="M222.57 109.767l49.223 27.99c2.215 1.26 3.785 2.773 4.725 4.426.745 1.31 1.093 2.702 1.054 4.125-.04 1.418-.464 2.86-1.266 4.272-1.323 2.326-3.677 4.57-7.024 6.474l-44.2 25.134c-4.943 2.812-11.174 4.378-17.228 4.638-6.058.26-11.95-.788-16.21-3.21l-49.22-27.99c-2.215-1.26-3.785-2.774-4.726-4.427-.744-1.31-1.092-2.704-1.053-4.126.04-1.417.462-2.86 1.265-4.273 1.323-2.325 3.677-4.57 7.024-6.473l44.202-25.133c4.942-2.812 11.173-4.378 17.227-4.638 6.056-.26 11.948.788 16.207 3.21zm48.982 28.41l-49.222-27.99c-4.18-2.375-9.978-3.404-15.95-3.146-5.98.26-12.13 1.805-17.008 4.578l-44.2 25.134c-3.27 1.86-5.56 4.04-6.84 6.293-.765 1.34-1.168 2.708-1.205 4.046-.036 1.333.29 2.643.992 3.873.895 1.578 2.404 3.03 4.54 4.245l49.223 27.988c4.18 2.376 9.977 3.405 15.95 3.15 5.98-.26 12.13-1.805 17.006-4.577l44.2-25.135c3.27-1.86 5.56-4.04 6.84-6.292.767-1.342 1.17-2.708 1.206-4.047.036-1.333-.293-2.64-.99-3.872-.898-1.58-2.407-3.03-4.545-4.245zm-55.256-21.813c-2.533-1.44-6.032-2.065-9.63-1.912h-.005c-3.59.155-7.29 1.085-10.225 2.755l-43.04 24.474c-1.605.91-2.732 1.99-3.368 3.11-.39.684-.597 1.386-.616 2.077a3.8 3.8 0 0 0 .516 2.016c.457.8 1.214 1.534 2.28 2.14l43.95 24.99c3.018 1.717 7.19 2.46 11.476 2.277h.006c4.284-.186 8.693-1.295 12.192-3.284l40.99-23.31c1.604-.91 2.73-1.988 3.368-3.106.39-.686.596-1.387.614-2.08a3.81 3.81 0 0 0-.516-2.015c-.454-.8-1.212-1.534-2.28-2.14l-45.708-25.99zm45.47 26.412l-45.71-25.99c-2.452-1.396-5.858-2-9.372-1.85h-.002c-3.52.152-7.142 1.062-10.01 2.692l-43.04 24.474c-1.523.866-2.59 1.88-3.185 2.925-.35.616-.535 1.24-.552 1.852a3.336 3.336 0 0 0 .453 1.762c.41.726 1.11 1.396 2.098 1.958l43.948 24.99c2.94 1.67 7.017 2.395 11.22 2.214h.003c4.21-.18 8.542-1.27 11.972-3.22l40.99-23.31c1.524-.866 2.59-1.88 3.185-2.925.35-.618.535-1.243.55-1.854a3.317 3.317 0 0 0-.45-1.763c-.41-.726-1.11-1.395-2.1-1.958z"/><path fill-rule="evenodd" clip-rule="evenodd" fill="#00799B" d="M218.21 84.22l31.98 18.186c2.13 1.21 3.694 2.767 4.556 4.517h.763v3.648h-.003c.005.38-.02.763-.076 1.15-.4 2.72-2.655 4.766-6.383 6.885l-29.08 16.536c-6.872 3.91-17.326 4.358-23.23 1l-33.083-18.81c-3.143-1.79-4.907-4.23-4.95-6.76v-3.646h.845c.836-1.462 2.31-2.872 4.495-4.113l30.934-17.59c6.87-3.907 17.324-4.356 23.23-1z"/><path fill-rule="evenodd" clip-rule="evenodd" fill="#00C0E5" d="M218.21 80.964l31.98 18.185c3.75 2.13 5.748 5.33 5.24 8.78-.4 2.72-2.655 4.764-6.383 6.883l-29.08 16.538c-6.872 3.908-17.326 4.357-23.23 1l-33.083-18.81c-6.277-3.57-7.05-9.757.39-13.988l30.935-17.59c6.87-3.907 17.324-4.357 23.23-1z"/><path fill-rule="evenodd" clip-rule="evenodd" fill="#FFF" d="M206.865 67.238c0-.135.11-.244.243-.244s.243.11.243.244v38.042a.242.242 0 0 1-.484 0V67.238z"/><path fill-rule="evenodd" clip-rule="evenodd" fill="#FFF" d="M207.108 107.42c2.17 0 3.94-1.04 3.94-2.312 0-1.273-1.77-2.312-3.94-2.312-2.172 0-3.942 1.04-3.942 2.312 0 1.274 1.77 2.312 3.942 2.312z"/><path fill-rule="evenodd" clip-rule="evenodd" fill="#7BB13E" d="M213.96 40.63l19.74 11.225c.934.53 1.69 1.167 2.24 1.878h1.042v3.292c.005.245-.01.493-.046.742-.247 1.68-1.64 2.942-3.94 4.25l-17.95 10.21c-4.242 2.41-10.694 2.688-14.34.616l-20.42-11.612c-1.956-1.11-3.045-2.632-3.056-4.204v-3.292h1.19c.52-.575 1.22-1.124 2.106-1.63l19.094-10.856c4.244-2.413 10.697-2.69 14.34-.617z"/><path fill-rule="evenodd" clip-rule="evenodd" fill="#D0DF54" d="M213.96 37.827l19.74 11.225c2.314 1.316 3.55 3.292 3.236 5.42-.247 1.68-1.64 2.942-3.94 4.25l-17.95 10.207c-4.242 2.41-10.694 2.69-14.34.615l-20.42-11.61c-3.876-2.205-4.354-6.023.24-8.635l19.095-10.856c4.245-2.413 10.698-2.69 14.34-.617z"/><path fill-rule="evenodd" clip-rule="evenodd" fill="#A7A9AC" d="M207.108 0c2.51 0 4.785.6 6.437 1.57 1.69.99 2.737 2.373 2.737 3.91 0 1.54-1.046 2.922-2.737 3.914-1.65.97-3.928 1.568-6.437 1.568-2.51 0-4.785-.6-6.438-1.568-1.69-.992-2.737-2.374-2.737-3.913 0-1.536 1.046-2.92 2.737-3.91C202.323.6 204.598 0 207.108 0zm6.19 1.986c-1.58-.926-3.768-1.5-6.19-1.5-2.424 0-4.613.574-6.192 1.5-1.543.904-2.497 2.14-2.497 3.495s.952 2.593 2.495 3.498c1.58.926 3.77 1.5 6.192 1.5 2.423 0 4.612-.574 6.19-1.5 1.543-.904 2.497-2.14 2.497-3.496s-.954-2.59-2.496-3.494z"/><path fill-rule="evenodd" clip-rule="evenodd" fill="#A7A9AC" d="M207.108 7.114c1.53 0 2.78-.733 2.78-1.632 0-.898-1.25-1.63-2.78-1.63-1.533 0-2.78.732-2.78 1.63 0 .898 1.247 1.632 2.78 1.632z"/><path fill-rule="evenodd" clip-rule="evenodd" fill="#A7A9AC" d="M206.865 5.198c0-.134.11-.244.243-.244s.243.11.243.244v48.53a.242.242 0 0 1-.484 0V5.2z"/><path fill-rule="evenodd" clip-rule="evenodd" fill="#A7A9AC" d="M207.108 55.43c1.758 0 3.193-.842 3.193-1.874 0-1.03-1.434-1.873-3.19-1.873-1.76 0-3.195.842-3.195 1.873 0 1.032 1.435 1.874 3.194 1.874z"/><path fill-rule="evenodd" clip-rule="evenodd" fill="#00C0E5" d="M290.823 197.75c.575.343.575.902 0 1.244l-8.586 5.105c-.575.34-1.517.34-2.092 0-.575-.343-.575-.904 0-1.246l8.586-5.106c.577-.343 1.518-.343 2.094 0zm-14.213-.9c.575.34.575.9 0 1.243l-2.235 1.33c-.575.343-1.52.343-2.093 0-.576-.342-.576-.902 0-1.244l2.235-1.33c.576-.343 1.52-.343 2.093 0zm7.07.427c-.575-.342-1.517-.342-2.092 0l-5.412 3.22c-.575.34-.575.9 0 1.243.577.343 1.52.343 2.093 0l5.41-3.218c.575-.342.575-.902 0-1.245z"/><path fill-rule="evenodd" clip-rule="evenodd" fill="#F8F8F9" d="M123.943 216.74l40.22 23.463v-2.685h24.478v17.76c.077.742-.423 1.54-1.47 2.15l-11.79 6.88c-1.794 1.045-4.537 1.157-6.098.247L96.698 222.21c-.76-.443-1.105-1.053-1.052-1.68V203h28.298v13.74z"/><path fill-rule="evenodd" clip-rule="evenodd" fill="#A7A9AC" d="M124.186 216.6l39.733 23.18v-2.262a.24.24 0 0 1 .242-.24h24.478a.24.24 0 0 1 .245.24v17.76c.036.43-.09.867-.374 1.283-.266.39-.673.764-1.22 1.08l-11.79 6.878-.012.01c-.93.536-2.098.834-3.235.88-1.15.046-2.274-.164-3.094-.644L96.574 222.42l-.014-.01c-.4-.236-.695-.518-.89-.828a1.72 1.72 0 0 1-.267-1.057V203c0-.133.11-.24.243-.24h28.298a.24.24 0 0 1 .243.24v13.6zm39.855 23.813l-40.21-23.46a.238.238 0 0 1-.13-.214v-13.496H95.89v17.306c-.024.27.04.532.193.776s.395.47.728.666l.012.008 72.583 42.344c.74.433 1.77.622 2.83.58 1.063-.044 2.152-.32 3.012-.82l.013-.006 11.79-6.878c.48-.28.837-.6 1.064-.932.22-.32.317-.653.29-.966-.002-.016-.004-.028-.004-.044V237.76h-23.992v2.44c0 .045-.01.086-.033.123a.242.242 0 0 1-.332.09z"/><path fill-rule="evenodd" clip-rule="evenodd" fill="#FFF" d="M115.008 193.55l72.583 42.345c1.564.91 1.373 2.51-.42 3.558l-11.79 6.878c-1.793 1.05-4.537 1.16-6.098.25L96.7 204.233c-1.563-.91-1.37-2.512.42-3.558l11.79-6.88c1.793-1.045 4.538-1.155 6.1-.245z"/><path fill-rule="evenodd" clip-rule="evenodd" fill="#A7A9AC" d="M115.13 193.34l72.583 42.346c.43.25.742.555.936.888.17.29.25.6.24.92-.01.315-.103.634-.28.938-.263.446-.704.872-1.32 1.232l-11.79 6.876c-.93.544-2.103.844-3.25.89-1.147.046-2.27-.164-3.092-.643l-72.584-42.345c-.432-.253-.743-.556-.937-.888a1.7 1.7 0 0 1-.24-.92c.007-.315.102-.634.28-.94.26-.445.702-.87 1.318-1.23l11.79-6.877c.003-.003.01-.006.014-.008.93-.54 2.097-.84 3.234-.885 1.15-.044 2.273.166 3.093.644zm72.34 42.764l-72.584-42.344c-.74-.433-1.77-.622-2.83-.58-1.063.044-2.153.32-3.014.818l-.012.007-11.79 6.878c-.54.315-.922.682-1.142 1.057a1.5 1.5 0 0 0-.217.707c-.004.227.054.45.177.663.153.262.406.506.762.714l72.583 42.345c.74.43 1.77.62 2.83.576 1.068-.043 2.162-.322 3.024-.825l11.79-6.876c.54-.316.923-.683 1.142-1.057a1.5 1.5 0 0 0 .216-.707 1.242 1.242 0 0 0-.175-.662c-.15-.262-.403-.506-.76-.714z"/><path fill-rule="evenodd" clip-rule="evenodd" fill="#FFF" d="M89.48 226.718l66.588 42.033h7.05v1.79c.038.72-.464 1.49-1.48 2.08l-11.787 6.88c-1.792 1.047-4.537 1.157-6.097.247L71.167 237.4c-.81-.473-1.15-1.13-1.036-1.802v-1.767l6.938-3.184 6.312-3.683c1.793-1.045 4.57-1.21 6.1-.244z"/><path fill-rule="evenodd" clip-rule="evenodd" fill="#A7A9AC" d="M89.607 226.512l66.53 41.998h6.98c.133 0 .243.108.243.24v1.798c.017.413-.12.84-.405 1.242-.267.375-.667.733-1.194 1.04l-11.786 6.878c-.93.543-2.106.844-3.25.89-1.15.046-2.273-.164-3.094-.644L71.044 237.61l-.013-.01c-.427-.252-.735-.555-.927-.89a1.697 1.697 0 0 1-.215-1.127v-1.753a.24.24 0 0 1 .16-.228l6.9-3.17 6.307-3.68.015-.008c.94-.545 2.136-.857 3.29-.903 1.14-.043 2.25.17 3.045.673zm66.332 42.444l-66.59-42.033c-.713-.45-1.72-.638-2.77-.595-1.08.043-2.195.333-3.068.84l-.012.006-6.31 3.682-.02.012-6.795 3.12v1.61c0 .014 0 .027-.003.04-.05.287.002.57.152.833s.4.507.754.716l.012.008 72.584 42.343v.002c.74.43 1.77.62 2.83.58 1.068-.046 2.162-.324 3.026-.828l11.788-6.877c.468-.272.817-.58 1.044-.902.22-.31.327-.634.314-.94V269h-6.808a.282.282 0 0 1-.13-.04zM112.023 204.16c0 .136-.11.245-.243.245a.244.244 0 0 1-.243-.244v-30.65c0-.134.108-.242.243-.242.134 0 .243.108.243.242v30.65z"/><path fill-rule="evenodd" clip-rule="evenodd" fill="#FFF" d="M89.48 224.644l72.582 42.346c1.56.91 1.372 2.514-.422 3.56l-11.788 6.877c-1.794 1.047-4.54 1.157-6.1.247L71.168 235.33c-1.56-.913-1.37-2.515.423-3.56l11.79-6.878c1.794-1.046 4.538-1.157 6.1-.248z"/><path fill-rule="evenodd" clip-rule="evenodd" fill="#A7A9AC" d="M89.6 224.435l72.584 42.346c.43.253.742.556.936.89.17.29.25.602.24.92a1.964 1.964 0 0 1-.28.94c-.26.442-.702.87-1.32 1.23l-11.787 6.877-.015.01c-.93.534-2.098.834-3.236.88-1.15.046-2.274-.164-3.094-.643l-72.584-42.346c-.43-.25-.742-.555-.936-.887l-.008-.015a1.712 1.712 0 0 1-.233-.903c.008-.316.103-.634.282-.94.26-.445.7-.873 1.315-1.23l11.79-6.878c.93-.543 2.106-.843 3.25-.89 1.15-.045 2.274.166 3.095.643zm72.34 42.765l-72.584-42.344c-.74-.433-1.77-.622-2.83-.58-1.068.044-2.162.32-3.025.827l-11.787 6.877c-.54.313-.924.68-1.143 1.057-.14.235-.21.474-.218.705-.006.224.05.443.168.652l.008.012c.153.262.406.505.76.712l72.585 42.346c.74.433 1.77.62 2.83.578 1.063-.043 2.153-.317 3.013-.818l.013-.007 11.786-6.877c.54-.316.923-.68 1.143-1.058.137-.236.21-.476.216-.704s-.052-.452-.176-.665v-.002c-.15-.26-.404-.5-.76-.71zM173.802 237.54a.243.243 0 0 1-.486 0v-30.65c0-.135.11-.244.244-.244.133 0 .242.11.242.243v30.65z"/><path fill-rule="evenodd" clip-rule="evenodd" fill="#A7A9AC" d="M173.542 239.055c1.3 0 2.36-.62 2.36-1.383s-1.062-1.384-2.36-1.384c-1.302 0-2.36.622-2.36 1.384s1.06 1.383 2.36 1.383z"/><path fill-rule="evenodd" clip-rule="evenodd" fill="#FFF" d="M114.98 163.327l66.59 42.034h7.047v1.788c.04.722-.46 1.49-1.477 2.083l-11.79 6.88c-1.793 1.045-4.538 1.156-6.1.245L96.67 174.01c-.81-.473-1.148-1.132-1.036-1.803v-1.766l6.937-3.185 6.31-3.682c1.794-1.046 4.57-1.21 6.1-.245z"/><path fill-rule="evenodd" clip-rule="evenodd" fill="#00C0E5" d="M115.108 163.122l66.53 41.997h6.98a.24.24 0 0 1 .243.24v1.794c.02.417-.12.842-.4 1.243-.27.377-.668.732-1.196 1.04v.002l-11.79 6.877c-.93.543-2.104.844-3.25.89-1.147.046-2.272-.165-3.093-.644L96.548 174.22l-.013-.01c-.428-.25-.737-.556-.928-.89a1.712 1.712 0 0 1-.216-1.128v-1.75c0-.107.068-.197.162-.23l6.9-3.17 6.308-3.68.015-.007c.94-.544 2.135-.857 3.29-.904 1.14-.043 2.246.17 3.043.673zm66.33 42.443l-66.587-42.033c-.71-.45-1.72-.638-2.767-.596-1.08.043-2.195.333-3.068.84l-.012.006-6.31 3.682-.022.01-6.794 3.12v1.612c0 .013 0 .026-.003.04a1.23 1.23 0 0 0 .153.833c.15.26.4.503.753.71l.012.007 72.584 42.344c.74.435 1.77.623 2.83.58 1.068-.043 2.162-.322 3.024-.825l11.79-6.877c.468-.273.816-.583 1.044-.905.22-.31.326-.632.313-.94l-.002-.03V205.6h-6.805a.242.242 0 0 1-.13-.037z"/><path fill-rule="evenodd" clip-rule="evenodd" fill="#FFF" d="M114.98 161.254l72.583 42.345c1.56.91 1.372 2.512-.423 3.556l-11.79 6.878c-1.793 1.047-4.538 1.158-6.1.247l-72.58-42.343c-1.56-.91-1.372-2.513.423-3.558l11.79-6.88c1.793-1.046 4.537-1.158 6.1-.247z"/><path fill-rule="evenodd" clip-rule="evenodd" fill="#00C0E5" d="M115.102 161.044l72.583 42.346c.432.25.74.554.937.888.17.29.248.6.24.92a1.972 1.972 0 0 1-.28.937c-.262.447-.703.872-1.32 1.232l-11.788 6.877-.015.01c-.93.537-2.1.834-3.238.88-1.147.046-2.272-.162-3.093-.643l-72.584-42.343c-.43-.25-.742-.554-.936-.888a1.732 1.732 0 0 1-.24-.92c.01-.315.104-.633.282-.94.26-.444.7-.87 1.318-1.23l11.79-6.877c.93-.543 2.105-.843 3.25-.89 1.147-.047 2.27.163 3.092.642zm72.338 42.766l-72.583-42.346c-.74-.433-1.77-.622-2.83-.578-1.07.043-2.162.32-3.025.824l-11.79 6.878c-.54.314-.923.68-1.142 1.057a1.49 1.49 0 0 0-.217.705c-.005.23.053.454.176.666.15.26.403.503.76.71l72.582 42.345c.74.436 1.77.625 2.83.58 1.063-.04 2.15-.316 3.013-.815l.012-.008 11.79-6.878c.54-.317.924-.683 1.143-1.06.138-.234.21-.473.217-.704.006-.227-.05-.45-.175-.663-.153-.262-.407-.505-.762-.712z"/><path fill-rule="evenodd" clip-rule="evenodd" fill="#D8D9DA" d="M115.055 165.054l-.24.422-.845-.48.24-.423.845.48zm-1.15-.632l-.19.446-.016-.007-.018-.004-.015-.006-.015-.007-.015-.006-.016-.006-.015-.005-.016-.006-.017-.007-.016-.005-.015-.006-.016-.004-.017-.006-.018-.005-.016-.006-.016-.006-.016-.005-.016-.006-.017-.005-.015-.006-.016-.005-.018-.006-.016-.005-.017-.006-.02-.005-.017-.005-.017-.005-.018-.006-.017-.005-.016-.006-.017-.005-.018-.005-.02-.005-.016-.003-.018-.004-.018-.004-.017-.006-.017-.003-.018-.003-.017-.004-.018-.004-.02-.005-.018-.003-.018-.004-.02-.005-.018-.003-.018-.003-.02-.004-.018-.004-.02-.004-.017-.004-.012-.002.08-.48.016.003.02.003.02.004.02.003.022.004.02.005.02.003.02.004.02.002.022.005.02.004.02.005.02.005.02.004.02.005.02.004.018.004.02.006.02.005.02.005.02.005.02.006.018.005.02.007.02.005.018.007.02.004.02.006.018.006.02.005.018.005.02.006.018.007.02.006.018.006.018.005.02.006.02.008.017.006.02.007.02.008.018.006.018.007.02.008.018.007.017.007.02.008.018.007.018.007.018.007.017.008.017.005zm-1.49-.344l-.037.484h-.024l-.02-.002h-.02l-.02-.002h-.02l-.02-.002h-.04l-.02-.002h-.08l-.02-.002h-.348l-.02.002h-.082l-.02.002h-.02l-.022.002h-.02l-.02.002h-.022l-.02.003h-.02l-.022.003-.02.002h-.004l-.042-.484h.026l.022-.003h.044l.022-.003h.022l.022-.002h.02l.023-.002h.022l.022-.002h.13l.022-.003h.34l.02.002h.106l.023.003h.02l.02.002h.023l.02.003h.052zm-1.51.067l.078.48-.02.002-.02.003-.022.003-.02.004-.02.003-.02.003-.02.004-.02.004-.02.005-.02.004-.02.002-.02.005-.02.004-.02.004-.02.004-.023.004-.02.005-.02.005-.02.004-.02.005-.02.005-.02.004-.02.003-.02.005-.02.005-.02.005-.02.005-.02.005-.02.005-.02.006-.02.004-.02.006-.018.004-.02.006-.02.005-.02.005-.02.005-.02.006-.02.007-.02.006-.017.006-.02.005-.02.006-.018.007-.02.006-.017.006-.153-.46.02-.01.02-.006.022-.007.02-.007.022-.006.02-.007.02-.007.02-.006.023-.006.02-.007.022-.004.02-.006.022-.006.02-.006.022-.006.02-.005.02-.005.02-.006.024-.005.02-.004.023-.005.02-.004.022-.006.02-.006.022-.005.022-.007.02-.004.022-.006.022-.005.02-.006.023-.005.02-.005.023-.004.02-.004.022-.004.022-.004.02-.006.022-.004.02-.004.02-.003.024-.003.022-.005.02-.003.023-.005.02-.003h.036zm-1.456.42l.194.444-.01.002-.018.007-.017.007-.018.007-.018.008-.02.01-.016.007-.02.007-.017.008-.016.01-.017.007-.02.008-.016.01-.016.008-.017.01-.017.008-.017.01-.017.007-.018.01-.016.008-.016.01-.017.01-.017.01-.017.01-.433.245-.24-.423.433-.245.02-.01.018-.01.018-.01.018-.01.02-.01.018-.01.02-.01.018-.01.02-.01.02-.01.018-.01.02-.008.018-.01.02-.01.018-.01.02-.01.02-.01.018-.007.02-.008.02-.008.02-.01.02-.008.02-.01.007-.005zm-1.303.708l.24.422-.844.48-.24-.42.844-.482zm-1.267.72l.242.423-.845.48-.24-.422.844-.48zm-1.265.72l.24.422-.844.48-.24-.42.846-.48zm-1.267.722l.24.422-.844.48-.24-.422.844-.48zm-1.267.72l.24.42-.69.395-.015.01-.018.01-.018.01-.017.01-.017.01-.017.01-.018.01-.015.01-.006.004-.262-.41.01-.005.018-.014.02-.012.018-.01.02-.012.018-.012.02-.01.02-.012.02-.01.69-.393zm-1.27.802l.32.365-.013.01-.012.012-.012.01-.012.01-.01.012-.01.01-.01.01-.013.012-.01.01-.01.01-.01.012-.012.01-.01.012-.01.01-.01.01-.01.012-.008.01-.01.012-.01.01-.008.01-.01.01-.01.012-.007.01-.008.01-.01.013-.007.01-.008.01-.01.013-.007.01-.008.01-.007.01-.007.012-.006.01-.008.012-.006.01-.008.01-.007.012-.006.01-.008.01-.006.01-.006.01-.005.01-.006.013-.007.01-.006.01-.005.01-.006.012-.005.01-.004.01-.005.01-.004.01-.003.01-.005.01-.005.012-.004.01-.004.01-.004.01-.004.01-.005.01-.004.012-.003.01-.003.01-.003.01-.002.01-.467-.138v-.002l.006-.016.005-.014.006-.015.005-.016.005-.016.005-.014.006-.016.005-.014.006-.015.006-.015.007-.015.006-.015.007-.015.007-.015.007-.014.007-.016.007-.015.01-.013.007-.015.008-.016.008-.014.008-.014.01-.014.007-.015.01-.014.008-.015.01-.014.008-.014.01-.014.008-.016.01-.013.01-.014.01-.015.01-.014.01-.013.01-.013.01-.014.01-.014.01-.014.013-.013.012-.015.01-.013.012-.013.012-.015.01-.013.012-.014.013-.013.012-.014.013-.013.012-.013.013-.015.012-.015.013-.012.013-.012.014-.012.013-.014.013-.014.013-.012.014-.014.014-.013.015-.012.013-.014.014-.012.014-.01zm-.676 1.476l.483-.05v.01l.002.008v.023l.003.01v.01l.003.01.002.01v.01l.003.01.003.01.002.01.002.012.002.008v.01l.004.01.002.01.003.01.002.01.004.01.003.01.002.01.004.01.003.01.002.01.004.01.003.01.004.012.003.01.004.01.005.01.004.01.003.01.004.01.005.01.006.01.005.01.005.01.006.01.006.01.005.01.007.01.006.01.005.01.006.01.005.012.006.01.007.01.006.01.007.01.007.01.007.01.006.01.006.01.007.01.007.01.007.01.008.01.007.01.006.01.008.01.007.01.01.01.007.008.01.01.007.01.008.01.008.01.01.01.007.01.01.01.005.005-.354.33-.007-.008-.012-.013-.01-.014-.01-.012-.01-.013-.013-.012-.01-.014-.01-.012-.012-.013-.01-.01-.01-.016-.01-.013-.01-.012-.01-.014-.01-.013-.01-.012-.01-.013-.01-.013-.008-.013-.01-.013-.008-.014-.01-.013-.008-.013-.01-.014-.008-.014-.008-.015-.008-.013-.008-.013-.008-.015-.007-.014-.007-.013-.008-.013-.008-.014-.007-.013-.007-.014-.007-.014-.006-.016-.007-.014-.006-.014-.006-.015-.006-.012-.006-.014-.005-.015-.005-.016-.006-.014-.006-.015-.005-.014-.005-.013-.004-.015-.005-.014-.005-.014-.005-.015-.005-.016-.004-.015-.002-.015-.004-.015-.004-.015-.005-.014-.004-.016v-.014l-.004-.016-.003-.015-.003-.017-.004-.016-.002-.015-.003-.015v-.015l-.002-.015-.002-.016-.002-.014-.002-.015.003-.01zm.89 1.347l.28-.398.012.01.012.008.013.01.014.007.013.01.013.008.013.01.014.007.014.008.016.01.013.008.013.008.015.01.014.008.015.008.014.008.014.008.015.01.573.324-.24.423-.573-.326-.018-.01-.017-.01-.016-.01-.02-.01-.015-.01-.017-.01-.016-.01-.016-.01-.017-.01-.016-.01-.016-.01-.016-.01-.017-.01-.016-.013-.015-.01-.015-.01-.014-.01-.013-.008zm1.28.746l.24-.42.843.478-.24.422-.844-.48zm1.266.72l.24-.42.844.48-.24.42-.845-.48zm1.265.722l.24-.423.845.48-.24.422-.845-.48zm1.268.72l.24-.422.845.48-.24.42-.845-.48zm1.266.72l.24-.422.843.48-.24.42-.845-.478zm1.296.718l.193-.446.015.007.016.006.016.007.015.006.017.008.015.006.015.006.017.006.016.007.016.004.016.006.016.007.016.005.017.007.018.004.016.005.017.005.018.005.016.007.016.005.017.006.016.005.017.005.018.006.016.005.017.003.02.006.017.003.017.006.017.003.018.004.018.006.018.004.017.004.02.006.017.004.017.005.018.004.02.002.02.005.016.004.018.005.02.004.017.002.02.004.018.003.02.003.02.004.016.003.02.005.018.003.015.002-.084.48-.016-.004-.02-.002-.022-.004-.02-.004-.02-.004-.02-.004-.02-.004-.02-.005-.022-.006-.02-.004-.02-.004-.02-.004-.02-.005-.02-.004-.022-.005-.02-.005-.02-.005-.018-.005-.02-.005-.02-.005-.02-.006-.02-.006-.018-.002-.02-.006-.02-.005-.018-.005-.02-.006-.02-.006-.017-.005-.02-.007-.02-.005-.02-.006-.018-.006-.02-.005-.018-.007-.018-.006-.02-.008-.018-.007-.02-.007-.018-.006-.018-.007-.018-.006-.02-.007-.017-.008-.02-.008-.015-.006-.02-.007-.017-.007-.018-.007-.02-.01-.017-.007-.016-.006zm1.49.35l.038-.484.02.002h.02l.02.002.018.002h.02l.02.003.02.003h.02l.02.002h.04l.02.002h.02l.02.002H111.817l.02-.003h.062l.02-.003h.04l.02-.003h.04l.02-.003h.023l.02-.003h.02l.022-.003h.007l.042.485h-.01l-.02.002-.023.002h-.044l-.022.003-.022.002h-.02l-.02.002h-.023l-.023.003h-.065l-.022.002h-.044l-.022.002h-.065l-.024.002h-.15l-.02-.002h-.086l-.022-.002-.02-.002h-.044l-.022-.002h-.02l-.023-.003h-.024l-.02-.003h-.022l-.02-.002-.022-.002h-.02l-.017-.002zm1.51-.062l-.077-.48.016-.003h.02l.02-.004.022-.004.02-.002.02-.004.02-.003.02-.003.02-.003.022-.005.02-.005.02-.003.02-.005.02-.006.02-.003.02-.005.02-.005.02-.004.02-.004.02-.005.02-.005.02-.004.022-.005.02-.005.02-.005.02-.005.02-.005.02-.006.02-.004.02-.006.02-.005.02-.006.018-.005.02-.003.02-.006.02-.005.02-.006.02-.006.018-.006.02-.006.02-.006.02-.006.018-.006.02-.006.02-.006.018-.006.154.46h-.003l-.02.008-.02.007-.022.007-.02.006-.02.007-.022.005-.02.007-.02.006-.02.007-.02.006-.023.008-.02.006-.022.007-.02.007-.022.006-.02.005-.022.005-.02.006-.02.004-.02.007-.023.005-.022.006-.02.006-.023.006-.022.006-.02.005-.022.006-.02.004-.022.006-.022.004-.02.005-.022.004-.022.004-.02.005-.023.004-.02.004-.022.004-.02.006-.023.005-.02.004-.023.003-.024.004-.02.004-.024.005-.022.002-.033.002zm1.456-.415l-.194-.448.007-.003.018-.01.018-.006.02-.01.02-.006.016-.01.018-.008.017-.01.018-.008.017-.007.017-.01.017-.007.017-.01.018-.01.017-.007.017-.01.015-.006.017-.008.017-.01.017-.01.016-.01.016-.008.017-.01.016-.008.016-.01.416-.237.24.422-.416.237-.018.01-.02.01-.017.01-.018.012-.02.01-.018.01-.02.01-.02.012-.02.01-.02.01-.017.007-.02.01-.018.01-.02.01-.02.01-.02.01-.018.01-.02.008-.02.01-.02.01-.02.01-.018.01-.02.006-.02.01-.008.002zm1.303-.71l-.24-.423.844-.48.24.423-.845.48zm1.266-.72l-.24-.423.846-.48.24.423-.845.48zm1.268-.72l-.24-.423.844-.48.24.42-.845.482zm1.266-.72l-.24-.424.846-.48.24.423-.846.48zm1.267-.72l-.24-.423.31-.176.01-.004.01-.005.01-.005.01-.005.007-.004.01-.005.008-.004.01-.004.007-.004.01-.006.008-.005.01-.004.01-.004.006-.006.01-.004.008-.005.01-.004.008-.004.008-.004.008-.004.01-.006.008-.005.008-.004.008-.005.008-.004.01-.005.006-.005.01-.005.007-.004.007-.005.01-.003.007-.005.008-.005.01-.005.008-.005.007-.005.008-.005.007-.005.008-.004.008-.005.01-.004.01-.006.005-.004.008-.005.007-.005.006-.004.007-.004.008-.004.01-.006.006-.005.008-.004.007-.005.01-.004.006-.005.007-.005.007-.005.008-.005.007-.005.006-.004.01-.005.007-.003.004-.003.283.395-.005.003-.007.005-.01.006-.007.006-.007.005-.008.005-.01.006-.007.006-.007.005-.008.005-.008.006-.008.005-.01.005-.007.006-.008.005-.01.003-.007.006-.01.004-.006.006-.008.006-.01.005-.007.008-.01.005-.007.005-.01.006-.007.005-.008.005-.01.006-.006.006-.01.005-.01.006-.008.005-.01.007-.01.006-.008.005-.01.005-.008.005-.01.006-.008.005-.01.004-.007.005-.01.004-.01.006-.01.004-.006.005-.01.003-.008.006-.01.004-.01.006-.008.006-.01.006-.01.004-.008.005-.01.008-.01.005-.01.005-.01.006-.008.005-.01.005-.01.005-.01.004-.008.005-.31.18zm1.257-.85l-.34-.35.004-.002.007-.006.004-.005.006-.005.004-.005.004-.005.005-.004.004-.004.005-.006.004-.005.005-.004.004-.005.004-.005.005-.005.005-.005.003-.004.006-.005.004-.003.004-.005.004-.003.004-.005.005-.006.006-.006.004-.005.004-.005.006-.005.004-.005.003-.005.004-.004.005-.004.004-.005.004-.006.004-.004.003-.005.005-.004.004-.004.003-.005.002-.004.004-.004.005-.006.004-.002.004-.005.004-.005.004-.005.003-.004.002-.005.004-.006.003-.006.002-.004.003-.004.002-.006.004-.005.005-.004.003-.004.002-.005.003-.006.004-.006.002-.003.002-.005.004-.004.003-.004.003-.003.002-.006.003-.004.002-.004.003-.006.003-.006.003-.002.002-.006.002-.005.003-.005.004-.005.004-.004.002-.004.002-.006.003-.005.004-.005.002-.004.002-.004.003-.006.003-.005.002-.003v-.007l.004-.005v-.005l.004-.005v-.006l.004-.006v-.004l.003-.006.003-.004v-.004l.004-.007v-.006l.002-.005.002-.006v-.004l.002-.005.002-.007.002-.005.002-.005v-.005l.003-.006.003-.005.002-.004v-.005l.004-.006v-.014l.003-.005v-.005l.002-.005.002-.006v-.016l.003-.004.002-.005v-.005l.002-.005.002-.006V170.606l.003-.003v-.006l.002-.005v-.006l.002-.005v-.008l.002-.007v-.021l.003-.005.48.07v.01l-.002.01v.017l-.003.008v.006l-.003.008v.01l-.003.007v.016l-.003.008-.002.008-.002.007v.008l-.003.01-.002.008-.002.007-.002.008v.008l-.004.01v.006l-.003.007-.002.01-.002.007-.002.006v.008l-.002.007-.003.01-.002.01-.002.005-.002.008-.002.01-.003.006-.003.006-.003.007-.003.01-.003.006v.006l-.003.008-.004.008-.002.008-.002.007-.003.007-.003.007-.003.008-.004.008-.002.006-.004.01-.003.007-.003.006-.003.007-.004.008-.003.008-.004.006-.004.01-.004.006-.002.006-.004.01-.004.007-.003.006-.005.006-.004.007-.004.007-.003.008-.003.007-.005.007-.004.006v.006l-.006.01-.003.005-.003.004-.005.01-.003.005-.005.007-.005.007-.004.007-.005.007-.004.006-.004.008-.004.008-.004.005-.005.008-.006.008-.005.008-.006.006-.003.006-.005.007-.006.008-.006.008-.004.006-.006.008-.005.008-.007.007-.004.005-.006.008-.006.007-.006.006-.004.007-.006.006-.005.005-.006.006-.004.006-.006.008-.005.007-.005.007-.006.008-.006.006-.006.007-.005.007-.006.006-.004.006-.006.006-.006.007-.005.004-.006.005-.005.006-.007.006-.007.006-.006.007-.005.004-.006.006-.008.008-.006.006-.006.006-.006.006-.005.007-.007.005-.005.004-.005.005-.007.006-.006.007-.006.006-.006.006-.005.005-.008.006-.003-.003zm.533-1.53l-.48.083v-.013l-.002-.008v-.012l-.002-.007-.002-.007v-.006l-.003-.007v-.007l-.002-.006-.002-.007v-.007l-.002-.006-.003-.006v-.007l-.002-.01-.002-.007v-.006l-.002-.007-.002-.006-.002-.006v-.006l-.003-.006-.004-.007-.002-.007v-.007l-.003-.005-.002-.006-.002-.008-.002-.005v-.007l-.003-.006v-.006l-.004-.007-.002-.005v-.006l-.004-.008-.003-.006-.002-.006-.003-.006-.002-.01-.002-.004-.003-.007-.003-.007-.003-.006-.003-.007-.002-.007v-.006l-.004-.006-.003-.006-.003-.006-.003-.006-.004-.007-.003-.008-.003-.007-.003-.005-.002-.006-.003-.008-.003-.007-.004-.007-.003-.008-.003-.005-.004-.007-.004-.007-.003-.005-.003-.006-.006-.006-.002-.006-.003-.006-.004-.008-.003-.006-.005-.006-.003-.006-.006-.007-.004-.008-.004-.006-.004-.006-.005-.006-.003-.007-.003-.005-.004-.005-.006-.007-.004-.007-.004-.005-.003-.004-.005-.007-.007-.008-.004-.006-.005-.006-.006-.007-.005-.006-.005-.005-.004-.006-.004-.007-.004-.008-.005-.006-.004-.006-.005-.006-.003-.007-.005-.005-.005-.007-.005-.006-.005-.007-.005-.007-.005-.006-.005-.006-.006-.007-.005-.004-.005-.007-.006-.007-.005-.007.36-.324h.003l.006.01.006.006.006.007.008.01.006.007.007.006.006.008.006.008.006.008.006.008.006.008.006.008.006.008.006.007.007.007.006.01.005.008.005.008.006.008.007.01.006.007.004.007.007.01.007.008.006.007.006.007.005.01.005.007.005.007.006.01.006.008.005.01.006.01.006.007.004.008.006.01.005.007.006.008.006.01.004.008.005.008.004.008.005.01.004.007.004.01.005.006.006.01.004.008.004.01.004.01.004.007.005.01.006.01.004.007.004.01.004.008.004.01.004.007.004.008.004.01.004.01.004.01.005.008.003.01.004.007.003.01.005.01.003.007.004.01.003.01.004.006.003.01.003.008.004.01.003.01.004.01.003.007.003.01.004.008.004.01.004.01.003.01.003.01.002.01.003.01.002.007.004.01.002.008.002.01.003.01.003.01.003.008.002.01.004.01v.017l.004.008.002.01.003.01v.01l.003.008.002.01.002.01.002.01V169.994l.004.01.002.008v.01l.003.01v.01zm-.88-1.337l-.293.388-.005-.003-.007-.005-.007-.005-.006-.005-.007-.006-.008-.006-.01-.004-.006-.004-.007-.006-.008-.005-.007-.003-.007-.005-.007-.004-.007-.006-.008-.005-.007-.005-.01-.005-.006-.006-.007-.005-.01-.004-.008-.004-.008-.005-.008-.004-.008-.006-.01-.006-.008-.005-.008-.007-.01-.006-.007-.004-.008-.006-.01-.005-.007-.004-.01-.006-.008-.005-.01-.006-.007-.004-.008-.006-.008-.005-.503-.287.24-.422.502.287.01.006.01.004.01.006.01.006.01.005.01.007.01.007.01.006.01.006.01.005.008.007.01.007.01.006.01.006.01.004.01.006.01.005.008.008.01.006.01.006.008.006.01.007.01.006.01.005.007.005.01.006.01.007.01.007.007.006.01.007.01.006.008.006.01.006.008.006.008.006.01.007.01.008-.002.002zm-1.28-.76l-.24.424-.845-.48.24-.423.845.48zm-1.268-.72l-.24.422-.845-.48.24-.422.845.48zm-1.267-.72l-.24.422-.844-.48.24-.42.845.48zm-1.266-.72l-.24.422-.846-.48.24-.422.845.48z"/><path fill-rule="evenodd" clip-rule="evenodd" fill="#A7A9AC" d="M111.763 205.677c1.3 0 2.36-.622 2.36-1.385 0-.762-1.06-1.384-2.36-1.384-1.3 0-2.36.622-2.36 1.384 0 .763 1.06 1.385 2.36 1.385z"/><path fill-rule="evenodd" clip-rule="evenodd" fill="#00C0E5" d="M112.023 169.904c0 .134-.11.244-.243.244a.244.244 0 0 1-.243-.244v-30.65a.243.243 0 0 1 .486 0v30.65z"/><path fill-rule="evenodd" clip-rule="evenodd" fill="#00C0E5" d="M111.763 171.42c1.3 0 2.36-.62 2.36-1.384 0-.762-1.06-1.384-2.36-1.384-1.3 0-2.36.622-2.36 1.384 0 .763 1.06 1.385 2.36 1.385z"/><path fill-rule="evenodd" clip-rule="evenodd" fill="#FFF" d="M114.09 133.305l6.838 3.888c.322.184.583.404.774.65h.36v1.995a1.49 1.49 0 0 1-.015.257c-.085.582-.567 1.02-1.365 1.472l-6.217 3.536c-1.47.835-3.704.93-4.967.213l-7.072-4.02c-.677-.386-1.054-.913-1.058-1.458v-1.994h.412c.18-.2.422-.39.73-.564l6.612-3.76c1.47-.836 3.706-.933 4.968-.215z"/><path fill-rule="evenodd" clip-rule="evenodd" fill="#00C0E5" d="M114.21 133.094l6.837 3.888c.175.1.333.208.472.326.107.09.21.19.296.292h.247c.134 0 .243.11.243.242v2.016c0 .043 0 .084-.003.124-.003.05-.008.1-.015.15-.05.344-.216.642-.482.917-.25.254-.586.49-1.004.727l-6.218 3.535c-.768.437-1.733.68-2.67.72-.943.04-1.864-.124-2.535-.506l-7.07-4.022c-.37-.21-.66-.46-.86-.734a1.587 1.587 0 0 1-.322-.903l-.003-.03v-1.992c0-.134.108-.243.244-.243h.31c.08-.082.174-.163.277-.243.13-.1.273-.197.435-.29l6.614-3.76c.77-.437 1.734-.68 2.67-.72.94-.04 1.862.124 2.533.505zm6.598 4.31l-6.837-3.887c-.59-.336-1.416-.48-2.275-.444-.863.036-1.75.26-2.45.657l-6.614 3.76a3.795 3.795 0 0 0-.38.25c-.105.084-.2.17-.28.258a.244.244 0 0 1-.19.09h-.17v1.75c0 .22.083.44.233.65.16.22.397.423.703.597l7.072 4.02c.59.336 1.42.482 2.277.445.864-.036 1.75-.258 2.45-.657l6.218-3.535c.38-.216.68-.425.894-.646.196-.202.315-.414.35-.65.006-.04.01-.075.012-.11l.002-.09v-1.774h-.118a.245.245 0 0 1-.192-.094 2.492 2.492 0 0 0-.703-.592zm1.014 1.44zm0 0z"/><path fill-rule="evenodd" clip-rule="evenodd" fill="#FFF" d="M114.09 132.334l6.838 3.888c.8.455 1.228 1.14 1.12 1.877-.086.58-.568 1.017-1.366 1.47l-6.217 3.535c-1.47.836-3.704.932-4.967.214l-7.072-4.023c-1.342-.763-1.508-2.085.083-2.99l6.61-3.76c1.47-.836 3.707-.93 4.97-.214z"/><path fill-rule="evenodd" clip-rule="evenodd" fill="#00C0E5" d="M114.21 132.124l6.837 3.888c.44.25.78.57.994.928.22.366.31.773.25 1.194-.05.344-.216.643-.48.918-.25.257-.588.494-1.006.73l-6.218 3.536c-.768.437-1.733.68-2.67.72-.943.04-1.864-.125-2.535-.506l-7.07-4.02c-.447-.254-.776-.568-.97-.913a1.515 1.515 0 0 1-.21-.755c-.003-.258.065-.52.21-.772.197-.35.544-.685 1.052-.974l6.615-3.76c.77-.44 1.734-.683 2.67-.723.943-.042 1.864.124 2.535.506zm6.598 4.31l-6.837-3.888c-.59-.337-1.416-.48-2.275-.444-.863.037-1.75.26-2.45.657l-6.614 3.76c-.43.243-.714.515-.872.79-.1.178-.148.356-.147.53 0 .176.053.35.148.52.153.27.42.52.79.73l7.07 4.02c.593.335 1.42.48 2.278.443.864-.037 1.75-.26 2.45-.657l6.218-3.536c.38-.214.68-.424.894-.644.196-.202.315-.415.35-.65.046-.31-.02-.607-.182-.878-.17-.288-.45-.546-.817-.755z"/><path fill-rule="evenodd" clip-rule="evenodd" fill="#FFF" d="M151.28 265.082l-12.126-7.073c-2.306-1.347-6.36-1.185-9.01.362-2.65 1.545-2.93 3.91-.625 5.257l12.124 7.073c2.305 1.345 6.36 1.18 9.01-.364 2.65-1.548 2.93-3.913.624-5.26z"/><path fill-rule="evenodd" clip-rule="evenodd" fill="#A7A9AC" d="M151.157 265.293l-12.125-7.075c-1.114-.65-2.656-.934-4.246-.87-1.594.065-3.23.48-4.52 1.233h-.002c-.816.48-1.395 1.03-1.73 1.605-.21.366-.324.737-.334 1.1-.01.357.082.71.274 1.042.236.402.624.776 1.167 1.094l12.128 7.075c1.112.648 2.656.934 4.244.87 1.596-.065 3.23-.48 4.522-1.234.817-.476 1.396-1.03 1.73-1.6a2.32 2.32 0 0 0 .335-1.1c.01-.358-.083-.71-.276-1.04-.235-.405-.62-.78-1.165-1.096zm-11.88-7.495l12.125 7.074c.62.36 1.064.796 1.34 1.27.24.41.352.85.34 1.298a2.778 2.778 0 0 1-.4 1.332c-.374.642-1.012 1.257-1.904 1.777-1.36.79-3.076 1.23-4.747 1.296-1.676.067-3.314-.237-4.506-.935l-12.126-7.073c-.618-.36-1.064-.794-1.34-1.27-.24-.41-.354-.85-.34-1.297.01-.446.145-.895.398-1.33.376-.644 1.014-1.26 1.905-1.778 1.36-.792 3.077-1.23 4.748-1.3 1.678-.066 3.316.24 4.51.936z"/><path fill-rule="evenodd" clip-rule="evenodd" fill="#FFF" d="M140.76 267.034c-.063 2.167 5.002 3.993 8.57 1.995v-.004c1.128-.632 1.59-1.33 1.576-1.993v-2.736H140.76v2.736z"/><path fill-rule="evenodd" clip-rule="evenodd" fill="#A7A9AC" d="M141 267.06c-.002.223.063.444.182.658.287.51.88.972 1.655 1.316.795.353 1.77.58 2.792.608 1.2.036 2.467-.2 3.58-.827.516-.288.88-.587 1.117-.885.238-.303.344-.604.337-.893v-2.497h-9.662v2.492c0 .01 0 .017-.002.027zm-.24.896a1.78 1.78 0 0 1-.243-.906v-2.752c0-.134.11-.242.243-.242h10.148c.133 0 .243.108.243.242v2.762c0 .39-.136.784-.44 1.172-.275.347-.685.685-1.25 1.004l-.01.005c-1.194.67-2.548.926-3.833.89-1.087-.03-2.127-.273-2.975-.65-.868-.388-1.543-.92-1.88-1.523z"/><path fill-rule="evenodd" clip-rule="evenodd" fill="#FFF" d="M142.335 262.258c-4.773 2.677 2.37 6.512 6.994 3.92 4.772-2.675-2.37-6.51-6.996-3.92z"/><path fill-rule="evenodd" clip-rule="evenodd" fill="#A7A9AC" d="M142.444 262.477c-1.026.576-1.45 1.19-1.444 1.76.004.332.155.66.416.964.28.325.68.617 1.167.865 1.72.87 4.454 1.116 6.62-.092l-6.76-3.495zm-1.928 1.765c-.01-.745.49-1.515 1.695-2.192l.008-.004c2.317-1.298 5.244-1.034 7.084-.104.543.274.994.607 1.314.98.336.39.53.82.535 1.274.008.745-.49 1.514-1.696 2.192l-.006.003c-2.317 1.3-5.244 1.038-7.084.108-.542-.275-.994-.608-1.313-.98-.335-.39-.53-.823-.533-1.275zm8.706 1.717l-6.758-3.497c2.165-1.208 4.9-.96 6.62-.09.485.245.887.54 1.165.86.26.307.41.632.414.966.007.57-.418 1.182-1.443 1.76z"/></svg>