<!DOCTYPE svg PUBLIC "-//W3C//DTD SVG 1.1//EN" "http://www.w3.org/Graphics/SVG/1.1/DTD/svg11.dtd" [
	<!ENTITY ns_flows "http://ns.adobe.com/Flows/1.0/">
]><svg xmlns="http://www.w3.org/2000/svg" width="617" height="607" viewBox="-1 -1 617 607" overflow="visible"><path fill-rule="evenodd" clip-rule="evenodd" fill="#FFF" d="M72.04 536.446v13.496c-.44 3.567 1.834 7.417 6.697 10.336l60.076 36.076c8.26 4.96 20.984 5.434 28.275 1.06L448.303 428.63c3.606-2.164 5.234-5.13 4.96-8.175V406.5c.318-3.503-1.96-7.252-6.723-10.11l-60.075-36.076c-8.26-4.96-20.984-5.435-28.275-1.06L76.975 528.038c-3.7 2.22-5.316 5.284-4.934 8.41z"/><path fill-rule="evenodd" clip-rule="evenodd" fill="#A7A9AC" d="M69.926 534.572v-.24h.03a9.535 9.535 0 0 1 1.253-3.58c.997-1.7 2.555-3.247 4.682-4.523l281.214-168.783c4.003-2.402 9.424-3.476 14.933-3.27 5.46.204 11.07 1.663 15.506 4.327l60.075 36.075c2.616 1.57 4.583 3.41 5.88 5.357 1.4 2.106 2.03 4.353 1.874 6.562v13.99c.03.42.03.838 0 1.25v.828h-.093a9.57 9.57 0 0 1-1.292 3.474c-1.003 1.65-2.536 3.152-4.605 4.396L168.17 599.22c-4.002 2.402-9.423 3.477-14.932 3.27-5.462-.204-11.07-1.662-15.507-4.327l-60.074-36.075c-2.67-1.604-4.663-3.487-5.957-5.484-1.42-2.188-2.016-4.51-1.773-6.77v-13.29c-.07-.66-.07-1.32 0-1.972zm4.228 3.988v11.505l-.017.135c-.164 1.326.206 2.735 1.095 4.108.956 1.475 2.488 2.903 4.586 4.163l60.076 36.077c3.822 2.295 8.705 3.554 13.492 3.732 4.742.176 9.33-.7 12.62-2.676l281.214-168.78c1.468-.882 2.52-1.89 3.17-2.96.618-1.02.874-2.116.774-3.218l-.21-2.305h.193v-11.85l.018-.18c.118-1.3-.28-2.684-1.184-4.042-.957-1.443-2.47-2.837-4.52-4.07l-60.076-36.075c-3.82-2.295-8.705-3.554-13.492-3.732-4.74-.177-9.328.7-12.618 2.675L78.057 529.845c-1.5.9-2.568 1.938-3.214 3.04-.61 1.04-.843 2.17-.704 3.305l.29 2.37h-.277z"/><path fill-rule="evenodd" clip-rule="evenodd" fill="#E6E7E8" d="M140.574 533.648l-4.66 2.798H72.04v13.496c-.44 3.566 1.835 7.417 6.698 10.336l60.076 36.076c8.26 4.96 20.983 5.434 28.275 1.058l281.21-168.78c3.607-2.167 5.235-5.133 4.96-8.177v-14.6l-281.514 130.59-2.898-1.74c-8.26-4.96-20.985-5.433-28.276-1.056z"/><path fill-rule="evenodd" clip-rule="evenodd" fill="#A7A9AC" d="M140.744 533.93l-4.66 2.8-.17.048H72.37v13.165l-.002.04c-.214 1.74.25 3.557 1.375 5.293 1.098 1.695 2.825 3.315 5.164 4.72l60.076 36.075c4.08 2.453 9.27 3.796 14.34 3.986 5.066.188 10.006-.77 13.596-2.927L448.13 428.35c1.72-1.035 2.977-2.25 3.774-3.566.82-1.354 1.16-2.816 1.025-4.298l-.03-.36h.03v-13.75l-281.044 130.37-.158.073-.15-.09-2.898-1.74c-4.082-2.453-9.27-3.797-14.343-3.986-5.065-.19-10.004.77-13.593 2.926zm-4.92 2.185l4.58-2.752c3.702-2.222 8.772-3.212 13.957-3.02 5.18.195 10.48 1.57 14.66 4.08l2.75 1.648 281.356-130.516.47-.218v15.135c.136 1.607-.234 3.19-1.123 4.654-.853 1.406-2.184 2.7-4 3.79l-281.215 168.78c-3.702 2.224-8.77 3.214-13.958 3.02-5.177-.193-10.48-1.567-14.657-4.075L78.567 560.56c-2.43-1.46-4.228-3.15-5.38-4.927-1.207-1.865-1.706-3.824-1.48-5.71v-13.81h64.116z"/><path fill-rule="evenodd" clip-rule="evenodd" fill="#FFF" d="M358.19 359.256L76.983 528.116c-7.29 4.38-6.5 12.02 1.762 16.98l60.076 36.075c8.26 4.96 20.985 5.438 28.277 1.06L448.3 413.37c7.29-4.38 6.5-12.02-1.76-16.98l-60.076-36.075c-8.26-4.96-20.985-5.437-28.276-1.058z"/><path fill-rule="evenodd" clip-rule="evenodd" fill="#A7A9AC" d="M358.36 359.54L77.153 528.4c-1.735 1.042-2.997 2.27-3.794 3.598-.726 1.207-1.068 2.5-1.034 3.815.034 1.32.447 2.665 1.233 3.975 1.083 1.805 2.874 3.536 5.354 5.024l60.076 36.075c4.083 2.45 9.272 3.795 14.344 3.984 5.064.19 10.003-.77 13.593-2.924l281.205-168.86c1.734-1.043 2.996-2.27 3.793-3.6.726-1.206 1.067-2.5 1.033-3.813-.033-1.32-.446-2.667-1.233-3.976-1.083-1.806-2.874-3.535-5.355-5.025l-60.075-36.074c-4.082-2.45-9.27-3.794-14.343-3.983-5.064-.19-10.004.77-13.593 2.927zM76.814 527.833l281.205-168.86c3.7-2.224 8.77-3.214 13.955-3.02 5.178.193 10.48 1.568 14.658 4.076l60.075 36.073c2.578 1.55 4.445 3.357 5.583 5.255.847 1.405 1.29 2.86 1.327 4.296.037 1.44-.336 2.854-1.126 4.17-.852 1.42-2.19 2.726-4.022 3.825l-281.2 168.865c-3.7 2.222-8.77 3.213-13.956 3.02-5.177-.194-10.48-1.57-14.658-4.078L78.577 545.38c-2.577-1.547-4.445-3.357-5.583-5.253-.845-1.406-1.29-2.863-1.327-4.298-.037-1.44.336-2.856 1.126-4.173.853-1.42 2.19-2.724 4.022-3.825z"/><path fill-rule="evenodd" clip-rule="evenodd" fill="#838488" d="M111.83 571.05l-7.114-4.272c-.823-.495-1.496.018-1.496 1.138 0 1.12.673 2.44 1.496 2.936l7.115 4.273c.825.494 1.5-.018 1.5-1.138 0-1.12-.675-2.442-1.498-2.936z"/><path fill-rule="evenodd" clip-rule="evenodd" fill="#2D5998" d="M176.644 527.842l13.218 7.58c1.506-.482 5.096-2.482 6.13-3.394 1.55-1.366 1.54-2.596-.372-3.703-1.135-.66-3.173-1.956-4.523-2.442-2.605-.937-5.332.698-6.81 2.018-.185.167-.27.327-.563.477l-4.556-2.63c-.256.154-2.458 1.973-2.524 2.096zm-28.95 21.94c-.497.388-1.614.766-1.345.996.045.04.09.067.147.102l.918.522c1.434.822.958.89 2.274.082.072-.046.202-.134.27-.17.257-.14.156-.183.87.23.85.486 6.07 3.53 6.5 3.71l3.022-1.797c-.4-.33-6.77-3.8-7.107-4.115l1.992-1.208-2.13-1.547-2.31 1.365c-.518-.233-1.74-.92-1.812-1.208-.104-.423 1.055-.91 1.62-1.29.327-.217.173-.205-.517-.6-1.672-.96-1.506-1.08-2.08-.727-2.295 1.418-4.843 2.585-2.363 4.428.477.352 1.737.9 2.046 1.228zm58.34-39.6c.593.41 9.643 5.556 11.5 6.615l1.973 1.122 3.032-1.797c-.39-.34-3.264-1.91-4.317-2.512.237-.103 3.272.33 3.58.37l3.59.427 3.202-1.92c-.34-.2-6.87-.844-7.74-1.015-.26-.05-.428-.806-.52-1.063-.127-.363-.284-.77-.402-1.13-.134-.407-.28-.75-.407-1.13-.082-.248-.27-1.01-.515-1.16l-3.22 1.922.726 2.03c.108.293.247.662.37 1.03.064.194.404.906.237.993-2.024-1.096-4.413-2.52-6.436-3.68l-2.094-1.197c-.285.142-2.32 1.85-2.56 2.093zm-2.076 5.75c1.065-.856 3.17-1.68 4.63-1.765 1.83-.106 2.996.283 4.652 1.233 1.608.922 3.047 1.632 3.324 2.673.22.825-.294 1.876-1.755 2.78-1.474.912-2.98 1.69-4.67 1.763-1.983.085-3.028-.3-4.656-1.234-1.6-.917-3.033-1.63-3.294-2.68-.108-.437-.08-.817.26-1.378.42-.686.902-.906 1.508-1.393zm-9.742 5.838c.494-.408 1.613-.944 2.296-1.2 2.627-.99 4.69-.582 6.982.733 1.68.964 2.93 1.564 3.264 2.662.273.896-.412 1.938-1.8 2.804-3.342 2.082-5.914 2.422-9.317.47-1.975-1.133-4.22-2.246-2.973-4.054.566-.823.875-.86 1.55-1.417zm-7.996 13.125c.634.358 1.628.864 2.168 1.238.194.134.098.155-.096.33-1.317 1.19-3.53 2.725-5.492 3.345-2.726.86-4.746.23-6.61-.84-1.746-1-4.174-2.072-3.25-3.82.503-.95 1.848-1.866 3.375-2.567 2.37-1.086 4.776-.91 6.634.143.58.328 1.697.903 2.144 1.25l-5.455 3.3c-.105.118-.048-.035-.03.084.017.138.615.358.792.417.272.093.61.134.913.1.935-.106 2.87-1.422 3.482-1.89.288-.22 1.193-.98 1.422-1.088zm-29.9 12.624l-2.176-1.567c.7-.457 3.533-2.152 4.264-2.498 3.66-1.732 5.517-.26 8.364 1.372 1.362.78 2.722 1.563 4.087 2.344l-2.587 1.53-.612-.23c-.224.103-.553.736-1.104 1.253a6.647 6.647 0 0 1-1.977 1.253c-1.485.58-2.996.522-4.28-.028-1.52-.65-2.3-1.543-1.656-2.44.65-.903 2.39-1.808 3.71-2.614-2.313-1.377-2.213-.46-6.035 1.623zm22.895-5.704l-2.314-1.33c-.39.18-1.55 1.408-3.12 2.187-1.567.777-2.34.08-3.656-.674-.552-.317-1.342-.72-1.662-1.045-1.09-1.116 3.437-2.534 4.026-2.996l-2.3-1.327c-.752.196-2.535 1.064-3.22 1.464-1.87 1.09-3.22 2.432-2.33 3.833.498.786 1.26 1.173 2.44 1.85 1.78 1.02 3.565 2.01 6.428 1.357 1.258-.286 2.122-.698 3.25-1.374.562-.337 2.3-1.61 2.46-1.946zm11.578-9.44c-1.16-.562-2.488-1.417-3.6-2.054-.235-.135-.793-.37-.822-.527-.025-.148.835-1.238 1.953-1.466.71-.146 1.176.055 1.778.4.46.264 2.298 1.274 2.58 1.54.163.154.244.38.242.51-.006.403-.523.727-1.103 1.075-.444.252-.505.397-1.025.522zm6.012-9.27c.617-.57 1.888-.958 2.87-.38.316.185.637.366.956.55 1.11.637 2.998 1.286 1.713 2.215-.66.477-1.202.658-1.934.64-.63-.02-1.34-.494-1.9-.815-.473-.27-1.498-.798-1.803-1.078-.463-.426-.397-.67.1-1.13zm10.26-4.407c-.498-.287-.913-.53-.867-.896.04-.326.38-.63.89-.907 1.364-.74 2.25-.157 3.06.308.722.415 2.275 1.185 2.396 1.64.157.588-1.115 1.362-2.067 1.406-.557.027-.938-.132-1.458-.43l-1.955-1.12zm-29.585 17.437c-.962-.567-1.318-1.006-.17-1.668 1.14-.658 2.275-.287 2.73.196-.152.174-2.025 1.348-2.56 1.47zm-13.175 10.97c-.41.138-1.63.896-1.796 1.104-.475.59 1.403 1.426 2.544-.12.156-.21.383-.382.168-.55-.224-.174-.602-.387-.918-.433z"/><path fill-rule="evenodd" clip-rule="evenodd" fill="#00C0E5" d="M258.115 485.446c2.927 1.657 4.73 3.097 9.348 2.215 2.19-.416 4.226-1.846 4.492-3.202.025-.13.07-.19.107-.312.512-.083.666-.035 1.666-.223 1.3-.244 2.482-.86 3.34-1.483.84-.61 1.13-1.326 1.29-1.997.25-1.04-.506-2.21-1.92-3.014l-2.468-1.4c-.72-.407-1-.603-1.82-.637-.64-.027-1.188.047-1.854.437-.682.402-.706.71-.693 1.084.014.418.66.78 1.126 1.043l2.345 1.326c.727.412 1.028.815.692 1.365-.107.175-.225.312-.498.475-.615.363-1.103.428-1.728.416-.734-.016-1.094-.187-1.74-.55-.77-.437-2.66-1.653-3.46-1.8-2.163-.395-3.957 1.177-2.638 2.088 1.473 1.016 4.26 1.907 3.808 2.965-.398.93-1.98 1.24-3.024.975-.68-.173-2.74-1.436-3.458-1.84-.628-.35-.986-.504-1.744-.494-.663.008-1.17.174-1.773.532-.557.332-.58.71-.544 1.033.05.44.5.63 1.144.995zm12.532-14.407c-1 .596-.964 1.435-.085 1.964 1.36.816 4.055.228 4.137-1.043.076-1.224-2.477-1.864-4.054-.922zm4.96 4.83c-.764-.433-1.45-.914-1.154-1.57.498-1.11 2.76-1.515 3.945-.85l5.1 2.886c.78.438.986.57 1.038 1.094.076.758-1.044 1.556-2.792 1.507-.728-.02-1.277-.312-1.86-.644l-4.278-2.422zm34.685-23.657c-.985.843-1.478 1.545-1.346 2.615.122 1.002.66 1.66 2.19 2.52.73.41 1.45.824 2.177 1.235.78.442 1.303.705 2.2.63 1.982-.17 2.728-1.44 1.608-2.18-.602-.398-1.497-.85-2.173-1.233-.953-.54-2.013-.96-1.387-1.885.358-.528 2.356-1.424 3.114-2.016.91-.71.138-2.02-1.926-1.937-1.015.042-1.368.374-2.244.894-.594.354-1.8 1.002-2.212 1.356zm-16.18 14.258c1.504-1.113 3.79-1.76 3.688-2.853-.125-1.342-2.703-1.597-3.94-.882-1.052.61-2.184 1.375-3.27 1.936-.78-.36-1.69-.94-2.43-1.36-.923-.522-1.31-.752-2.45-.71-1.716.068-3.29 1.394-1.623 2.416 2.233 1.37 4.44 2.72 7.164 3.777 1.374.533 3.287 1.134 4.95 1.006.873-.067 1.673-.167 2.526-.448.968-.32 1.606-.667 2.51-1.203 1.05-.625 1.535-.81 1.697-1.5.128-.544-.55-1.07-1.324-1.3-.717-.21-1.793-.133-2.518.212-.83.396-2.412 1.76-3.764 1.424-.382-.096-.897-.292-1.214-.515zM275.1 470.4c-2.05-1.164.585-2.97 2.76-2.346.677.196 2.797 1.493 3.7 1.987l2.973-1.763c.58-.343.65-.386 1.273-.518 1.344-.285 2.895.307 2.99 1.096.07.59-.24.9-1.186 1.46-.805.477-1.746.994-2.494 1.49 1.05.668 2.085.807 3.367.043 1.256-.75 1.68-1.228 3.178-1.253 1.106-.018 2.03.45 2.21 1.024.29.93-.914 1.44-2.01 2.093-1.2.712-2.15 1.064-3.47 1.3-2.506.448-4.494-.223-6.537-1.032-1.154-.457-1.642-.78-2.436-1.113l-1.937-1.02c-.546-.29-1.743-1.085-2.38-1.447zm32.395-13.87c.256-.036.465.048.697.1.686.16 1.41.404 1.854.767.683.558.378 1.014-.496 1.525-.644.377-5.064 2.913-5.16 3.104-.01.26 1.14.187 2.003-.138 2.09-.786 2.04-1.46 2.764-2.31.403-.473 1.54-.9 1.936-.726.58-.09 1.27.398 1.402.965.295 1.265-1.85 2.876-3.64 3.756-1.763.867-4.3 1.25-6.426.91-2.663-.425-4.754-1.96-4.558-3.686.023-.204.117-.4.203-.612.17-.423.564-.854 1.04-1.263 1.55-1.327 3.77-2.258 6.274-2.485.375-.034 1.813-.046 2.104.093zm-5.252 4.27l.644-.364 1.657-.988 1.006-.6c-.61-.4-1.93.005-2.625.423-.694.418-1.383 1.155-.682 1.53zm-58.848 28.854c-.69-.39-1.356-.746-1.066-1.48.22-.556 1.092-1.072 2.063-1.15 1.07-.087 1.587.095 2.572.653.833.47.944.67 1.284.484.894-.486 2.977-1.77 3.92-2.33.98-.586 1.474-.93 2.62-.98 1.7-.07 3.417 1.26 1.477 2.41-1.57.932-3.376 1.972-4.884 2.91l.6.35c.83.475 1.43.91 2.482.92.202.003.717-.044.922-.1 1.247-.343 3.41-2.047 4.555-2.52 1.105-.456 2.812-.342 3.474.45.79.948-.385 1.56-1.332 2.124-1.41.837-3.237 2.08-4.935 2.48-.458.107-.77.176-1.258.237-.193.024-.357.038-.63.07l-1.884.028c-1.26-.054-2.81-.485-3.697-.99l-6.287-3.563z"/><path fill-rule="evenodd" clip-rule="evenodd" fill="#6D6E71" d="M379.096 387.276c-.198-.124-.55-.225-.77-.32-.273-.116-.525-.233-.81-.35-.26-.103-.508-.187-.776-.31-.124-.06-.25-.097-.383-.15-.765-.313-.127-.223-1.462 1.156-.108.112-.276.22-.386.334l-.416.335c-.48.313-.48.347-1.077.694a5.56 5.56 0 0 1-1.128.474c-.39.108-.728.16-1.14.165a4.66 4.66 0 0 1-1.114-.138c-.24-.06-.943-.272-1.108-.41.192-.146 6.113-3.66 6.318-3.782.562-.336.51-.25.186-.452-.684-.423-1.483-.922-2.266-1.26-.562-.242-.872-.42-1.54-.622-.388-.118-.323-.122-.775-.23-.135-.03-.255-.054-.384-.09-.724-.2-1.882-.323-2.703-.32-2.053.008-4.09.73-5.495 1.708-.62.43-.866.683-1.273 1.16-.07.083-.117.154-.17.232-.103.156-.19.306-.262.466-.155.347-.15.354-.212.693-.016.088-.016.137-.016.23 0 .138-.04.295.022.446l.1.455c.164.513.44.87.812 1.333.154.193.457.516.693.673.137.09.12.123.27.22.208.134.4.306.616.442.44.283.98.612 1.483.852.264.124.515.243.777.362.127.056.266.106.386.156.155.065.27.102.39.15l.196.086c.004 0 .01.003.017.005.007 0 .014.003.02.005.006 0 .013.003.02.004l.892.265c.454.11.734.157 1.167.24.6.12 1.7.16 2.33.13.937-.05 1.902-.248 2.74-.5.432-.13 1.218-.422 1.594-.622.163-.086.257-.12.397-.19.448-.224 1.178-.65 1.57-.922l.94-.708c.072-.07.187-.162.273-.234.724-.606 1.2-1.234 1.456-1.857zm-29.262 5.147l.07-.53c.022-.104.107-.436.168-.53.12-.185.187-.362.338-.536.158-.182.477-.512.724-.687a7.275 7.275 0 0 1 2.282-1.083c.094-.026.126-.023.21-.045a7.608 7.608 0 0 1 1.838-.22c.45-.007 1.427.07 1.798.16.31.073.597.105.894.196.306.094.614.18.9.283.957.343 1.875.76 2.673 1.215 1.13.646 1.24.714 2.152 1.416.076.06.064.068.134.12.188.15.457.373.558.52.064.09.146.172.23.266l.533.78c.12.33.224.38.278.783.013.09.015.183.03.262.008.054.012.09.008.137l-.023.275c-.01.23-.196.7-.333.925-.166.27-.34.563-.644.807a4.17 4.17 0 0 0-.3.27c-.244.24-.886.63-1.225.822-.21.117-1.387.656-1.617.704-.104.02-.065-.014-.193.074l3.964 2.27c-.084.092-.31.264-.43.355l-1.25 1.045c-.062.06-.15.12-.22.178l-.42.353c-.072.063-.18.12-.262.185-.224.17-.687.6-.91.7l-16.98-9.676c-.045-.04-.127-.013.115-.153.614-.354 3.204-1.947 3.498-2.067.185.087.487.224.676.28l.497.196.08.037.024.007.047.012c-.002-.003.016.003.024.004l.067-.11zm-26.732 14.536l.02.044c.045.113-.143.18-.298.322l-.454.374c-.29.21-.256.224-.08.352.166.12.276.23.406.34.056.047.174.115.234.17.075.07.136.114.23.186.255.202 1.124.966 1.312 1.024.27-.098 1.287-.785 1.686-.98.34.146 5.05 2.893 5.998 3.406.418.227 1.14.543 1.658.684.205.056.34.096.546.14.096.02.17.035.272.052.174.028.186.046.308.022.054 0 .147.018.22.024.232.02.463.035.705.03.266-.008.66-.018.94-.078.5-.108.93-.177 1.424-.372 1.136-.448 1.93-.9 2.833-1.548l.658-.562c.05-.048.12-.096.17-.146.094-.092.114-.11.093-.15-.05-.075-2.72-1.577-3.058-1.76-.116.052-.302.252-.394.326-.732.596-1.513 1.11-2.702.64-.308-.123-4.21-2.382-5.04-2.855-.663-.377-.694-.24-.045-.627.362-.216 1.405-.814 1.602-.966l-1.87-1.505c-.1-.088-.183-.16-.282-.24-.395-.32-.06-.4-1.627.536-.28.168-1.06.672-1.327.777-.467-.245-3.33-1.954-3.53-1.988-.1 0-.25.174-.387.274l-1.09.905c-.062.054-.14.1-.206.15-.074.057-.095.093-.16.148-.25.22-.55.41-.807.624l-.332.303.872.722c.276.212.872.728 1.05.846.09.06.09.075.144.122.088.078.205.17.308.237zm12.927-6.385c-.01.02-.063-.005.04.16.03.05.056.102.095.146-.31-.1-1.494-.624-1.62-.604-.12.02-2.79 1.658-3.37 1.997-.03.016-.103.056-.123.07-.187.133.01.175.242.31l8.984 5.12c.36.206 2.958 1.733 3.132 1.754.125-.003 2.664-1.56 3.104-1.822.27-.16.83-.462 1.027-.626-.076-.14-.742-.466-.984-.603l-6.943-3.957c-.25-.142-.054-.187-.152-.327.027-.06.01-.117.03-.188.023-.066.054-.136.086-.208.03-.066.242-.36.336-.412 0-.028-.008-.01.01-.042.057-.114.59-.47.708-.55.31-.215.88-.485.963-.556-.32-.205-3.514-2.027-3.63-2.048-.158.022-.58.232-.722.31-.285.153-.455.327-.683.456-.312.195-.533.606-.587.818-.04.15-.074.265-.065.402.005.092.054.31.12.4zm-.443-4.808c.91.518 2.092.6 3.173.356.194-.045.343-.105.538-.163.272-.078.428-.185.656-.32.847-.507 1.037-1.263.668-1.83-.303-.467-.922-.83-1.74-.998-.6-.123-1.51-.14-2.082.034-.522.16-.68.183-1.162.473-.58.344-.866.81-.884 1.24-.017.397.182.835.834 1.207zm16.98-1.95c-.185-.103-.093-.303-.046-.477l.07-.24c.174-.435.684-.872 1.48-.99.43-.064 1.2.043 1.574.148a9.36 9.36 0 0 1 1.592.64c.667.342 1.968 1.098 2.43 1.58.273.286.342.365.515.694.09.166.163.322.16.466-.003.288-.113.665-.592.95-.365.218-.977.49-1.374.536l-5.81-3.305zm-13.53 3.81c2.032 1.197 4.153 2.37 6.22 3.548.544.31 6.12 3.523 6.225 3.52.108-.005 3.26-1.927 3.89-2.298.1-.057.203-.096.197-.162-.008-.072-2.75-1.598-3.053-1.77l-8.56-4.88c-.98-.558-.58-.582-1.815.157l-2.06 1.23c-.337.2-.744.424-1.052.634l.01.022zm-15.66 22.885c-.15-.092-1.593-1.268-1.708-1.365-.08-.067-.166-.115-.236-.18-.344-.316-.68-.424-.374-.49 1.06-.232 1.288-.27 2.396-.62.2-.06.405-.136.612-.2.197-.06.4-.167.603-.24.714-.263 1.754-.763 1.97-1.278.213-.518-.56-.86-1.69-.665-.826.143-1.564.387-2.397.625l-1.2.297c-.213.057-.66.138-.914.183-.28.052-.307.06-.61.08-.11.01-.19.026-.297.035a7.29 7.29 0 0 1-1.765-.054c-.46-.065-1.405-.323-1.78-.522a20.533 20.533 0 0 1-.585-.327c-.47-.27-1.237-.97-1.304-1.353-.01-.056-.045-.12-.07-.183-.026-.068-.017-.104-.03-.17-.074-.423-.034-.594.136-1.046.045-.122.123-.236.197-.36.016-.027.023-.067.037-.09l.54-.613c.16-.193.14-.145.255-.265.03-.032.033-.048.07-.08l.522-.373c.42-.267.697-.455 1.174-.707.457-.242.395-.224.913-.446.1-.043.216-.11.306-.152.207-.095.395-.163.596-.248.413-.173.794-.285 1.195-.43.263-.093.66-.187.91-.26.39-.114.417-.145.608.005l2.076 1.68c.07.06.16.103.23.17-.112.072-.496.146-.766.225-.535.154-1.206.314-1.726.527-.506.208-1.04.396-1.485.65-.534.303-.473.25-.77.586-.16.18-.164.396.11.57.416.263 1.043.124 1.467.062.378-.057.812-.195 1.22-.28.124-.025 1.518-.45 1.728-.496.078-.017.152-.028.257-.06.18-.053.696-.148.967-.207l.727-.108a7.56 7.56 0 0 1 3.364.27c.163.053.35.155.496.218.5.21.962.52 1.33.79.076.056.086.09.167.146.315.22.65.72.723.984.103.363.158.767.01 1.144-.152.383-.398.763-.752 1.15-.15.166-.385.35-.474.448-.058.065-.064.075-.153.135-.16.106-.223.178-.415.3-.16.102-.32.205-.486.305-.947.57-1 .596-1.98 1.047-1.002.46-2.292.866-3.464 1.146-.295.07-.204.047-.477.087zm42.767-33.2c-.143.084-.205.035-.483-.184-.337-.268-.78-.578-.98-.886-.246-.385-.37-.832.24-1.217.49-.31.98-.38 1.576-.327.8.07 2.077.57 2.528.883l-2.88 1.73z"/><path fill-rule="evenodd" clip-rule="evenodd" fill="#77A636" d="M271.177 451.79l.817-.49c.543-.785 1.145-.783.885-2.008.566.246.802.4 1.375.35.54-.047.957-.346 1.052-.625.187-.55-1.274-1.156-2.037-1.595l-8.077-4.646c-.506-.29-.86-.45-1.396-.35-.508.092-.92.38-1 .65-.19.645 3.318 2.168 4.682 3.103-.99-.016-1.194-.11-2.348.195-.866.23-1.66.67-2.222 1.17-2.928 2.604 1.754 5.563 5.88 4.936 1.567-.24 1.715-.513 2.387-.69zm-52.315 10.958l-.827.497c-.01.02-.05.032-.036.054l-.167.202c-.45.484-.653.72-.854 1.284-.083.23-.145.352-.077.56 2.435.272 2.284.108 4.596 1.27.765-.52 1.302-.89 2.643-1.006.27-.022.203-.01.455-.005l.534-.017c-.593-.65-.632-1.356-2.548-2.14-1.712-.7-2.53-.553-3.724-.7zm-6.584 10.865l.297.17c.313.045.755.2 1.092.272.924.2 2.51.377 3.367.174.003-.96-.055-1.55 1.09-2.677-.707-.406-.998-.708-1.144-1.206-.186-.633.234-.672.376-1.25-1.657.388-3.03.853-4.084 1.926-1.326 1.348-.857 2.168-.994 2.59zm16.056-5.045c-.227-.366-.023-1.532-1.585-2.395-1.035-.57-.3-.19-.824-1.194-.207-.396-.525-.775-.992-1.155 1.037-.532 2.617-.715 3.587-.783 1.22-.084 1.27-.018 1.584.298 1.678 1.693 1.025 3.764-1.77 5.228zm-2.892 6.5c-.997.78-1.625 1.217-3.095 1.64-.882.255-.857.267-1.69-.113-2.608-1.188-3.05-2.923-1.844-4.715.543.086 1.114.262 1.673.326.633.072 1.138.06 1.653.11.34 1.283 1.31 1.92 3.3 2.752zm2.132-3.755c2.462.164 4.66-.11 6.583-1.422.45-.307.8-.624 1.077-.972.41-.514.575-.545-.034-.995-.794-.587-2.233-1.25-3.347-1.285-.686.74-1.02 1.644-3.056 2.363-.51.18-.563.14-.613.444-.13.788-.58 1.608-.61 1.87zm4.448.32c-3.87.866-4.18-.04-5.613.23-.434.082-.79.14-1.16.192a30.25 30.25 0 0 1-2.244.23c.683 1.807 4.187 2.69 6.383 2.618.483-.016 1.26-.115 1.853-.224.954-.177.842-.34 1.053-.857.236-.573.25-1.598-.275-2.19zm-18.777-1.663c-1.134-.676-1.652-1.365-1.867-2.11-.15-.516-.055-.565.892-.99a10.44 10.44 0 0 1 1.792-.604c1.152-.27 2.576-.322 3.612-.222a8.902 8.902 0 0 1 3.525 1.104c-.2.292-.166.436-.125.708.01.058.012.087.02.143l.003.1c-.735-.018-1.23-.067-2.033.14-.34.09-.684.275-1.008.347-.44.094-2.466-.025-4.815 1.382zm76.097-29.11l.96-.576c.27-.364 1.288-.95 1.365-1.833.044-.51-.53-1.32-1.737-1.564-2.606-.527-6.974 2.295-7.332.836-.247-1.003 3.724-2.103 3.868-2.2.44-.295.563-1.37-1.852-.688-4.28 1.207-5.888 4.15-2.06 4.547 1.905.196 4.776-1.31 6.113-1.27 1.53.05.622 1.1-.09 1.58-.943.632-1.896.9-3 1.133-1.37.285-.78 1.293.744 1.017 1.553-.282 2.347-.805 3.023-.98zm-49.588 22.437c-1.007.605-2.02 1.21-3.022 1.818-1.92 1.166-2.34.157-2.292-.068.094-.438 4.527-2.97 5.432-3.472 1.255-.696 2.022-.067 2.05.582l.277 2.524c.04.308.066.516.082.813.015.265.067.58.11.858.044.3-.003.5.133.773.958-.573 1.915-1.148 2.867-1.725.463-.28.956-.65 1.513-.637.59.015.962.36.907.645-.08.412-4.516 2.933-5.4 3.44-.873.5-1.88.443-2.03-.55-.09-.613-.45-4.613-.63-4.997zm19.786-4.504c-1.483.17-1.792-.32-3.02-1.026-.865-.497-2.173-1.157-2.76-1.726-1.066-1.03-.895-2.553.877-3.647 1.863-1.15 4.358-1.265 6.188-.696.905.28 3.59 1.86 4.544 2.44.675.413.46.52.36.932l-.54.324c-1.105.106-.836.238-2.27-.588-1.918-1.105-4.33-3.048-6.74-1.53-1.684 1.057-.415 1.982.75 2.648.73.42 1.456.84 2.19 1.258 1.033.594 1.23.57.925 1.31l-.506.303zm41.794-25.868c.142.92-.55 1.033-2.02.97-1.216-.052-4.21.017-5.21-.106-.14.17-.402.86-.184 1.03.936.537 2.535 1.185 2.13 1.81-.256.394-.866.53-1.366.48-.59-.055-1.12-.47-1.58-.733-.895-.514-8.854-5.018-9.256-5.337-.763-.603.57-1.51 1.757-.985 1.413.623 4.467 2.713 6.19 3.525.29-.61.768-3.782 1.17-4.11.44-.356 1.27-.387 1.733-.094.44.276.196.74.135 1.043-.07.34-.51 1.883-.43 2.065.565.058 1.05.02 1.57.03l4.86.124.5.284zm-20.212 12.883c-1.27.32-1.238.71-3.778.803-4.132.15-7.298-2.886-4.28-5.223 2.05-1.586 5.25-1.753 7.462-.914 2.192.832.687 1.23-.883 2.173-1.093.657-2.857 1.606-3.767 2.288.962.533 2.407.488 3.433.148 3.06-1.013 1.45-2.824 3.235-2.877 1.498-.043.92 1.386.59 1.876-.24.357-.79.767-1.01 1.123l-1.004.606zm-6.4-1.61c-1.06-.56-.798-1.71.31-2.364 1.122-.662 3.003-.796 4.002-.23l-4.31 2.595zm-21.61 18.462l1.006-.605c.205-.33.74-.716 1-1.117 1.42-2.215-1.37-2.438-1.586-1.094-.343 2.12-4.193 2.913-5.644 1.907 1.274-.764 2.547-1.53 3.82-2.297 1.616-.972 3.02-1.336.726-2.172-2.195-.8-5.382-.603-7.37.954-2.808 2.2-.327 5.242 4.342 5.237 1.914 0 2.92-.615 3.705-.81zm-6.4-1.617l4.32-2.59c-.85-.54-2.77-.51-4.015.237-1.134.68-1.323 1.775-.304 2.353zm18.395-13.108c2.75-2.195 8.075.375 5.53 2.37-2.758 2.158-8.113-.31-5.53-2.37z"/><path fill-rule="evenodd" clip-rule="evenodd" fill="#246EB7" d="M118.64 525.73l14.418 1.875-6.797 2.137-7.52-3.928c-.304 1.716 2.815 5.95 1.808 9.44-.4 1.388-.873 2.095-3.362 3.023 3.083.752 8.647 1.26 11.592 1.44 2.49.154 4.217-.356 5.616-1.76 4.167-4.176-6.456-13.274 2.21-16.286-1.19-.365-4.59-.752-5.936-.913-2.05-.245-3.998-.414-5.96-.54-1.077-.07-1.79-.09-2.99.358-3.004 1.12-3.67 3.488-3.077 5.156zm8.236 10.916l-5.782-3.965a1.473 1.473 0 0 1-.068-.063l-.134-.218 14.168 1.696-8.184 2.55zm.93-13.425l-3.57-2.59c1.622 0 3.893.27 5.706.495 1.05.13 4.887.586 5.646.81l-7.782 1.287z"/><path fill-rule="evenodd" clip-rule="evenodd" fill="#000019" d="M195.416 484.743l2.812 1.816c-3.398 1.822-3.542 4.075-1.32 5.864 3.65 2.936 7.398.716 6.887-1.59l1.377.68c1.358-.65.873-.383 1.98-1.15-3.69-2.33-7.177-5.85-9.453-6.885-1.385.54-1.084.45-2.285 1.262zm-27.798 16.077c1.23.6 1.83 1.132 2.774 1.83-3.254 1.934-3.565 3.887-1.354 5.772 1.16.99 2.98 1.83 4.65 1.385 1.365-.363 2.236-1.3 2.334-2.09l.038-.77 1.352.65 1.983-1.1c-.75-.577-1.758-1.126-2.526-1.704-.763-.57-1.478-1.18-2.21-1.774-1.05-.854-3.305-2.898-4.724-3.445-.894.21-1.724.794-2.32 1.244zm21.017-.024c-.887 1.418-4.15 3.028-6.4 3.348-4.478.635-9.31-2.988-8.18-5.97.472-1.244 2.648-3.188 5.27-3.587.573.393.962.857 1.056 1.3-1.655.675-2.74 1.004-3.283 2.144-.375.79-.114 1.538.63 2.35 1.8 1.97 4.328 2.815 7.374.71l-3.05-2.433c.337-.47 1.23-1.002 2-1.255.437.013.09-.066.51.118l4.076 3.278zm-42.244 22.28c.498.542.567.83 1.337 1.384 2.382-.954 4.396-1.524 5.528-3.228.714-1.075.57-2.79-2.044-3.51-2.022-.558-4.525.467-6.35.416-1.626-.045-1.75-.914-.91-1.555 1.117-.85 1.9-.903 3.2-1.37-.306-.47-.53-.852-1.187-1.325-8.985 3.073-4.77 6.15-1.993 6.138 2.828-.01 5.09-1.052 6.23-.146 1.862 1.48-3.21 2.95-3.81 3.195zm14.39-13.3c-.282-2.213 2.714-3.415 4.744-2.55 1.178.502 4.546 3.32 5.485 4.15l-2.225 1.25c-2.203-1.43-4.188-4.18-5.822-3.583-2.556.937 2.457 4.216 3.3 4.986-.524.5-1.327.953-2.184 1.28-.988-.617-2.245-1.784-3.126-2.505-1.136-.93-2.336-1.61-3.487-2.476 2.243-1.694 2.27-.954 3.313-.556zm1.95 5.96c-1.46 1.732-4.336 3.397-7.124 2.92-2.592-.443-4.39-2.346-4.067-4.005.16-.813.78-1.66 2.227-2.347 2.807-1.33 5.867.058 4.582 2.122-.59.946-1.777 1.538-2.34 2.292 2.4 1.178 4.23-1.29 4.715-1.682.66.147 1.34.35 2.005.702zm27.357-15.44l2.186-1.27c-1.015-.898-2.228-1.725-3.165-2.63-1.105-1.068-1.09-1.734.79-2.706-.417-.4-.79-.88-1.566-1.223-1.5.58-1.902 1.547-1.612 2.307l-1.27-.617c-.95.38-1.374.672-2.037 1.158 2.88 1.584 4.246 3.455 6.676 4.982zm.425-7.22c-1.688-.95-1.984-.96 1.854-2.917l6.362 5.13c-1.228.807-.748.563-2.15 1.23-1.394-.87-3.88-3.43-5.138-3.97l-.927.525zm-18.67 10.775c1.178.78 2.88 2.215 2.674 3.294-.29 1.514-3.07.996-4.018-1.047-.37-.798-.3-1.383 1.345-2.245zm27.774-16.082c.882.596 1.93 1.498 2.355 2.172.304.482.74 2.088-1.07 1.998-.912-.045-4.894-2.19-1.285-4.17zm-45.09 28.076c-.835-.763-1.177-1.977.764-2.468 1.87.49.596 1.696-.765 2.468z"/><path fill-rule="evenodd" clip-rule="evenodd" fill="#246EB7" d="M134.814 530.544c3.188-1.997 7.136-4.472 5.915-6.983-.368-.75-1.8-1.69-3.28-1.677-3.288.028-3.88 3.37-3.85 4.074.034.834.39 3.672 1.213 4.588zM119.168 529.343c-1.972.933-5.023 3.455-5.773 4.662-.505.813-.63 1.54-.235 2.303.383.734 1.69 1.753 3.233 1.734 1.434-.016 2.76-1.048 3.263-1.82 1.1-1.683.397-5.572-.488-6.88zM188.886 490.635c1.39-.642 1.053-.477 2.206-1.226-.03-.1.003-.066-.084-.22a1.234 1.234 0 0 0-.206-.27c-1.308-1.363-1.704-.79-2.595-.274-1.087.63-1.565.75.68 1.988z"/><path fill-rule="evenodd" clip-rule="evenodd" fill="#45515A" d="M351.19 440.09c1.18-.707 1.503-1.462 1.423-2.122l.928.53 1.72-1.03-4.4-2.52c-.97-.557-2.02-.85-3.122-.815-1.073.017-2.228.363-3.38 1.055-1.224.733-1.815 1.368-2.294 2.085l1.802.485c.418-.58.876-1.07 1.736-1.586 1.24-.742 2.473-.822 3.526-.22l.183.106c-.78.253-1.52.548-2.38 1.063-1.88 1.13-2.39 2.357-.784 3.275l.028.017c1.49.856 3.574.545 5.016-.32zm-.743-1.005c-.846.507-1.908.666-2.626.255l-.026-.016c-.773-.442-.566-1.11.57-1.792.7-.42 1.423-.706 2.043-.88l.507.29c.94.54.7 1.444-.466 2.143zm6.128-2.406l-7.424-4.253 1.765-1.058 1.14.65c-.194-.69-.085-1.465 1.11-2.182 1.734-1.04 3.864-1 5.58-.018l4.738 2.714-1.764 1.058-4.22-2.415c-1.152-.662-2.41-.683-3.46-.053-1.02.61-1.045 1.435.108 2.095l4.19 2.4-1.762 1.056zm11.57-6.757c1.252-.752 1.435-1.586 1.23-2.37l1.236.708 1.766-1.056-10.265-5.88-1.763 1.06 3.993 2.286c-1.257-.07-2.664.064-3.93.825-1.838 1.1-2.18 2.938.28 4.347l.03.016c2.462 1.41 5.617 1.15 7.424.066zm-1.055-1.1c1.18-.708 1.272-1.884-.147-2.697l-.028-.016c-1.434-.82-3.426-.73-4.605-.023-1.21.725-1.315 1.844.16 2.69l.03.015c1.432.82 3.395.75 4.59.033zm11.073-5.09l-7.425-4.252 1.764-1.057 1.125.645c-.165-.677-.113-1.433 1.067-2.14 1.107-.666 2.413-.84 3.61-.634-.176-.816.12-1.604 1.285-2.304 1.673-1.005 3.72-1.028 5.534.01l4.738 2.714-1.763 1.058-4.22-2.416c-1.18-.676-2.383-.698-3.373-.104-.962.577-1 1.357.195 2.042l4.19 2.4-1.763 1.057-4.234-2.422c-1.152-.66-2.382-.682-3.358-.097-.98.587-.944 1.39.194 2.043l4.19 2.4-1.76 1.06zm16.872-9.92c2.375-1.425 2.365-3.48.257-4.688l-.028-.016c-2.124-1.218-5.587-1.167-7.947.25s-2.352 3.47-.23 4.685l.03.017c2.108 1.208 5.57 1.158 7.918-.25zm-1.462-.87c1.43-.857 1.264-2.012-.017-2.744l-.028-.018c-1.308-.748-3.367-.783-4.75.047-1.414.847-1.25 2 .044 2.742l.028.016c1.295.74 3.353.775 4.723-.047zm6.41-2.296l-7.423-4.252 1.763-1.057 1.673.957c-.63-.925-.5-1.893.912-2.673l1.8 1.03-.103.062c-1.545.927-1.653 2.13.315 3.256l2.826 1.62-1.762 1.056zm8.655-4.99c1.414-.85 1.87-1.766 1.755-2.686l-1.92.114c-.035.697-.34 1.24-1.198 1.757-1.137.683-2.7.83-4.1.25l5.654-3.39c-.156-.105-.297-.203-.45-.292-2.138-1.225-5.23-1.545-7.68-.077-2.2 1.32-2.018 3.255.106 4.47l.028.016c2.292 1.314 5.573 1.176 7.803-.16zm-6.602-1.2l3.948-2.37c-1.213-.558-2.74-.647-3.907.052-1.078.645-1.034 1.56-.04 2.316zm10.648-1.425l1.938-1.162-1.94-1.11-1.938 1.162 1.94 1.11zm3.12-1.872l-1.938-1.11 1.938-1.162 1.94 1.11-1.94 1.163zm3.124-1.87l1.938-1.163-1.94-1.11-1.94 1.16 1.942 1.112z"/><path fill-rule="evenodd" clip-rule="evenodd" fill="#E6E7E8" d="M276.398 28.877h-.002v14.11c-.03 6.838 4.283 13.68 12.938 18.868 17.253 10.34 45.485 10.34 62.738 0 8.615-5.163 12.928-11.966 12.94-18.772V28.877h-.004c.088-6.884-4.223-13.785-12.936-19.007-17.254-10.34-45.485-10.34-62.74 0-8.712 5.222-13.022 12.123-12.934 19.007z"/><path fill-rule="evenodd" clip-rule="evenodd" fill="#A7A9AC" d="M274.28 28.877v-2.114h.11c.335-3.22 1.52-6.396 3.56-9.39 2.32-3.412 5.756-6.588 10.302-9.312C297.218 2.69 308.98 0 320.702 0c11.5 0 23.034 2.585 31.933 7.755h.01l.51.306c4.546 2.726 7.98 5.9 10.302 9.313 2.038 2.995 3.224 6.17 3.56 9.39h.11v18.434h-.135c-.373 3.18-1.58 6.316-3.615 9.27-2.322 3.37-5.73 6.505-10.222 9.197l-.51.306h-.01c-8.898 5.168-20.433 7.754-31.932 7.754-11.725 0-23.485-2.687-32.45-8.06-4.517-2.707-7.937-5.86-10.26-9.25-2.483-3.62-3.718-7.512-3.703-11.427h-.008v-14.11zm4.23 0v.407l.02 1.707h-.02v12l-.01.008c-.012 3.05.98 6.13 2.978 9.042 1.988 2.898 4.966 5.628 8.938 8.008 8.287 4.966 19.27 7.45 30.288 7.45s22-2.483 30.287-7.45l.016-.01c3.95-2.37 6.916-5.082 8.903-7.964 1.992-2.893 2.99-5.953 2.997-8.99h-.008V30.99h-.024l.023-1.81v-.303h.003v-.025c.04-3.073-.938-6.172-2.93-9.102-1.988-2.92-4.977-5.668-8.966-8.062l-.016-.01c-8.286-4.966-19.27-7.45-30.286-7.45-11.02 0-22 2.484-30.288 7.45-3.998 2.396-6.99 5.148-8.98 8.072-1.994 2.93-2.97 6.028-2.932 9.102v.025h.007z"/><path fill-rule="evenodd" clip-rule="evenodd" fill="#E6E7E8" d="M289.334 19.63c-4.52 2.71-7.854 5.872-10.005 9.247h-2.935v14.11c-.028 6.838 4.284 13.68 12.938 18.868 17.252 10.34 45.485 10.34 62.738 0 8.616-5.163 12.928-11.966 12.94-18.772V28.877h-2.935c-2.15-3.375-5.485-6.537-10.005-9.246-17.25-10.34-45.483-10.34-62.736 0z"/><path fill-rule="evenodd" clip-rule="evenodd" fill="#A7A9AC" d="M289.504 19.915c-2.207 1.323-4.13 2.754-5.766 4.268-1.68 1.55-3.056 3.186-4.13 4.872l-.1.154h-2.782v13.78c-.016 3.416 1.078 6.84 3.28 10.05 2.13 3.105 5.295 6.013 9.497 8.53 8.573 5.14 19.884 7.71 31.2 7.71 11.315 0 22.626-2.57 31.198-7.71 4.185-2.506 7.34-5.4 9.47-8.49 2.2-3.192 3.306-6.597 3.31-10V29.21h-2.785l-.1-.154c-1.073-1.686-2.45-3.32-4.13-4.872-1.637-1.513-3.56-2.944-5.766-4.268-8.573-5.138-19.884-7.707-31.2-7.707-11.313 0-22.624 2.57-31.197 7.707zm-6.214 3.78c1.667-1.54 3.625-3 5.875-4.348 8.68-5.202 20.112-7.803 31.538-7.803 11.427 0 22.86 2.6 31.54 7.803 2.248 1.348 4.206 2.807 5.873 4.348 1.67 1.542 3.05 3.168 4.14 4.85h3.09v14.868h-.007c-.076 3.426-1.217 6.84-3.425 10.045-2.182 3.165-5.406 6.124-9.672 8.68-8.68 5.203-20.112 7.803-31.54 7.803-11.425 0-22.857-2.6-31.537-7.8-4.286-2.57-7.52-5.545-9.703-8.727-2.28-3.323-3.41-6.874-3.396-10.425V28.545h3.085c1.09-1.682 2.472-3.308 4.14-4.85z"/><path fill-rule="evenodd" clip-rule="evenodd" fill="#FFF" d="M289.334 9.87c-17.253 10.34-17.253 27.26 0 37.6 17.252 10.34 45.485 10.34 62.738 0s17.253-27.26 0-37.6-45.485-10.34-62.738 0z"/><path fill-rule="evenodd" clip-rule="evenodd" fill="#A7A9AC" d="M289.504 10.153c-4.693 2.812-8.094 6.113-10.202 9.63-1.717 2.866-2.576 5.876-2.576 8.887s.858 6.02 2.576 8.887c2.107 3.517 5.508 6.817 10.202 9.63 8.573 5.137 19.884 7.707 31.2 7.707 11.315 0 22.626-2.57 31.198-7.708 4.693-2.812 8.095-6.113 10.202-9.63 1.717-2.865 2.575-5.876 2.575-8.886s-.86-6.02-2.577-8.887c-2.107-3.517-5.51-6.817-10.202-9.63-8.57-5.138-19.882-7.708-31.2-7.708-11.313 0-22.624 2.57-31.197 7.708zm-10.77 9.29c2.164-3.608 5.64-6.987 10.43-9.857 8.68-5.203 20.113-7.804 31.54-7.804 11.426 0 22.858 2.6 31.538 7.804 4.79 2.87 8.267 6.25 10.43 9.857 1.78 2.972 2.672 6.098 2.672 9.226s-.89 6.252-2.672 9.224c-2.163 3.608-5.64 6.987-10.43 9.857-8.68 5.204-20.112 7.805-31.54 7.805-11.425 0-22.857-2.6-31.537-7.804-4.79-2.87-8.267-6.25-10.43-9.856-1.78-2.972-2.672-6.098-2.672-9.226s.89-6.254 2.672-9.227zM365.303 55.336a2.337 2.337 0 1 1-2.33 4.055l-7.816-4.5a2.34 2.34 0 1 1 2.33-4.057l7.816 4.5z"/><path fill-rule="evenodd" clip-rule="evenodd" fill="#A7A9AC" d="M363.527 58.163a.94.94 0 0 1 .954-1.615l98.063 58.214c6.256 3.713 12.033 8.288 15.032 13.334 1.273 2.14 2.052 4.374 2.167 6.67.117 2.314-.44 4.667-1.842 7.027-1.818 3.062-5.065 6.135-10.127 9.145L324.68 236.006l-.052.03c-10.604 6.04-18.288 8.377-24.944 8.25-6.705-.125-12.276-2.727-18.672-6.55l-18.876-10.974a.938.938 0 1 1 .938-1.622l18.877 10.974.013.006c6.145 3.677 11.468 6.176 17.75 6.295 6.32.12 13.704-2.15 23.99-8.01l.023-.015 143.093-85.068c4.772-2.837 7.804-5.686 9.466-8.485 1.204-2.027 1.684-4.03 1.587-5.983-.1-1.97-.786-3.914-1.91-5.806-2.817-4.738-8.352-9.1-14.372-12.673l-98.06-58.212z"/><path fill-rule="evenodd" clip-rule="evenodd" fill="#E6E7E8" d="M523.634 104.58h-.002v14.112c-.028 6.838 4.282 13.68 12.938 18.868 17.253 10.34 45.485 10.34 62.738 0 8.614-5.163 12.928-11.966 12.94-18.772V104.58h-.005c.088-6.884-4.222-13.785-12.936-19.007-17.253-10.34-45.485-10.34-62.738 0-8.716 5.22-13.025 12.122-12.937 19.006z"/><path fill-rule="evenodd" clip-rule="evenodd" fill="#A7A9AC" d="M521.518 104.58v-2.113h.107c.336-3.218 1.522-6.396 3.56-9.39 2.322-3.41 5.757-6.587 10.303-9.312 8.967-5.374 20.728-8.06 32.45-8.06s23.485 2.686 32.452 8.06c4.546 2.725 7.98 5.9 10.302 9.31 2.038 2.996 3.225 6.173 3.56 9.392h.11v18.436h-.134c-.374 3.18-1.58 6.316-3.616 9.272-2.322 3.37-5.73 6.504-10.222 9.196-8.967 5.375-20.728 8.06-32.45 8.06s-23.485-2.685-32.452-8.06c-4.515-2.705-7.936-5.86-10.26-9.247-2.482-3.62-3.717-7.513-3.702-11.43h-.008v-14.11zm4.227 0v.402l.02 1.712h-.02v11.997l-.008.01c-.013 3.05.98 6.13 2.976 9.043 1.988 2.9 4.966 5.63 8.938 8.008 8.288 4.967 19.27 7.45 30.29 7.45s22-2.483 30.286-7.45c3.957-2.37 6.93-5.087 8.918-7.973 1.993-2.892 2.992-5.952 2.997-8.99h-.007v-12.092h-.022l.023-1.816v-.298h.005v-.024c.04-3.072-.938-6.172-2.93-9.1-1.992-2.925-4.984-5.677-8.982-8.074-8.286-4.966-19.27-7.45-30.287-7.45-11.02 0-22 2.484-30.288 7.45-3.997 2.396-6.99 5.148-8.98 8.073-1.993 2.93-2.97 6.028-2.93 9.1v.026h.005z"/><path fill-rule="evenodd" clip-rule="evenodd" fill="#E6E7E8" d="M536.57 95.335c-4.52 2.708-7.854 5.87-10.006 9.245h-2.933v14.11c-.026 6.84 4.285 13.682 12.94 18.87 17.253 10.34 45.484 10.34 62.737 0 8.615-5.164 12.93-11.967 12.94-18.773v-14.205h-2.936c-2.15-3.374-5.483-6.536-10.004-9.244-17.25-10.34-45.482-10.34-62.735 0z"/><path fill-rule="evenodd" clip-rule="evenodd" fill="#A7A9AC" d="M536.74 95.618c-2.207 1.323-4.13 2.755-5.767 4.268-1.68 1.552-3.056 3.186-4.13 4.872l-.1.154h-2.78v13.78h-.002c-.013 3.417 1.08 6.84 3.283 10.05 2.13 3.107 5.294 6.015 9.496 8.532 8.572 5.138 19.882 7.708 31.197 7.708 11.316 0 22.627-2.57 31.2-7.708 4.183-2.506 7.337-5.4 9.468-8.49 2.2-3.194 3.306-6.598 3.31-10V104.91h-2.78l-.1-.153c-1.075-1.686-2.45-3.32-4.13-4.872-1.638-1.512-3.56-2.944-5.767-4.268-8.573-5.137-19.884-7.707-31.2-7.707-11.313.002-22.623 2.57-31.196 7.708zm-6.215 3.78c1.668-1.54 3.626-2.998 5.875-4.347 8.68-5.2 20.112-7.8 31.538-7.8 11.428 0 22.86 2.6 31.54 7.802 2.248 1.35 4.206 2.808 5.874 4.35 1.668 1.54 3.05 3.167 4.14 4.85h3.086v14.868h-.005c-.073 3.424-1.216 6.84-3.424 10.043-2.183 3.165-5.407 6.125-9.674 8.68-8.68 5.203-20.11 7.804-31.54 7.804-11.425 0-22.856-2.6-31.537-7.803-4.287-2.57-7.52-5.543-9.703-8.726-2.278-3.323-3.41-6.874-3.397-10.425V104.25h3.088c1.09-1.683 2.47-3.31 4.138-4.85z"/><path fill-rule="evenodd" clip-rule="evenodd" fill="#FFF" d="M536.57 85.573c-17.253 10.34-17.253 27.26 0 37.6s45.484 10.34 62.737 0c17.254-10.34 17.254-27.26 0-37.6-17.252-10.34-45.484-10.34-62.737 0z"/><path fill-rule="evenodd" clip-rule="evenodd" fill="#A7A9AC" d="M536.4 85.29c8.68-5.202 20.112-7.803 31.538-7.803 11.428 0 22.86 2.6 31.54 7.803 4.79 2.87 8.267 6.25 10.43 9.858 1.78 2.972 2.67 6.098 2.67 9.226 0 3.127-.89 6.254-2.67 9.226-2.163 3.608-5.64 6.987-10.43 9.858-8.68 5.2-20.112 7.803-31.54 7.803-11.426 0-22.857-2.6-31.537-7.8-4.79-2.873-8.266-6.25-10.43-9.86-1.78-2.97-2.67-6.1-2.67-9.225 0-3.128.89-6.254 2.67-9.226 2.165-3.61 5.64-6.99 10.43-9.86zm.34.567c-4.694 2.813-8.095 6.112-10.202 9.63-1.718 2.865-2.576 5.876-2.576 8.886s.858 6.022 2.576 8.887c2.107 3.517 5.508 6.817 10.202 9.63 8.573 5.137 19.883 7.707 31.198 7.707 11.316 0 22.627-2.57 31.2-7.708 4.693-2.814 8.094-6.114 10.2-9.63 1.72-2.866 2.578-5.877 2.578-8.888s-.86-6.02-2.577-8.887c-2.11-3.517-5.51-6.816-10.203-9.63-8.573-5.137-19.884-7.707-31.2-7.707-11.315 0-22.625 2.57-31.198 7.707zM529.906 137.25a2.338 2.338 0 0 1-3.192-.863 2.34 2.34 0 0 1 .86-3.194l7.817-4.5a2.34 2.34 0 0 1 2.333 4.056l-7.816 4.5z"/><path fill-rule="evenodd" clip-rule="evenodd" fill="#A7A9AC" d="M528.37 134.356a.935.935 0 0 1 .932 1.623L389.19 216.63a.936.936 0 0 1-.933-1.622l140.113-80.654zM401.76 226.687a.935.935 0 1 1-.93-1.623l35.824-20.62v-.003c10.877-6.766 18.247-9.543 25.288-9.293 7.042.25 13.594 3.515 22.892 8.837.023.013.045.028.067.043l71.587 41.26.02.014h.003c2.587 1.588 4.778 3.586 5.975 5.88.663 1.27 1.022 2.634.98 4.07-.038 1.43-.474 2.908-1.398 4.416-1.642 2.674-4.85 5.466-10.19 8.25l-.034.017-81.33 45.407c-4.294 2.395-7.097 5.14-8.63 7.936-.987 1.8-1.445 3.62-1.437 5.376.01 1.753.484 3.457 1.363 5.03 1.243 2.232 3.305 4.204 6.016 5.69.015.01.03.018.045.026l49.223 28.44a.936.936 0 1 1-.938 1.622l-49.222-28.44-.01-.004c-3.02-1.656-5.333-3.884-6.75-6.424-1.03-1.846-1.588-3.855-1.6-5.934-.01-2.073.52-4.2 1.663-6.286 1.693-3.09 4.738-6.09 9.363-8.67l81.327-45.406c.026-.018.055-.034.083-.05 5.018-2.614 7.986-5.164 9.456-7.558.746-1.217 1.098-2.384 1.13-3.49.03-1.094-.255-2.152-.777-3.154-1.03-1.972-2.973-3.726-5.29-5.146h.003l-71.565-41.25-.067-.035c-9.052-5.182-15.4-8.36-22.024-8.595-6.626-.236-13.69 2.458-24.23 9.016l-.002-.002-.028.017-35.857 20.636z"/><path fill-rule="evenodd" clip-rule="evenodd" fill="#E6E7E8" d="M209.33 242.152h-.007v23.85c-.072 17.187 10.767 34.39 32.524 47.43 43.37 25.992 114.34 25.992 157.71 0 21.655-12.98 32.496-30.084 32.525-47.192h.002v-24.088h-.01c.22-17.305-10.613-34.653-32.52-47.78-43.37-25.993-114.338-25.993-157.708 0-21.904 13.127-32.738 30.475-32.517 47.78z"/><path fill-rule="evenodd" clip-rule="evenodd" fill="#A7A9AC" d="M207.208 242.152v-2.115h.042c.317-8.538 3.19-17.03 8.617-25.005 5.584-8.206 13.884-15.87 24.897-22.47l.51-.305h.007c21.96-12.996 50.71-19.495 79.42-19.495 28.714 0 57.46 6.5 79.42 19.495h.01l.51.306c11.013 6.6 19.312 14.263 24.896 22.47 5.43 7.976 8.3 16.466 8.618 25.004h.044v28.317h-.065c-.43 8.44-3.36 16.82-8.786 24.693-5.585 8.103-13.822 15.668-24.707 22.192l-.512.304h-.007c-21.96 12.995-50.706 19.494-79.42 19.494-28.71 0-57.46-6.5-79.42-19.495h-.005l-.51-.306c-10.94-6.558-19.204-14.164-24.79-22.31-5.876-8.57-8.795-17.738-8.758-26.93h-.008V242.15zm4.23 0v.077l.025 2.035h-.026V266l-.008.01c-.037 8.327 2.64 16.682 8.03 24.54 5.25 7.655 13.065 14.834 23.454 21.063l.015.01c21.344 12.792 49.54 19.188 77.772 19.188 28.23 0 56.428-6.395 77.772-19.19l.016-.01c10.346-6.2 18.14-13.342 23.39-20.96 5.385-7.81 8.084-16.122 8.1-24.41h-.008v-21.976h-.03l.027-2.14c.106-8.383-2.53-16.8-7.918-24.714-5.25-7.715-13.104-14.95-23.562-21.22l-.015-.01c-21.345-12.793-49.54-19.19-77.772-19.19-28.232 0-56.428 6.397-77.773 19.19l-.015.01c-10.458 6.27-18.31 13.504-23.562 21.22-5.386 7.915-8.024 16.333-7.917 24.716v.026z"/><path fill-rule="evenodd" clip-rule="evenodd" fill="#EDEDEE" d="M241.848 218.91c-11.362 6.81-19.742 14.756-25.15 23.242h-7.374v23.85c-.072 17.187 10.768 34.39 32.524 47.43 43.37 25.992 114.34 25.992 157.71 0 21.655-12.98 32.497-30.084 32.526-47.192v-24.088h-7.376c-5.408-8.486-13.79-16.432-25.15-23.24-43.37-25.995-114.34-25.995-157.71 0z"/><path fill-rule="evenodd" clip-rule="evenodd" fill="#A7A9AC" d="M241.68 218.627c21.737-13.03 50.383-19.543 79.023-19.543 28.64 0 57.287 6.514 79.024 19.542 5.622 3.37 10.518 7.017 14.686 10.868 4.24 3.92 7.73 8.053 10.476 12.326h7.527v24.752h-.005c-.085 8.676-2.927 17.342-8.527 25.465-5.444 7.9-13.497 15.29-24.158 21.677-21.737 13.028-50.384 19.543-79.024 19.543s-57.286-6.515-79.024-19.543c-10.71-6.42-18.79-13.846-24.234-21.787-5.67-8.27-8.488-17.1-8.452-25.926v-24.18h7.524c2.743-4.27 6.234-8.406 10.475-12.324 4.167-3.852 9.062-7.498 14.684-10.868zm.338.567c-5.58 3.344-10.438 6.964-14.576 10.788-4.25 3.928-7.74 8.07-10.465 12.347l-.1.152h-7.22V266h-.002c-.037 8.694 2.742 17.395 8.337 25.553 5.393 7.864 13.4 15.225 24.026 21.594 21.632 12.964 50.156 19.446 78.686 19.446 28.53 0 57.054-6.482 78.687-19.446 10.578-6.34 18.56-13.662 23.955-21.486 5.593-8.114 8.396-16.77 8.412-25.42v-23.76h-7.226l-.1-.154c-2.724-4.277-6.213-8.418-10.463-12.347-4.14-3.824-8.997-7.443-14.576-10.787-21.632-12.965-50.155-19.447-78.686-19.447-28.53 0-57.053 6.482-78.685 19.447z"/><path fill-rule="evenodd" clip-rule="evenodd" fill="#FFF" d="M241.848 194.372c-43.37 25.993-43.37 68.527 0 94.52 43.37 25.993 114.34 25.993 157.71 0 43.37-25.993 43.37-68.527 0-94.52-43.37-25.994-114.34-25.994-157.71 0z"/><path fill-rule="evenodd" clip-rule="evenodd" fill="#A7A9AC" d="M242.018 194.655c-11.872 7.115-20.478 15.47-25.817 24.38-4.363 7.282-6.546 14.94-6.546 22.596s2.183 15.315 6.548 22.6c5.34 8.91 13.947 17.264 25.818 24.38 21.632 12.963 50.156 19.446 78.686 19.446 28.53 0 57.054-6.482 78.687-19.447 11.87-7.116 20.48-15.47 25.818-24.38 4.366-7.285 6.55-14.94 6.55-22.598s-2.184-15.31-6.55-22.596c-5.34-8.91-13.946-17.265-25.816-24.38-21.632-12.964-50.156-19.447-78.686-19.447s-57.054 6.482-78.686 19.447zm-26.385 24.04c5.395-9 14.077-17.434 26.045-24.607 21.738-13.028 50.384-19.542 79.024-19.542s57.287 6.514 79.024 19.542c11.97 7.173 20.65 15.605 26.047 24.608 4.43 7.39 6.644 15.162 6.644 22.936s-2.215 15.545-6.644 22.936c-5.396 9-14.077 17.435-26.047 24.607-21.737 13.028-50.384 19.543-79.024 19.543s-57.286-6.515-79.024-19.543c-11.97-7.173-20.65-15.605-26.046-24.607-4.43-7.39-6.644-15.163-6.644-22.936s2.216-15.546 6.645-22.936zm183.757-24.04z"/><path fill-rule="evenodd" clip-rule="evenodd" fill="#E6E7E8" d="M506.942 383.48h-.003v14.11c-.03 6.837 4.28 13.68 12.936 18.867 17.253 10.34 45.485 10.34 62.738 0 8.614-5.163 12.928-11.967 12.938-18.772v-14.207h-.003c.087-6.885-4.224-13.786-12.937-19.008-17.253-10.34-45.485-10.34-62.738 0-8.712 5.22-13.022 12.123-12.934 19.007z"/><path fill-rule="evenodd" clip-rule="evenodd" fill="#A7A9AC" d="M504.825 383.48v-2.115h.11c.334-3.22 1.52-6.396 3.56-9.39 2.32-3.41 5.755-6.587 10.3-9.312 8.968-5.374 20.73-8.062 32.452-8.062 11.725 0 23.484 2.69 32.45 8.064 4.547 2.725 7.98 5.9 10.304 9.31 2.04 2.996 3.226 6.173 3.56 9.392h.11v18.432h-.133c-.374 3.18-1.58 6.314-3.616 9.27-2.32 3.37-5.73 6.505-10.22 9.197-8.968 5.373-20.728 8.06-32.45 8.06-11.726 0-23.486-2.687-32.453-8.06-4.515-2.707-7.936-5.86-10.26-9.25-2.483-3.62-3.717-7.513-3.702-11.427h-.01v-14.11zm4.23 0v.4l.02 1.712h-.02v11.998l-.01.008c-.012 3.052.98 6.13 2.977 9.042 1.988 2.9 4.967 5.628 8.938 8.01 8.287 4.966 19.27 7.45 30.287 7.45s22-2.484 30.288-7.45c3.956-2.372 6.927-5.09 8.916-7.975 1.995-2.893 2.995-5.953 3-8.99h-.007v-12.093h-.024l.023-1.81v-.304h.003v-.026c.04-3.072-.938-6.172-2.93-9.1-1.99-2.926-4.983-5.678-8.98-8.074-8.288-4.966-19.27-7.45-30.288-7.45s-22 2.484-30.287 7.45c-3.997 2.396-6.99 5.148-8.98 8.073-1.992 2.93-2.97 6.03-2.93 9.1v.027h.005z"/><path fill-rule="evenodd" clip-rule="evenodd" fill="#E6E7E8" d="M519.88 374.233c-4.522 2.708-7.855 5.87-10.006 9.245h-2.934v14.11c-.028 6.838 4.283 13.682 12.938 18.868 17.253 10.34 45.484 10.34 62.737 0 8.614-5.163 12.928-11.967 12.94-18.772v-14.206h-2.935c-2.152-3.375-5.485-6.537-10.006-9.245-17.25-10.34-45.482-10.34-62.735 0z"/><path fill-rule="evenodd" clip-rule="evenodd" fill="#A7A9AC" d="M520.048 374.517c-2.206 1.323-4.128 2.755-5.766 4.268-1.68 1.552-3.056 3.186-4.13 4.87l-.1.155h-2.782v13.78c-.015 3.418 1.08 6.84 3.282 10.053 2.128 3.105 5.294 6.013 9.494 8.53 8.573 5.14 19.885 7.708 31.2 7.708s22.626-2.567 31.198-7.705c4.183-2.506 7.34-5.4 9.468-8.49 2.2-3.193 3.306-6.598 3.312-10h-.002V383.81h-2.785l-.1-.154c-1.072-1.686-2.45-3.32-4.13-4.87-1.636-1.514-3.558-2.945-5.766-4.27-8.57-5.137-19.882-7.706-31.197-7.706s-22.623 2.57-31.196 7.707zm-6.213 3.78c1.667-1.54 3.625-3 5.875-4.347 8.68-5.203 20.112-7.804 31.538-7.804s22.858 2.6 31.538 7.804c2.25 1.348 4.207 2.806 5.875 4.347 1.67 1.542 3.05 3.168 4.14 4.85h3.088v14.866h-.005c-.074 3.427-1.216 6.842-3.424 10.046-2.183 3.165-5.406 6.123-9.673 8.68-8.68 5.203-20.112 7.804-31.538 7.804s-22.86-2.6-31.54-7.803c-4.286-2.57-7.52-5.543-9.702-8.726-2.28-3.322-3.41-6.872-3.396-10.425v-14.444h3.085c1.09-1.682 2.47-3.308 4.14-4.85z"/><path fill-rule="evenodd" clip-rule="evenodd" fill="#FFF" d="M519.88 364.472c-17.255 10.34-17.255 27.26 0 37.6 17.252 10.34 45.483 10.34 62.736 0s17.253-27.26 0-37.6-45.484-10.34-62.737 0z"/><path fill-rule="evenodd" clip-rule="evenodd" fill="#A7A9AC" d="M519.71 364.188c8.68-5.2 20.112-7.803 31.538-7.803s22.858 2.602 31.538 7.803c4.79 2.87 8.267 6.25 10.43 9.857 1.78 2.973 2.672 6.1 2.672 9.227s-.89 6.254-2.672 9.226c-2.163 3.61-5.64 6.987-10.43 9.858-8.68 5.202-20.112 7.803-31.538 7.803s-22.858-2.603-31.538-7.805c-4.79-2.87-8.268-6.25-10.43-9.858-1.78-2.972-2.673-6.098-2.673-9.226s.892-6.253 2.672-9.226c2.16-3.608 5.64-6.986 10.43-9.857zm.338.567c-4.693 2.812-8.094 6.112-10.2 9.63-1.72 2.865-2.577 5.876-2.577 8.887 0 3.01.86 6.02 2.578 8.887 2.107 3.515 5.508 6.815 10.2 9.63 8.574 5.136 19.886 7.705 31.2 7.705s22.627-2.57 31.2-7.706c4.693-2.814 8.094-6.115 10.2-9.63 1.72-2.867 2.577-5.88 2.577-8.89s-.858-6.02-2.576-8.886c-2.108-3.518-5.51-6.817-10.203-9.63-8.572-5.138-19.883-7.708-31.198-7.708s-22.628 2.57-31.2 7.708zM107.936 570.373a.937.937 0 1 1 .94 1.622l-16.26 9.453-.022.013c-6.386 3.82-11.953 6.415-18.65 6.54-6.666.126-14.36-2.215-24.982-8.272l-.044-.026v.002l-37.17-24.01C.93 548.704-1.465 541.85.76 535.558c2.166-6.122 8.81-11.567 16.243-16.02l210.984-126.344c15.69-9.396 17.95-16.984 13.977-23.617-3.748-6.26-12.887-11.89-21.76-17.355-8.738-5.383-17.226-10.612-20.455-16.367-3.345-5.96-1.268-12.233 11.316-19.293l19.978-11.206a.937.937 0 1 1 .917 1.636L211.98 318.2c-11.36 6.372-13.384 11.77-10.597 16.737 2.995 5.338 11.276 10.44 19.802 15.69 9.066 5.587 18.402 11.338 22.385 17.988 4.54 7.582 2.286 16.062-14.623 26.187L17.963 521.146c-7.11 4.258-13.442 9.4-15.436 15.034-1.934 5.466.33 11.538 10.233 17.935l37.16 24.002c10.29 5.862 17.673 8.13 23.993 8.012 6.272-.12 11.587-2.61 17.72-6.277a.378.378 0 0 1 .043-.026l16.26-9.455z"/><path fill-rule="evenodd" clip-rule="evenodd" fill="#A7A9AC" d="M226.963 311.633a2.338 2.338 0 1 1-2.33-4.052l13.09-7.536a2.338 2.338 0 1 1 2.33 4.056l-13.09 7.533zM321.143 245.323c2.938 0 5.333-1.38 5.333-3.076 0-1.693-2.396-3.074-5.333-3.074-2.938 0-5.334 1.38-5.334 3.074 0 1.695 2.393 3.076 5.332 3.076z"/><path fill-rule="evenodd" clip-rule="evenodd" fill="#F1F2F2" d="M352.49 230.854c1.894 1.917 3.275 3.967 4.145 6.08h3.55c3.217 0 5.85 1.598 5.85 3.55v3.846c0 1.953-2.633 3.55-5.85 3.55h-3.55c-.87 2.113-2.25 4.164-4.145 6.08l2.506 1.522c2.274 1.38 2.274 3.64 0 5.02l-4.48 2.72c-2.274 1.38-5.997 1.38-8.27 0l-2.507-1.52c-3.16 1.15-6.54 1.988-10.02 2.516v2.153c0 1.955-2.63 3.55-5.85 3.55h-6.336c-3.217 0-5.85-1.595-5.85-3.55v-2.152c-3.48-.527-6.86-1.366-10.017-2.515l-2.506 1.52c-2.274 1.38-5.996 1.38-8.27 0l-4.48-2.72c-2.276-1.38-2.276-3.64 0-5.02l2.505-1.522c-1.894-1.916-3.275-3.966-4.145-6.08h-3.548c-3.217 0-5.85-1.596-5.85-3.55v-3.845c0-1.952 2.633-3.55 5.85-3.55h3.55c.87-2.113 2.25-4.164 4.144-6.08l-2.506-1.52c-2.275-1.382-2.275-3.64 0-5.022l4.48-2.72c2.275-1.38 5.997-1.38 8.272 0l2.505 1.52c3.158-1.148 6.537-1.987 10.02-2.515v-2.154c0-1.952 2.63-3.55 5.848-3.55h6.336c3.22 0 5.85 1.598 5.85 3.55v2.154c3.48.528 6.86 1.366 10.02 2.517l2.506-1.522c2.274-1.38 5.997-1.38 8.27 0l4.48 2.72c2.275 1.38 2.275 3.64 0 5.02l-2.505 1.522zm-18 3.186c-7.615-4.622-19.96-4.622-27.573 0-7.613 4.62-7.613 12.114 0 16.736 7.614 4.62 19.958 4.62 27.572 0 7.613-4.622 7.613-12.115 0-16.736z"/><path fill-rule="evenodd" clip-rule="evenodd" fill="#A7A9AC" d="M321 212.695a.332.332 0 0 1 .662 0v29.677c0 .184-.147.33-.33.33a.33.33 0 0 1-.332-.33v-29.677z"/><path fill-rule="evenodd" clip-rule="evenodd" fill="#00799B" d="M352.49 176.845c1.894 1.917 3.275 3.967 4.145 6.08h1.4v-3.314h7.998v10.714c0 1.952-2.632 3.55-5.85 3.55h-3.55a16.42 16.42 0 0 1-.778 1.628h.844v8.37c.05.948-.52 1.905-1.705 2.625l-4.48 2.72c-2.274 1.38-5.997 1.38-8.27 0l-2.507-1.522c-3.158 1.15-6.538 1.988-10.02 2.516v2.153c0 1.952-2.63 3.55-5.85 3.55h-6.335c-3.217 0-5.85-1.598-5.85-3.55v-2.154c-3.48-.53-6.86-1.367-10.017-2.517l-2.506 1.52c-2.275 1.38-5.997 1.38-8.272 0l-4.48-2.718c-1.183-.718-1.75-1.673-1.703-2.62v-8.548h.75c-.255-.48-.484-.967-.686-1.455h-3.55c-3.216 0-5.85-1.597-5.85-3.55v-10.797h11.287a21.39 21.39 0 0 1 2.257-2.68l-2.506-1.52c-1.114-.676-1.682-1.562-1.706-2.45v-8.548h12.883v2.576c.57.167 1.103.394 1.574.68l2.505 1.52c3.158-1.148 6.537-1.987 10.02-2.515v-2.153c0-1.953 2.63-3.55 5.848-3.55h6.336c3.217 0 5.85 1.597 5.85 3.55v2.154c3.48.527 6.86 1.365 10.016 2.515l2.507-1.52c.94-.57 2.127-.906 3.357-1.005v-2.168h11.08v8.103c.14 1.006-.422 2.043-1.685 2.81l-2.505 1.52zm-18 3.185c-7.615-4.622-19.96-4.622-27.573 0-7.613 4.62-7.613 12.114 0 16.736 7.614 4.62 19.958 4.62 27.572 0 7.613-4.62 7.613-12.115 0-16.736z"/><path fill-rule="evenodd" clip-rule="evenodd" fill="#00C0E5" d="M352.49 168.387c1.894 1.917 3.275 3.968 4.145 6.08h3.55c3.217 0 5.85 1.598 5.85 3.55v3.846c0 1.953-2.633 3.55-5.85 3.55h-3.55c-.87 2.113-2.25 4.165-4.145 6.082l2.506 1.52c2.274 1.38 2.274 3.64 0 5.022l-4.48 2.72c-2.274 1.38-5.997 1.38-8.27 0l-2.507-1.52c-3.16 1.148-6.54 1.986-10.02 2.515v2.153c0 1.953-2.63 3.55-5.85 3.55h-6.336c-3.217 0-5.85-1.597-5.85-3.55v-2.154c-3.48-.525-6.86-1.364-10.017-2.513l-2.506 1.52c-2.274 1.38-5.996 1.38-8.27 0l-4.48-2.72c-2.276-1.38-2.276-3.64 0-5.02l2.505-1.52c-1.894-1.918-3.275-3.97-4.145-6.082h-3.548c-3.217 0-5.85-1.598-5.85-3.55v-3.847c0-1.952 2.633-3.55 5.85-3.55h3.55c.87-2.112 2.25-4.164 4.144-6.08l-2.506-1.52c-2.275-1.38-2.275-3.64 0-5.022l4.48-2.72c2.275-1.38 5.997-1.38 8.272 0l2.505 1.52c3.158-1.148 6.537-1.987 10.02-2.515v-2.153c0-1.952 2.63-3.55 5.848-3.55h6.336c3.22 0 5.85 1.598 5.85 3.55v2.154c3.48.53 6.86 1.368 10.02 2.518l2.506-1.52c2.274-1.382 5.997-1.382 8.27 0l4.48 2.718c2.275 1.38 2.275 3.64 0 5.02l-2.505 1.522zm-18 3.186c-7.615-4.62-19.96-4.62-27.573 0-7.613 4.622-7.613 12.114 0 16.736 7.614 4.62 19.958 4.62 27.572 0 7.613-4.624 7.613-12.116 0-16.738z"/><path fill-rule="evenodd" clip-rule="evenodd" fill="#A7A9AC" d="M321 125.295a.33.33 0 0 1 .332-.33.33.33 0 0 1 .33.33v66.583a.33.33 0 0 1-.662 0v-66.583z"/><path fill-rule="evenodd" clip-rule="evenodd" fill="#A7A9AC" d="M310.465 117.535c-1.538.922-2.674 1.998-3.405 3.146h-1v4.805c-.01 2.328 1.46 4.657 4.405 6.422 5.872 3.52 15.482 3.52 21.354 0 2.93-1.757 4.4-4.073 4.402-6.39v-4.835h-1c-.73-1.148-1.865-2.224-3.404-3.145-5.873-3.52-15.483-3.52-21.355 0z"/><path fill-rule="evenodd" clip-rule="evenodd" fill="#EDEDEE" d="M310.465 114.212c-5.873 3.52-5.873 9.28 0 12.8 5.872 3.52 15.482 3.52 21.354 0s5.87-9.28 0-12.8c-5.874-3.52-15.484-3.52-21.356 0z"/><path fill-rule="evenodd" clip-rule="evenodd" fill="#98368A" d="M590.985 89.855c12.747 7.625 12.747 19.988 0 27.613s-33.413 7.625-46.16 0-12.747-19.988 0-27.613 33.413-7.625 46.16 0z"/><path fill-rule="evenodd" clip-rule="evenodd" fill="#FFF" d="M560.78 91.913l1.424-.85 11.75 7.03-1.72 1.03-3.52-2.106-1.496 6.985 8.907.135-2.545-1.88 1.197-.807 10.63 6.18-2.47.312-2.77-1.568-13.176-.805-5.31 3.177 3.816 2.553-.974.583-11.825-6.895 1.123-.762 3.816 2.015 5.165-3 1.123-9.177-3.14-2.15zm9.956 21.806l1.797 1.073-1.722 1.03-1.794-1.076 1.72-1.03zm12.5-2.733l-3.368-2.463-7.56 4.612 1.423.672 9.508-2.822z"/><path fill-rule="evenodd" clip-rule="evenodd" fill="#E22439" d="M304.295 14.752l7.56-2.273 10.63-1.367c2.242-.093 3.21-.524 6.434 1.423l3.614 2.186c3.04 1.77 1.203 2.154-1.155 2.458l-17.498 2.25c-2.15.275-4.32 1.666-4.82 3.088l-.528 1.497-3.777 6.03c-.56 1.324-1.383 1.942-3.408.718l-1.64-1.173c-2.456-1.483-2.583-1.978-1.943-3.565l3.57-8.86c.562-1.4.88-1.788 2.957-2.413z"/><path fill-rule="evenodd" clip-rule="evenodd" fill="#4A7BBE" d="M304.042 13.483l8.586-1.104-5.34 15.17-1.77 5.03c-.56 1.326-1.382 1.943-3.408.72l-4.604-2.78c-2.455-1.484-2.51-1.95-1.94-3.565l3.653-10.384c.5-1.422 2.67-2.812 4.82-3.09zm5.02 9.034l-1.772 5.033 1.77-5.033z"/><path fill-rule="evenodd" clip-rule="evenodd" fill="#FEBC11" d="M337.225 38.392l-4.435 1.462-12.994 1.668c-2.24.092-3.208.523-6.43-1.423l-3.62-2.188c-3.04-1.77-1.2-2.155 1.157-2.458l17.497-2.248c2.15-.276 4.32-1.666 4.82-3.09l.594-1.684 3.796-6.518c.56-1.325 1.382-1.943 3.407-.72l2.234 2.105c2.456 1.482 2.54 1.96 1.94 3.563l-3.144 8.437c-.525 1.415-2.76 2.413-4.82 3.092z"/><path fill-rule="evenodd" clip-rule="evenodd" fill="#00A651" d="M338.24 39.154l-8.586 1.103 5.338-15.17 1.77-5.032c.562-1.326 1.384-1.943 3.41-.72l4.603 2.782c2.454 1.483 2.51 1.95 1.94 3.564l-3.653 10.386c-.5 1.422-2.67 2.812-4.822 3.09zm-5.018-9.035l1.77-5.035-1.77 5.033z"/><path fill-rule="evenodd" clip-rule="evenodd" fill="#28B5DB" d="M554.528 366.036c3.06 2.034 4.217 4.855 3.473 7.485 3.058-.17 6.203.523 8.54 2.078 3.05 2.027 3.894 4.967 2.53 7.5 1.75.455 3.393 1.153 4.808 2.094 5.492 3.654 5.492 9.577 0 13.23-5.492 3.654-14.397 3.654-19.89 0-.646-.43-1.214-.89-1.707-1.373-3.476.51-7.257-.137-9.96-1.935-1.054-.7-1.843-1.51-2.37-2.374-4.235 1.054-9.19.447-12.6-1.817-3.627-2.415-4.423-6-2.385-8.928a11.376 11.376 0 0 1-1.944-1.027c-4.214-2.803-4.214-7.348 0-10.15 2.92-1.94 7.098-2.538 10.79-1.788.613-1.093 1.578-2.116 2.897-2.993 4.922-3.275 12.9-3.275 17.822 0z"/><path fill-rule="evenodd" clip-rule="evenodd" fill="#FFF" d="M536.138 375.077c-.22.146-.456.248-.71.304a2.4 2.4 0 0 1-.778.047 3.066 3.066 0 0 1-.797-.192 3.887 3.887 0 0 1-.765-.396 3.082 3.082 0 0 1-.39-.304 2.494 2.494 0 0 1-.275-.296 1.728 1.728 0 0 1-.162-.245.43.43 0 0 1-.052-.168c-.002-.044.02-.093.068-.146.046-.053.134-.123.262-.21.083-.054.153-.097.21-.126a.874.874 0 0 1 .147-.064.214.214 0 0 1 .106-.01.182.182 0 0 1 .08.033c.033.02.064.065.09.132a2.18 2.18 0 0 0 .32.537c.085.11.21.218.367.322.1.065.2.12.297.156.1.04.195.065.292.077a.745.745 0 0 0 .52-.113c.088-.06.135-.126.143-.204s-.01-.162-.054-.252a2.235 2.235 0 0 0-.175-.29 5.643 5.643 0 0 1-.212-.323 2.424 2.424 0 0 1-.182-.345.882.882 0 0 1-.07-.36.768.768 0 0 1 .118-.365c.076-.124.207-.247.39-.368.187-.124.394-.21.624-.266.228-.053.467-.07.716-.053.25.02.504.075.765.167a3.445 3.445 0 0 1 1.098.643c.1.088.183.175.25.253.07.08.122.152.156.217.034.062.055.11.062.144a.138.138 0 0 1-.006.086c-.012.02-.027.045-.053.07-.024.022-.056.052-.097.085-.04.034-.095.07-.163.117-.077.052-.143.094-.196.123s-.102.05-.14.06a.18.18 0 0 1-.18-.018.254.254 0 0 1-.08-.113 1.382 1.382 0 0 0-.112-.206 2.47 2.47 0 0 0-.195-.26 1.62 1.62 0 0 0-.334-.282 1.58 1.58 0 0 0-.29-.154.974.974 0 0 0-.273-.063.767.767 0 0 0-.237.018.644.644 0 0 0-.2.084c-.09.06-.137.13-.143.206a.525.525 0 0 0 .06.255c.046.09.106.19.183.295.076.104.15.213.222.323.07.11.134.228.186.348.052.12.078.24.077.363a.73.73 0 0 1-.113.367 1.21 1.21 0 0 1-.374.36zm2.907 3.414l2.616-1.737c.27-.177.47-.353.597-.524.13-.173.186-.348.168-.524-.018-.175-.105-.356-.265-.54-.16-.187-.395-.382-.704-.588a4.163 4.163 0 0 0-.547-.308 4.87 4.87 0 0 0-.56-.23 4.618 4.618 0 0 0-.504-.146 1.796 1.796 0 0 0-.354-.053.688.688 0 0 0-.224.04 1.494 1.494 0 0 0-.406.257.623.623 0 0 0-.102.12.143.143 0 0 0-.025.1c.004.03.02.054.056.076.047.03.128.057.243.08.115.023.255.056.416.097.16.04.334.096.52.165.186.07.372.166.557.29.14.092.244.18.312.263a.372.372 0 0 1 .093.242.4.4 0 0 1-.106.235 1.32 1.32 0 0 1-.283.238l-.235.156-.385-.258a7.377 7.377 0 0 0-.998-.56 3.674 3.674 0 0 0-.903-.28 2.302 2.302 0 0 0-.817.01 1.96 1.96 0 0 0-.724.303c-.208.14-.356.283-.443.436a.727.727 0 0 0-.096.46c.022.156.093.31.214.46.12.153.288.3.494.438.254.168.53.29.833.363.303.075.62.11.953.104l-.31.206c-.04.027-.06.056-.058.088 0 .032.027.072.078.12.05.046.14.113.272.2.126.084.224.143.297.178a.54.54 0 0 0 .19.06c.052 0 .1-.01.138-.037zm.576-1.834l-.66.44a3.873 3.873 0 0 1-.744-.036 1.392 1.392 0 0 1-.546-.208c-.187-.124-.285-.25-.295-.382-.012-.13.063-.25.227-.358a.928.928 0 0 1 .31-.133.99.99 0 0 1 .363-.013c.133.018.273.06.428.126.15.068.316.16.495.28l.423.28zm1.497 3.197a.188.188 0 0 1-.103.032.36.36 0 0 1-.145-.023 1.598 1.598 0 0 1-.203-.09c-.078-.04-.172-.1-.28-.172a3.033 3.033 0 0 1-.258-.187.878.878 0 0 1-.138-.133c-.028-.038-.04-.07-.034-.097a.1.1 0 0 1 .05-.068l5.73-3.812c.03-.02.064-.03.106-.034a.408.408 0 0 1 .148.02c.06.017.127.047.206.09.08.04.174.096.282.17s.194.133.256.186c.06.05.106.098.132.136.03.038.038.072.032.098-.005.028-.022.05-.052.07l-5.73 3.814zm6.636 1.676l.173-.116a2.91 2.91 0 0 0 .653-.574c.16-.203.25-.412.27-.623a1.01 1.01 0 0 0-.18-.65c-.135-.218-.37-.437-.697-.656a3.474 3.474 0 0 0-2.07-.583c-.366.013-.734.08-1.102.204-.37.125-.724.303-1.07.53-.362.243-.636.48-.82.72-.182.236-.274.474-.275.708 0 .236.088.47.264.7.175.235.437.467.79.7.192.13.39.24.583.338.195.096.376.176.543.242.166.065.31.115.43.148.122.033.2.05.24.05a.6.6 0 0 0 .216-.048c.038-.017.082-.04.13-.067.047-.03.103-.063.167-.105.07-.048.13-.09.173-.124a.368.368 0 0 0 .087-.09c.015-.024.018-.046.01-.065-.007-.018-.024-.035-.05-.054a.82.82 0 0 0-.214-.086c-.1-.027-.218-.067-.36-.115s-.298-.115-.473-.193a4.1 4.1 0 0 1-.553-.313 1.6 1.6 0 0 1-.417-.375.564.564 0 0 1-.12-.367.613.613 0 0 1 .153-.353c.095-.118.223-.23.388-.34l2.397 1.594a.59.59 0 0 0 .35.103.743.743 0 0 0 .386-.14zm-.764-.924c.316-.198.495-.4.537-.607.043-.208-.076-.403-.356-.59a1.298 1.298 0 0 0-.446-.19 1.51 1.51 0 0 0-.473-.036 1.913 1.913 0 0 0-.472.104c-.16.056-.31.128-.45.214l1.66 1.105zm3.334 3.906c-.22.148-.457.25-.71.307-.25.055-.51.07-.778.043a3.06 3.06 0 0 1-.797-.19 3.918 3.918 0 0 1-.766-.397 3.382 3.382 0 0 1-.39-.302 2.343 2.343 0 0 1-.275-.296 1.38 1.38 0 0 1-.163-.244.42.42 0 0 1-.055-.17c0-.042.022-.09.07-.145.046-.056.134-.126.262-.21a2.3 2.3 0 0 1 .21-.13.87.87 0 0 1 .147-.062.22.22 0 0 1 .106-.01.195.195 0 0 1 .08.033c.03.02.063.065.088.13.026.07.064.148.116.24a2 2 0 0 0 .204.3c.086.11.21.217.368.32.1.068.2.12.297.16.097.037.193.062.29.075a.745.745 0 0 0 .52-.112c.086-.058.134-.126.143-.203a.487.487 0 0 0-.054-.254 2.364 2.364 0 0 0-.176-.288 5.65 5.65 0 0 1-.214-.323 2.476 2.476 0 0 1-.18-.346.885.885 0 0 1-.07-.36.76.76 0 0 1 .118-.367c.076-.122.207-.245.39-.367.187-.122.394-.21.623-.266.23-.053.47-.072.718-.053.25.02.506.075.766.167a3.572 3.572 0 0 1 1.098.643c.1.09.184.175.252.255.068.08.12.15.154.215a.614.614 0 0 1 .063.145.142.142 0 0 1-.006.084.31.31 0 0 1-.053.068 1.08 1.08 0 0 1-.097.086 3.393 3.393 0 0 1-.358.24.808.808 0 0 1-.14.062.22.22 0 0 1-.102.012.28.28 0 0 1-.076-.03.26.26 0 0 1-.078-.115 2.167 2.167 0 0 0-.31-.464 1.505 1.505 0 0 0-.333-.283c-.1-.067-.198-.12-.29-.154a1.01 1.01 0 0 0-.272-.064.706.706 0 0 0-.434.104c-.09.06-.14.13-.145.206-.005.078.016.163.06.254s.105.19.182.295c.077.103.15.212.223.322.07.11.134.228.185.347a.86.86 0 0 1 .078.363.73.73 0 0 1-.113.368 1.156 1.156 0 0 1-.374.36zm8.224 4.297c-.33.22-.676.39-1.038.513-.362.122-.73.19-1.107.202a3.646 3.646 0 0 1-1.132-.144 4.034 4.034 0 0 1-1.107-.523c-.35-.232-.608-.467-.77-.704-.164-.235-.24-.472-.228-.706.014-.235.11-.468.296-.7.185-.233.45-.463.79-.692.333-.22.68-.39 1.043-.514.366-.122.734-.19 1.11-.2a3.73 3.73 0 0 1 1.13.147c.375.106.744.28 1.105.52.354.236.61.472.777.706.163.235.24.47.226.703-.013.234-.112.468-.297.7-.182.232-.448.462-.795.694zm-1.182-.73a3.17 3.17 0 0 0 .483-.384c.13-.13.22-.256.262-.385a.503.503 0 0 0-.013-.382c-.058-.126-.18-.25-.365-.375a1.626 1.626 0 0 0-.524-.23 1.75 1.75 0 0 0-.57-.028c-.19.023-.39.076-.59.156-.203.08-.405.19-.612.328-.19.128-.352.256-.48.384-.13.13-.217.26-.263.386a.472.472 0 0 0 .02.38c.057.126.178.25.36.372.17.112.346.19.53.233s.37.054.564.032c.192-.023.39-.075.59-.156.2-.084.4-.19.606-.33zm5.977 1.862c.103-.068.184-.124.24-.167.06-.042.1-.076.125-.1a.32.32 0 0 0 .053-.062.094.094 0 0 0 .014-.054.187.187 0 0 0-.037-.08.927.927 0 0 0-.09-.104 1.344 1.344 0 0 0-.23-.192 1.47 1.47 0 0 0-.643-.233 3.864 3.864 0 0 0-.484-.02c-.186 0-.4.016-.65.044l.485-.322c.028-.02.046-.04.053-.066.008-.024 0-.052-.017-.084a.646.646 0 0 0-.11-.117c-.054-.046-.13-.1-.223-.162-.09-.06-.17-.108-.238-.144a1.152 1.152 0 0 0-.18-.078c-.054-.015-.1-.02-.134-.015a.24.24 0 0 0-.1.035l-3.89 2.587c-.028.02-.044.04-.048.067-.006.026.006.06.034.097.03.037.075.083.137.133.063.053.15.114.26.187s.2.13.28.173c.075.04.145.07.2.09.06.02.106.027.145.023a.223.223 0 0 0 .103-.032l2.425-1.613c.212-.028.396-.05.556-.06.157-.01.3-.01.415 0 .12.01.223.027.31.05.086.025.16.06.222.1.054.035.096.07.13.107.034.035.064.07.09.102.024.032.048.06.065.087.02.028.042.05.064.063.03.02.06.032.095.034a.334.334 0 0 0 .126-.02c.048-.02.108-.047.18-.088.072-.04.16-.096.267-.167zm.457 4.172c-.077.05-.14.09-.198.123-.056.03-.104.056-.147.074-.04.017-.078.03-.11.038s-.083.01-.15.01a1.958 1.958 0 0 1-.305-.04 3.493 3.493 0 0 1-.865-.28 3.228 3.228 0 0 1-.432-.24c-.303-.2-.525-.41-.665-.627a1.02 1.02 0 0 1-.178-.667c.023-.227.126-.455.308-.682.18-.23.438-.453.776-.68.39-.257.776-.45 1.157-.57a3.907 3.907 0 0 1 1.12-.195c.36-.006.71.04 1.04.14.33.102.64.247.93.44a2.15 2.15 0 0 1 .55.517c.063.09.113.174.147.253a.48.48 0 0 1 .05.188c.004.043 0 .076-.01.1s-.027.05-.054.076c-.03.03-.065.06-.11.1-.05.036-.108.077-.182.126-.17.113-.3.183-.4.208s-.17.024-.216-.007a.246.246 0 0 1-.1-.146 2.626 2.626 0 0 0-.062-.22.985.985 0 0 0-.136-.273 1.12 1.12 0 0 0-.318-.292c-.29-.19-.62-.265-.99-.222-.373.046-.772.208-1.195.49-.207.14-.37.273-.495.406a.948.948 0 0 0-.23.38c-.03.12-.02.235.04.346.06.113.164.218.314.318.15.102.306.174.463.217.153.044.3.074.438.094.138.018.257.03.358.038a.446.446 0 0 1 .21.048c.027.018.04.036.044.06s-.01.047-.037.08c-.03.034-.072.073-.127.117-.055.044-.13.098-.227.162zm5.713 1.89l.175-.114c.273-.183.492-.374.653-.575.16-.2.253-.41.273-.622a1 1 0 0 0-.18-.647c-.135-.22-.368-.438-.7-.657a3.472 3.472 0 0 0-2.068-.586c-.367.01-.735.08-1.103.204-.37.124-.726.3-1.07.53-.363.24-.636.48-.82.72-.182.235-.275.473-.276.706 0 .237.088.472.264.703.176.234.438.466.788.7.196.128.39.24.587.337.195.096.375.176.54.24.168.067.312.116.432.15.123.032.202.048.24.048.04 0 .076-.004.11-.012.034-.006.067-.02.106-.036a2.325 2.325 0 0 0 .298-.172c.07-.048.13-.09.175-.123a.425.425 0 0 0 .086-.09c.016-.026.02-.05.01-.068-.006-.018-.023-.035-.05-.054a.86.86 0 0 0-.215-.087 6.67 6.67 0 0 1-.83-.305 4.002 4.002 0 0 1-.555-.313 1.54 1.54 0 0 1-.417-.376.574.574 0 0 1-.122-.365.625.625 0 0 1 .155-.352 1.74 1.74 0 0 1 .39-.34l2.396 1.595c.107.07.224.103.348.1a.73.73 0 0 0 .386-.137zm-.763-.922l-1.66-1.105c.142-.087.29-.16.45-.214.156-.055.312-.09.472-.103.16-.014.316-.002.474.033.155.035.306.1.447.193.28.187.398.382.355.588-.042.208-.22.41-.538.61zm-10.092-11.088a.55.55 0 0 0 .086-.07c.018-.023.027-.045.023-.066 0-.024-.016-.056-.044-.1s-.068-.088-.117-.14a2.7 2.7 0 0 0-.392-.316 2.688 2.688 0 0 0-1.463-.474 3.192 3.192 0 0 0-.804.086c-.278.062-.562.16-.854.29l-.515.232-.483-.322a.242.242 0 0 0-.14-.038.89.89 0 0 0-.184.02.927.927 0 0 0-.202.058c-.067.025-.133.054-.195.08a1.785 1.785 0 0 0-.29.156c-.07.046-.11.083-.113.113-.007.03.01.057.043.08l.494.328-3.94 1.734c-.155.07-.298.123-.422.16-.127.037-.244.06-.352.062a.926.926 0 0 1-.593-.17 1.37 1.37 0 0 1-.104-.073l-.062-.055c-.016-.018-.03-.034-.046-.047-.013-.013-.03-.025-.047-.04a.2.2 0 0 0-.112-.02c-.05.007-.104.02-.163.036-.06.02-.12.04-.187.066a2.77 2.77 0 0 0-.185.08 2.32 2.32 0 0 0-.155.073 1.306 1.306 0 0 0-.093.054.433.433 0 0 0-.078.063.12.12 0 0 0-.026.06c.007.035.05.095.13.18.08.082.196.176.35.277.23.152.465.268.71.347.24.078.49.12.747.127.256.007.518-.023.787-.086.27-.065.55-.16.84-.287l4.107-1.806.72.478c.032.02.074.032.13.032.057 0 .117-.008.18-.023a2.556 2.556 0 0 0 .58-.22c.05-.027.09-.052.12-.07.06-.04.096-.077.107-.106.01-.03-.007-.06-.05-.088l-.708-.47.395-.177c.15-.067.284-.12.41-.157.125-.036.24-.057.346-.062a.92.92 0 0 1 .304.037 1.024 1.024 0 0 1 .418.243.92.92 0 0 1 .093.1l.067.08a.236.236 0 0 0 .054.055c.025.017.062.02.11.017a.96.96 0 0 0 .163-.038c.06-.02.122-.043.187-.07.065-.024.127-.054.183-.08l.153-.078a.847.847 0 0 0 .092-.052z"/></svg>