<?xml version="1.0" encoding="UTF-8" standalone="no"?>
<!DOCTYPE svg PUBLIC "-//W3C//DTD SVG 20010904//EN" "http://www.w3.org/TR/2001/REC-SVG-20010904/DTD/svg10.dtd">
<svg version="1.0" xmlns="http://www.w3.org/2000/svg" width="552.000000pt" height="156.000000pt" viewBox="0 0 552.000000 156.000000" preserveAspectRatio="xMidYMid meet">
<metadata>
Created by potrace 1.10, written by Peter Selinger 2001-2011
</metadata>
<g transform="translate(0.000000,156.000000) scale(0.100000,-0.100000)" fill="#fff" stroke="none">
<path d="M411 1470 c-82 -25 -129 -62 -163 -130 -34 -68 -48 -138 -48 -246 l0 -83 -77 -3 -78 -3 0 -40 0 -40 78 -3 77 -3 0 -423 c0 -473 -4 -450 72 -444 l43 3 5 430 5 430 114 5 c102 4 115 7 121 25 4 11 4 29 0 40 -6 18 -18 21 -121 25 l-114 5 1 115 c1 148 22 200 99 243 49 27 53 28 170 23 84 -3 130 -9 153 -21 l32 -16 0 -644 c0 -712 -4 -669 67 -663 l38 3 3 60 c2 33 6 63 10 67 4 4 27 -11 52 -32 76 -66 143 -94 238 -98 53 -3 88 0 95 7 6 6 20 11 30 11 32 0 103 40 147 82 43 42 76 100 106 188 27 79 26 330 -1 410 -21 61 -72 144 -107 177 -29 26 -98 63 -118 63 -9 0 -21 5 -27 11 -15 15 -169 6 -213 -11 -19 -8 -59 -30 -88 -50 -29 -19 -66 -43 -83 -53 l-29 -19 0 295 c0 163 -3 302 -6 311 -7 19 -75 22 -103 4 -15 -9 -28 -9 -59 0 -62 19 -246 14 -321 -8z m907 -578 c98 -66 142 -175 142 -357 0 -198 -53 -315 -168 -374 -103 -53 -218 -12 -344 123 l-48 51 0 195 0 195 83 80 c93 90 139 113 232 114 50 1 67 -4 103 -27z"/>
<path d="M2917 973 c-14 -13 -6 -35 31 -91 21 -31 87 -128 146 -216 l107 -158 -55 -82 c-57 -85 -120 -175 -199 -288 -26 -37 -48 -77 -50 -90 -2 -21 2 -23 55 -26 l56 -3 107 163 c59 90 117 178 129 195 11 18 26 33 31 33 6 0 68 -88 139 -195 l129 -195 54 0 c41 0 55 4 60 17 8 19 9 16 -142 238 -66 96 -129 190 -140 209 l-19 34 25 33 c24 31 57 79 212 307 74 108 74 122 4 122 -47 0 -56 -3 -73 -27 -29 -39 -101 -144 -163 -234 -87 -129 -71 -133 -191 49 -134 204 -141 212 -200 212 -26 0 -50 -3 -53 -7z"/>
<path d="M4098 975 c-3 -3 -14 -7 -24 -10 -80 -17 -153 -59 -198 -113 -45 -54 -76 -101 -76 -118 0 -8 -7 -28 -15 -45 -21 -39 -31 -233 -17 -321 26 -164 142 -299 277 -323 22 -4 45 -12 52 -17 12 -9 185 -5 253 6 87 15 106 20 144 40 45 23 59 62 32 85 -13 11 -23 11 -53 -1 -146 -58 -335 -64 -428 -14 -27 15 -64 43 -82 63 -38 42 -73 146 -73 215 l0 48 328 0 327 1 19 25 c35 49 6 224 -52 319 -44 71 -146 145 -200 145 -11 0 -24 5 -27 10 -6 10 -177 14 -187 5z m182 -103 c59 -23 81 -39 116 -88 32 -44 72 -180 61 -208 -6 -14 -36 -16 -288 -16 l-282 0 6 50 c13 112 87 216 187 263 46 22 143 22 200 -1z"/>
<path d="M4876 949 c-10 -52 -7 -875 4 -903 8 -22 16 -26 47 -26 69 0 66 -13 64 308 -1 177 2 306 8 329 15 52 118 183 166 210 48 27 104 29 152 6 43 -20 67 -9 71 34 4 44 -47 73 -130 73 -75 0 -132 -25 -196 -87 -59 -56 -72 -56 -72 3 0 68 -12 84 -64 84 -41 0 -44 -2 -50 -31z"/>
<path d="M1863 898 c-86 -113 -105 -172 -106 -323 -2 -121 15 -203 50 -246 7 -8 13 -19 13 -23 0 -13 61 -89 102 -126 46 -43 143 -94 217 -115 143 -40 354 3 457 92 16 14 36 30 45 37 32 23 98 123 121 181 20 52 23 78 23 200 0 154 -12 197 -78 295 -61 88 -16 80 -433 80 l-372 0 -39 -52z m508 -8 c57 -16 125 -67 162 -123 100 -152 68 -366 -70 -467 -154 -113 -382 -62 -469 105 -31 59 -50 174 -35 215 6 18 11 44 11 57 0 37 65 128 122 169 78 58 171 72 279 44z"/>
</g>
</svg>