<!DOCTYPE svg PUBLIC "-//W3C//DTD SVG 1.1//EN" "http://www.w3.org/Graphics/SVG/1.1/DTD/svg11.dtd" [
	<!ENTITY ns_flows "http://ns.adobe.com/Flows/1.0/">
]><svg xmlns="http://www.w3.org/2000/svg" width="72" height="72" viewBox="-5.967 -1.849 72 72" overflow="visible"><path fill-rule="evenodd" clip-rule="evenodd" fill="#F3F4F4" d="M56.52 17.93L29.958 2.988V29.45l4.46 2.386.52 4.877L56.73 49.375"/><path fill="#A7A9AC" d="M30.054 66.15c-1.77.002-3.537-.842-6.458-2.527L9.79 55.663a1.665 1.665 0 1 1 1.664-2.885l13.804 7.96c4.8 2.77 4.8 2.77 9.665-.037l15.834-9.15c4.798-2.775 4.798-2.775 4.798-8.39l-.007-18.29c-.005-5.54-.005-5.54-4.868-8.35L34.838 7.385c-4.802-2.767-4.8-2.77-9.665.04L9.34 16.574c-4.798 2.773-4.798 2.773-4.797 8.39l.004 15.314c0 .92-.745 1.665-1.665 1.665S1.215 41.2 1.215 40.28L1.21 24.965c0-6.832.605-7.885 6.462-11.272L23.508 4.54c5.916-3.417 7.13-3.42 12.992-.042l15.844 9.138c5.917 3.416 6.526 4.465 6.53 11.23l.01 18.292c0 6.832-.604 7.885-6.46 11.273l-15.836 9.154c-2.968 1.713-4.752 2.568-6.534 2.568z"/><path fill-rule="evenodd" clip-rule="evenodd" fill="#00C0E5" d="M30.44 7.264a3.64 3.64 0 0 0 3.634-3.63A3.64 3.64 0 0 0 30.44 0c-2 0-3.63 1.63-3.63 3.633 0 2 1.632 3.63 3.63 3.63z"/><path fill-rule="evenodd" clip-rule="evenodd" fill="#F0516F" d="M56.433 52.773a3.56 3.56 0 0 0 3.555-3.553 3.563 3.563 0 0 0-3.555-3.555 3.562 3.562 0 0 0-3.554 3.555 3.56 3.56 0 0 0 3.552 3.553z"/><path fill-rule="evenodd" clip-rule="evenodd" fill="#B2D235" d="M3.65 52.87c2.01 0 3.65-1.64 3.65-3.65s-1.64-3.65-3.65-3.65S0 47.21 0 49.22s1.64 3.65 3.65 3.65z"/><path fill="#B2D235" d="M24.897 36.392l.552.964L3.915 49.69l-.552-.963z"/><path fill="#F0516F" d="M35.202 36.384l21.51 12.358-.554.962-21.51-12.358z"/><path fill="#00C0E5" d="M29.868 3.633h1.11v24.803h-1.11z"/><path fill="#F0516F" d="M30.048 40.508A6.456 6.456 0 0 1 23.6 34.06a6.455 6.455 0 0 1 6.448-6.446 6.455 6.455 0 0 1 6.448 6.448 6.455 6.455 0 0 1-6.448 6.448zm0-9.565c-1.72 0-3.118 1.398-3.118 3.118s1.4 3.12 3.118 3.12c1.72 0 3.117-1.398 3.117-3.118s-1.397-3.117-3.117-3.117z"/></svg>