<!DOCTYPE svg PUBLIC "-//W3C//DTD SVG 1.1//EN" "http://www.w3.org/Graphics/SVG/1.1/DTD/svg11.dtd" [
	<!ENTITY ns_flows "http://ns.adobe.com/Flows/1.0/">
]><svg xmlns="http://www.w3.org/2000/svg" width="72" height="72" viewBox="-7.174 -3.991 72 72" overflow="visible"><path fill-rule="evenodd" clip-rule="evenodd" fill="#F3F4F4" d="M55.623 34.126a13.068 13.068 0 0 1-3.464.465c-7.213 0-13.06-5.844-13.06-13.055 0-3.16.905-6.26 2.993-8.317a505.5 505.5 0 0 1 2.895-2.82l10.633 6.138v17.59z"/><path fill="#A7A9AC" d="M28.897 64.292c-1.976 0-3.75-.963-6.477-2.535L6.55 52.605C.624 49.183.013 48.132.008 41.357L0 23.035c0-6.842.604-7.896 6.47-11.29L22.334 2.58C25.1.98 26.896 0 28.868 0c1.977 0 3.75.964 6.477 2.537l15.87 9.152c5.927 3.42 6.538 4.47 6.543 11.25l.008 18.32c0 6.84-.604 7.895-6.47 11.29l-15.862 9.166c-2.77 1.597-4.564 2.575-6.537 2.575zm-.03-60.956c-1.06 0-2.36.683-4.867 2.13L8.14 14.633c-4.805 2.778-4.805 2.778-4.805 8.402l.008 18.318c.005 5.55.005 5.55 4.875 8.363l15.868 9.15c2.558 1.475 3.792 2.092 4.81 2.092 1.064 0 2.362-.684 4.87-2.13l15.86-9.167c4.805-2.777 4.805-2.777 4.803-8.4l-.01-18.32c-.003-5.55-.003-5.55-4.873-8.362l-15.87-9.15c-2.556-1.475-3.79-2.09-4.81-2.09z"/><path fill="#A7A9AC" d="M38.3 39.897H19.466c-.307 0-.556-.256-.556-.573s.248-.573.555-.573H38.3c.307 0 .556.258.556.575s-.25.573-.555.573zm0-6.78H19.466a.562.562 0 0 1-.556-.57c0-.316.248-.574.555-.574H38.3c.307 0 .556.258.556.574 0 .315-.25.57-.555.57zm0-7.114H19.466c-.307 0-.556-.257-.556-.574s.248-.575.555-.575H38.3c.307 0 .556.256.556.573s-.25.573-.555.573z"/><path fill-rule="evenodd" clip-rule="evenodd" fill="#FFF" d="M52.967 25.98c4.85 0 8.804-3.955 8.804-8.803 0-4.85-3.953-8.804-8.802-8.804s-8.803 3.955-8.803 8.804c0 4.85 3.954 8.803 8.803 8.803z"/><path fill="#B2D235" d="M52.967 27.65c-5.774 0-10.472-4.7-10.472-10.472s4.697-10.47 10.472-10.47 10.47 4.697 10.47 10.47-4.696 10.47-10.47 10.47zm0-17.607c-3.935 0-7.136 3.2-7.136 7.135s3.203 7.135 7.138 7.135c3.934 0 7.136-3.2 7.136-7.135s-3.203-7.135-7.136-7.135z"/><path fill="#A7A9AC" d="M52.482 19.265a.424.424 0 0 1-.294-.122l-2.118-2.12a.417.417 0 1 1 .59-.588l1.822 1.823 3.4-3.398a.417.417 0 0 1 .59.59l-3.695 3.693a.417.417 0 0 1-.295.122z"/></svg>