<!DOCTYPE svg PUBLIC "-//W3C//DTD SVG 1.1//EN" "http://www.w3.org/Graphics/SVG/1.1/DTD/svg11.dtd" [
	<!ENTITY ns_flows "http://ns.adobe.com/Flows/1.0/">
]><svg xmlns="http://www.w3.org/2000/svg" width="72" height="72" viewBox="-4 -3.629 72 72" overflow="visible"><path fill-rule="evenodd" clip-rule="evenodd" fill="#F3F4F4" d="M10.032 46.864L8.148 45.09l11.084-12.41 14.962 7.978 8.09-14.074 13.08-7.76 4.212 1.663-1.33 27.044L32.2 63.045 9.368 50.3"/><path fill="#A7A9AC" d="M31.927 64.37c-1.98 0-3.754-.964-6.485-2.538l-15.89-9.164c-5.932-3.425-6.544-4.478-6.55-11.262L3 23.37c0-6.85.6-8.214 6.472-11.61l15.882-9.18C28.124.98 29.922 0 31.897 0c1.98 0 3.754.965 6.485 2.54l15.89 9.163c5.933 3.425 6.545 4.478 6.55 11.263l.01 18.343c0 6.85-.605 7.904-6.48 11.303L38.47 61.79c-2.77 1.6-4.57 2.58-6.543 2.58zm-.03-61.03c-1.063 0-2.363.682-4.873 2.13l-15.88 9.18c-4.812 2.78-4.812 2.78-4.81 8.41l.007 18.342c.006 5.558.006 5.558 4.88 8.373l15.89 9.162c2.56 1.477 3.796 2.093 4.817 2.093 1.063 0 2.363-.683 4.873-2.132l15.88-9.177c4.81-2.782 4.81-2.782 4.81-8.41l-.008-18.343c-.005-5.558-.005-5.558-4.88-8.373l-15.888-9.16c-2.56-1.477-3.795-2.094-4.817-2.094z"/><path fill-rule="evenodd" clip-rule="evenodd" fill="#00C0E5" d="M19.162 35.224c1.357 0 2.464-1.107 2.464-2.465s-1.107-2.467-2.464-2.467c-1.358 0-2.466 1.107-2.466 2.465s1.108 2.464 2.466 2.464zM34.34 43.363c1.355 0 2.464-1.107 2.464-2.465s-1.108-2.464-2.465-2.464c-1.36 0-2.467 1.106-2.467 2.464s1.106 2.465 2.465 2.465zM42.054 29.29a2.472 2.472 0 0 0 2.466-2.465 2.47 2.47 0 0 0-2.466-2.466 2.47 2.47 0 0 0-2.464 2.464 2.47 2.47 0 0 0 2.464 2.464z"/><path fill="#00C0E5" d="M6.206 47.88l-.825-.748 13.66-15.07 15.076 8.085 7.522-13.72 16.275-10.07.586.946-16.027 9.917-7.91 14.43-15.28-8.196"/><path fill-rule="evenodd" clip-rule="evenodd" fill="#FFF" d="M58.206 20.955a4.133 4.133 0 0 0 4.123-4.125c0-2.272-1.854-4.125-4.125-4.125s-4.125 1.852-4.125 4.125a4.134 4.134 0 0 0 4.126 4.125z"/><path fill="#B2D235" d="M58.206 22.625a5.8 5.8 0 0 1-5.794-5.794 5.8 5.8 0 0 1 5.794-5.792c3.194 0 5.794 2.6 5.794 5.794 0 3.195-2.6 5.795-5.794 5.795zm0-8.25a2.457 2.457 0 0 0-2.455 2.455c0 1.353 1.104 2.455 2.457 2.455s2.454-1.102 2.454-2.455-1.1-2.455-2.453-2.455z"/><path fill-rule="evenodd" clip-rule="evenodd" fill="#FFF" d="M5.794 51.63a4.134 4.134 0 0 0 4.124-4.125 4.133 4.133 0 0 0-4.124-4.124c-2.272 0-4.125 1.856-4.125 4.126s1.85 4.124 4.123 4.124z"/><path fill="#F0516F" d="M5.794 53.3C2.6 53.3 0 50.7 0 47.504s2.6-5.794 5.794-5.794c3.195 0 5.794 2.6 5.794 5.795S8.988 53.3 5.794 53.3zm0-8.25c-1.354 0-2.455 1.102-2.455 2.455s1.1 2.455 2.453 2.455c1.353 0 2.454-1.102 2.454-2.455s-1.1-2.454-2.454-2.454z"/></svg>