<!DOCTYPE svg PUBLIC "-//W3C//DTD SVG 1.1//EN" "http://www.w3.org/Graphics/SVG/1.1/DTD/svg11.dtd" [
	<!ENTITY ns_flows "http://ns.adobe.com/Flows/1.0/">
]><svg xmlns="http://www.w3.org/2000/svg" width="72" height="72" viewBox="-8 -3.546 72 72" overflow="visible"><path fill-rule="evenodd" clip-rule="evenodd" fill="#F3F4F4" d="M2.355 47.968l.21-21.195 23.305 13.6c1.79 1.048 4.42.926 6.22-.103l24.147-13.813L55.92 44.7l-5.06 6.642-21.617 12.02L2.355 47.968z"/><path fill="#A7A9AC" d="M28.99 41.742c-1.504 0-2.927-.725-5.597-2.264L5.405 29.104c-1.562-.9-2.594-1.496-2.594-2.396 0-.75.716-1.457 2.55-2.518l17.95-10.375c2.708-1.565 4.148-2.302 5.648-2.302 1.504 0 2.926.725 5.597 2.264l17.958 10.358c.28.16.56.31.826.45 1.016.537 1.894 1 1.923 1.81.023.71-.627 1.42-2.175 2.383L34.64 39.44c-2.71 1.566-4.15 2.302-5.65 2.302zm-.032-29.392c-1.298 0-2.654.7-5.23 2.19L5.78 24.914c-1.414.817-2.13 1.42-2.13 1.792 0 .417 1.008 1 2.175 1.672l.05.03L23.81 38.753c2.54 1.463 3.878 2.152 5.18 2.152 1.298 0 2.655-.702 5.23-2.19L52.66 28.06c1.61-1 1.772-1.477 1.768-1.635-.01-.326-.757-.72-1.48-1.1-.274-.145-.564-.298-.853-.465L34.138 14.502c-2.538-1.463-3.876-2.152-5.18-2.152z"/><path fill="#A7A9AC" d="M28.982 55.165c-1.493 0-2.983-.752-5.59-2.254L2.68 40.964l.417-.726 20.713 11.95c4.985 2.872 5.374 2.87 10.41-.04l20.5-11.843.418.725-20.5 11.844c-2.648 1.528-4.153 2.292-5.656 2.292z"/><path fill="#A7A9AC" d="M28.98 48.633c-1.492 0-2.98-.752-5.588-2.256L2.68 34.43l.417-.726 20.713 11.95c4.985 2.87 5.374 2.87 10.41-.04l20.5-11.844.418.724-20.5 11.846c-2.65 1.53-4.153 2.293-5.657 2.293z"/><path fill="#A7A9AC" d="M47.563 51.474h-.835V31.972L19.813 16.434l.42-.726 27.33 15.78"/><path fill="#A7A9AC" d="M28.993 64.505c-1.983 0-3.762-.967-6.5-2.544L6.573 52.78C.627 49.345.012 48.29.007 41.49L0 23.11c0-6.864.605-7.922 6.49-11.326l15.916-9.198C25.182.983 26.983 0 28.962 0c1.984 0 3.762.967 6.5 2.545l15.92 9.182c5.945 3.432 6.56 4.487 6.565 11.285l.008 18.382c0 6.863-.605 7.923-6.492 11.328L35.55 61.92c-2.778 1.602-4.58 2.585-6.557 2.585zm-.03-61.158c-1.067 0-2.368.685-4.884 2.137L8.165 14.68c-4.82 2.79-4.82 2.79-4.82 8.43l.008 18.378c.004 5.57.004 5.57 4.89 8.39l15.92 9.183c2.566 1.48 3.804 2.1 4.828 2.1 1.065 0 2.368-.685 4.884-2.137l15.91-9.196c4.822-2.79 4.822-2.79 4.82-8.43l-.006-18.38c-.005-5.57-.005-5.57-4.89-8.39L33.79 5.444c-2.566-1.48-3.805-2.097-4.828-2.097z"/><path fill-rule="evenodd" clip-rule="evenodd" fill="#F0516F" d="M28.914 17.77c1.428 0 2.593-.69 2.593-1.533 0-.845-1.165-1.533-2.593-1.533s-2.593.688-2.593 1.533c0 .844 1.167 1.532 2.595 1.532z"/><path fill-rule="evenodd" clip-rule="evenodd" fill="#00C0E5" d="M33.765 20.323c1.43 0 2.594-.688 2.594-1.533 0-.844-1.167-1.53-2.596-1.53-1.428 0-2.592.687-2.592 1.53 0 .845 1.164 1.533 2.592 1.533z"/><path fill-rule="evenodd" clip-rule="evenodd" fill="#B2D235" d="M38.7 22.956c1.427 0 2.592-.688 2.592-1.532s-1.165-1.532-2.593-1.532c-1.43 0-2.598.688-2.598 1.532s1.168 1.532 2.596 1.532z"/></svg>